<svg width="30" height="31" viewBox="0 0 30 31" fill="none" xmlns="http://www.w3.org/2000/svg">
<g clip-path="url(#clip0_24_22120)">
<path d="M3.12498 12.377H6.24996C6.15505 12.3769 6.0614 12.3553 5.97608 12.3137C5.89076 12.2721 5.81601 12.2117 5.75748 12.137C5.63871 11.9857 5.59746 11.7882 5.64375 11.6007L6.03252 10.047C6.1335 9.64114 6.36747 9.28081 6.69711 9.02344C7.02674 8.76607 7.43306 8.62649 7.85127 8.62695H11.875C12.9088 8.62695 13.75 9.46818 13.75 10.502V11.7519C13.75 12.0969 13.47 12.377 13.125 12.377H16.875C16.53 12.377 16.25 12.0969 16.25 11.7519V10.502C16.25 9.46818 17.0912 8.62695 18.125 8.62695H22.1487C22.5669 8.62649 22.9733 8.76607 23.3029 9.02344C23.6325 9.28081 23.8665 9.64114 23.9675 10.047L24.3562 11.6007C24.3796 11.6928 24.3814 11.7891 24.3617 11.882C24.342 11.975 24.3012 12.0622 24.2425 12.137C24.184 12.2117 24.1092 12.2721 24.0239 12.3137C23.9386 12.3552 23.8449 12.3769 23.75 12.377H26.875C27.22 12.377 27.5 12.0969 27.5 11.7519V8.00193C27.5 6.27945 26.0975 4.87695 24.3751 4.87695H5.625C3.90252 4.87695 2.50002 6.27945 2.50002 8.00193V11.7519C2.50002 12.0969 2.77998 12.377 3.12498 12.377ZM26.875 13.6269H3.12498C1.4025 13.6269 0 15.0294 0 16.7519V25.5019C0 25.8469 0.28002 26.1269 0.62502 26.1269C0.97002 26.1269 1.25004 25.8469 1.25004 25.5019V23.6269H28.75V25.5019C28.75 25.8469 29.03 26.1269 29.375 26.1269C29.72 26.1269 30.0001 25.8469 30.0001 25.5019V16.7519C30 15.0294 28.5975 13.6269 26.875 13.6269ZM28.75 22.3769H1.24998V21.1269H28.75V22.3769H28.75Z" fill="#141414"/>
</g>
<defs>
<clipPath id="clip0_24_22120">
<rect width="30" height="30" fill="white" transform="translate(0 0.5)"/>
</clipPath>
</defs>
</svg>
