<svg width="28" height="28" viewBox="0 0 28 28" fill="none" xmlns="http://www.w3.org/2000/svg">
<path d="M25.5081 4.38281H2.49195C1.11787 4.38281 0 5.50073 0 6.87476V12.3739C0 13.748 1.11787 14.8659 2.49195 14.8659H25.5081C26.8821 14.8659 28 13.748 28 12.3739V6.87476C28 5.50073 26.8821 4.38281 25.5081 4.38281ZM24.1752 14.0174H3.82462V13.5307C3.82462 12.9774 4.27476 12.5273 4.82798 12.5273H23.1719C23.7251 12.5273 24.1752 12.9774 24.1752 13.5307V14.0174ZM27.1515 12.374C27.1515 13.2802 26.4142 14.0174 25.5081 14.0174H25.0237V13.5307C25.0237 12.5095 24.1929 11.6788 23.1719 11.6788H4.82798C3.80685 11.6788 2.97615 12.5095 2.97615 13.5307V14.0174H2.49195C1.58572 14.0174 0.848477 13.2802 0.848477 12.374V6.87476C0.848477 5.96853 1.58572 5.23129 2.49195 5.23129H25.5081C26.4143 5.23129 27.1515 5.96853 27.1515 6.87476V12.374ZM23.7494 7.26616C22.9722 7.26616 22.3399 7.89845 22.3399 8.67562C22.3399 9.45278 22.9722 10.0851 23.7494 10.0851C24.5266 10.0851 25.1588 9.45278 25.1588 8.67562C25.1588 7.89845 24.5265 7.26616 23.7494 7.26616ZM23.7494 9.2366C23.44 9.2366 23.1884 8.98493 23.1884 8.67562C23.1884 8.3663 23.44 8.11463 23.7494 8.11463C24.0587 8.11463 24.3103 8.36625 24.3103 8.67562C24.3103 8.98498 24.0587 9.2366 23.7494 9.2366ZM18.5283 17.5894C18.4902 16.409 17.59 15.6048 17.5517 15.5712C17.467 15.4984 17.3569 15.4619 17.2455 15.4697C17.1341 15.4775 17.0302 15.529 16.9564 15.6129C16.8827 15.6968 16.845 15.8064 16.8516 15.9179C16.8582 16.0295 16.9085 16.1339 16.9916 16.2085C16.9982 16.2144 17.6543 16.8126 17.6803 17.6167C17.6967 18.1235 17.4582 18.6272 16.9717 19.1138C15.85 20.2355 15.9141 21.3784 16.1654 22.1398C16.4279 22.9352 16.9475 23.4685 16.9695 23.4908C17.0088 23.5308 17.0557 23.5626 17.1074 23.5843C17.1592 23.6059 17.2148 23.6171 17.2709 23.617C17.3819 23.6171 17.4886 23.5735 17.5679 23.4957C17.7349 23.3322 17.7377 23.0638 17.5748 22.8962C17.5707 22.892 17.1583 22.4629 16.963 21.8489C16.7186 21.0804 16.9233 20.362 17.5716 19.7137C18.2307 19.0548 18.5526 18.34 18.5283 17.5894ZM20.4141 18.4364C20.3891 17.6625 19.829 17.1486 19.7652 17.0926C19.6805 17.0198 19.5705 16.9834 19.459 16.9912C19.3476 16.999 19.2437 17.0504 19.17 17.1344C19.0962 17.2183 19.0586 17.3279 19.0652 17.4394C19.0717 17.5509 19.1221 17.6553 19.2052 17.73C19.2086 17.7331 19.5528 18.0534 19.566 18.4638C19.5744 18.7231 19.4463 18.987 19.1852 19.2481C18.6076 19.8257 18.4196 20.5378 18.6558 21.2534C18.8242 21.7635 19.1468 22.1006 19.1831 22.1374C19.2225 22.1775 19.2695 22.2094 19.3214 22.2311C19.3733 22.2528 19.429 22.264 19.4853 22.2639C19.5689 22.2639 19.6507 22.2392 19.7203 22.1928C19.7899 22.1465 19.8443 22.0806 19.8766 22.0034C19.9089 21.9263 19.9177 21.8413 19.9018 21.7592C19.8859 21.6771 19.8461 21.6015 19.7874 21.5419C19.7853 21.5397 19.5679 21.3095 19.4616 20.9874C19.3254 20.5748 19.4312 20.2021 19.7853 19.8481C20.2188 19.4145 20.4304 18.9395 20.4141 18.4364ZM15.6427 18.4364C15.6177 17.6625 15.0576 17.1486 14.9938 17.0926C14.9521 17.0549 14.9033 17.0259 14.8503 17.0072C14.7972 16.9885 14.741 16.9805 14.6849 16.9837C14.6287 16.9869 14.5738 17.0013 14.5233 17.0259C14.4727 17.0506 14.4276 17.085 14.3905 17.1273C14.3534 17.1695 14.325 17.2187 14.3071 17.272C14.2892 17.3253 14.282 17.3816 14.286 17.4377C14.2901 17.4938 14.3052 17.5485 14.3306 17.5987C14.3559 17.6489 14.391 17.6935 14.4338 17.73C14.4372 17.7331 14.7814 18.0534 14.7947 18.4638C14.803 18.7231 14.6749 18.987 14.4138 19.2481C13.8362 19.8257 13.6482 20.5378 13.8844 21.2534C14.0529 21.7635 14.3754 22.1006 14.4117 22.1374C14.4511 22.1775 14.4981 22.2094 14.55 22.2311C14.6019 22.2528 14.6576 22.264 14.7139 22.2639C14.7975 22.2639 14.8793 22.2392 14.949 22.1929C15.0186 22.1465 15.073 22.0806 15.1053 22.0035C15.1376 21.9263 15.1464 21.8413 15.1305 21.7592C15.1146 21.677 15.0748 21.6014 15.016 21.5419C15.0139 21.5397 14.7965 21.3095 14.6902 20.9874C14.554 20.5748 14.6599 20.2021 15.0139 19.8481C15.4474 19.4145 15.6589 18.9395 15.6427 18.4364ZM10.627 18.4456C10.5708 18.3482 10.4781 18.2771 10.3694 18.2479C10.2608 18.2188 10.145 18.234 10.0475 18.2903L8.9868 18.9027V17.5492C8.9868 17.3148 8.79687 17.1249 8.56253 17.1249C8.3282 17.1249 8.13827 17.3148 8.13827 17.5492V18.9027L6.96604 18.2259C6.86869 18.1712 6.75371 18.1571 6.64604 18.1867C6.53836 18.2162 6.44666 18.287 6.39083 18.3837C6.335 18.4804 6.31954 18.5952 6.34779 18.7032C6.37605 18.8112 6.44575 18.9037 6.54177 18.9607L7.714 19.6375L6.54177 20.3142C6.46081 20.3609 6.39753 20.433 6.36176 20.5193C6.32599 20.6057 6.31973 20.7014 6.34396 20.7917C6.36819 20.8819 6.42155 20.9617 6.49574 21.0185C6.56994 21.0753 6.66083 21.1061 6.75429 21.1059C6.82626 21.1059 6.89921 21.0875 6.96604 21.049L8.13827 20.3722V21.597C8.13827 21.7095 8.18297 21.8175 8.26253 21.897C8.3421 21.9766 8.45001 22.0213 8.56253 22.0213C8.67505 22.0213 8.78297 21.9766 8.86253 21.897C8.9421 21.8175 8.9868 21.7095 8.9868 21.597V20.3722L10.0475 20.9846C10.0958 21.0125 10.149 21.0306 10.2043 21.0378C10.2595 21.0451 10.3156 21.0415 10.3695 21.027C10.4233 21.0126 10.4737 20.9877 10.5179 20.9538C10.5621 20.9199 10.5992 20.8776 10.627 20.8293C10.6833 20.7319 10.6985 20.6161 10.6694 20.5074C10.6403 20.3987 10.5692 20.3061 10.4718 20.2498L9.41106 19.6374L10.4718 19.025C10.52 18.9972 10.5623 18.9601 10.5962 18.9159C10.6301 18.8717 10.655 18.8213 10.6694 18.7675C10.6839 18.7137 10.6875 18.6575 10.6803 18.6023C10.673 18.5471 10.6549 18.4938 10.627 18.4456Z" fill="#141414"/>
</svg>
