<svg width="28" height="28" viewBox="0 0 28 28" fill="none" xmlns="http://www.w3.org/2000/svg">
<path d="M25.75 19.0833V17.8333H26.1667C26.3877 17.8333 26.5996 17.7455 26.7559 17.5893C26.9122 17.433 27 17.221 27 17V16.5833C27 16.1413 26.8244 15.7174 26.5118 15.4048C26.1993 15.0923 25.7754 14.9167 25.3333 14.9167H22.6292C22.3655 14.4143 21.9696 13.9935 21.4842 13.6997C20.9988 13.406 20.4424 13.2505 19.875 13.25H15.2917C14.8549 13.2282 14.4183 13.2978 14.01 13.4544C13.6017 13.611 13.2305 13.8512 12.9204 14.1596C12.8529 14.1096 12.7871 14.0572 12.7233 14.0025C11.4718 12.9525 9.88342 12.3894 8.25 12.4167H6.58333V4.91668C6.58333 4.80617 6.62723 4.70019 6.70537 4.62205C6.78351 4.54391 6.88949 4.50001 7 4.50001H9.225C9.33667 4.50001 9.44417 4.54501 9.52208 4.62501L10.1142 5.2171C9.71747 5.72689 9.50143 6.35406 9.5 7.00001C9.5 7.22103 9.5878 7.43299 9.74408 7.58927C9.90036 7.74555 10.1123 7.83335 10.3333 7.83335H14.5C14.7059 7.83099 14.904 7.75387 15.0573 7.61636C15.2106 7.47885 15.3087 7.29031 15.3333 7.08585C15.3441 6.36614 15.0927 5.66708 14.6261 5.11907C14.1594 4.57106 13.5093 4.21152 12.7971 4.10751C12.7045 4.09636 12.6115 4.08955 12.5183 4.0871L11.2917 2.85543C11.0209 2.58317 10.6989 2.36737 10.3441 2.22053C9.98933 2.07369 9.60895 1.99873 9.225 2.00002H7C6.22672 2.0009 5.48537 2.30847 4.93858 2.85526C4.39179 3.40205 4.08422 4.1434 4.08333 4.91668V12.4167H3.66667C3.22464 12.4167 2.80072 12.5923 2.48816 12.9048C2.17559 13.2174 2 13.6413 2 14.0833L2 14.5C2 14.721 2.0878 14.933 2.24408 15.0893C2.40036 15.2455 2.61232 15.3333 2.83333 15.3333H3.25V19.0833C3.25091 19.9917 3.48038 20.8852 3.91727 21.6816C4.35416 22.4779 4.98442 23.1516 5.75 23.6404V24.5H5.33333C5.00181 24.5 4.68387 24.6317 4.44945 24.8661C4.21503 25.1005 4.08333 25.4185 4.08333 25.75V26.1667H2.41667C2.30616 26.1667 2.20018 26.2106 2.12204 26.2887C2.0439 26.3668 2 26.4728 2 26.5833C2 26.6938 2.0439 26.7998 2.12204 26.878C2.20018 26.9561 2.30616 27 2.41667 27H26.5833C26.6938 27 26.7998 26.9561 26.878 26.878C26.9561 26.7998 27 26.6938 27 26.5833C27 26.4728 26.9561 26.3668 26.878 26.2887C26.7998 26.2106 26.6938 26.1667 26.5833 26.1667H24.9167V25.75C24.9167 25.4185 24.785 25.1005 24.5505 24.8661C24.3161 24.6317 23.9982 24.5 23.6667 24.5H23.25V23.6404C24.0156 23.1516 24.6458 22.4779 25.0827 21.6816C25.5196 20.8852 25.7491 19.9917 25.75 19.0833ZM26.1667 16.5833V17H23V16.375C23 16.165 22.9788 15.9558 22.9363 15.75H25.3333C25.5543 15.75 25.7663 15.8378 25.9226 15.9941C26.0789 16.1504 26.1667 16.3623 26.1667 16.5833ZM21.9904 15.4929C22.1069 15.7724 22.1668 16.0722 22.1667 16.375V21.1667C22.1667 21.2772 22.1228 21.3832 22.0446 21.4613C21.9665 21.5394 21.8605 21.5833 21.75 21.5833H18.6667C18.5562 21.5833 18.4502 21.5394 18.372 21.4613C18.2939 21.3832 18.25 21.2772 18.25 21.1667V16.375C18.2503 15.9445 18.1613 15.5185 17.9887 15.1241C17.816 14.7297 17.5635 14.3753 17.2471 14.0833H19.875C20.3274 14.0833 20.7696 14.2171 21.1461 14.4679C21.5225 14.7188 21.8163 15.0754 21.9904 15.4929ZM16.5833 16.375C16.5847 16.1828 16.5469 15.9924 16.4721 15.8154C16.3625 15.5499 16.1767 15.3228 15.9381 15.1628C15.6996 15.0029 15.4189 14.9172 15.1317 14.9167C14.63 14.9106 14.1348 14.8026 13.6763 14.5992C14.0122 14.3251 14.419 14.1519 14.8494 14.0998C15.2798 14.0476 15.7162 14.1187 16.1079 14.3046C16.4995 14.4906 16.8304 14.7838 17.0621 15.1503C17.2937 15.5168 17.4167 15.9414 17.4167 16.375V21.1667C17.4179 21.3088 17.4442 21.45 17.4933 21.5833H17C16.8895 21.5833 16.7835 21.5394 16.7054 21.4613C16.6272 21.3832 16.5833 21.2772 16.5833 21.1667V16.375ZM14.5 7.00001H10.3333C10.3333 6.44748 10.5528 5.91758 10.9435 5.52687C11.3342 5.13617 11.8641 4.91668 12.4167 4.91668C12.9692 4.91668 13.4991 5.13617 13.8898 5.52687C14.2805 5.91758 14.5 6.44748 14.5 7.00001ZM4.91667 4.91668C4.91733 4.36435 5.13703 3.83483 5.52759 3.44427C5.91815 3.05372 6.44767 2.83401 7 2.83335H9.225C9.49917 2.83253 9.77077 2.88609 10.0241 2.99094C10.2774 3.09579 10.5074 3.24984 10.7008 3.44418L11.4925 4.23793C11.2137 4.33043 10.9508 4.4646 10.7125 4.63585L10.1112 4.0346C9.99522 3.91768 9.85714 3.82495 9.70501 3.76179C9.55288 3.69864 9.38972 3.66631 9.225 3.66668H7C6.66848 3.66668 6.35054 3.79838 6.11612 4.0328C5.8817 4.26722 5.75 4.58516 5.75 4.91668V12.4167H4.91667V4.91668ZM2.83333 14.0833C2.83333 13.8623 2.92113 13.6504 3.07741 13.4941C3.23369 13.3378 3.44565 13.25 3.66667 13.25H8.25C9.68208 13.2228 11.0759 13.7129 12.1758 14.6304C12.9527 15.3025 13.9323 15.695 14.9583 15.7454C15.1633 15.7271 15.3679 15.7829 15.5354 15.9017C15.6721 16.0213 15.75 16.1933 15.75 16.375V17H15.3333C13.9009 17.0259 12.5071 16.5356 11.4062 15.6188C10.5755 14.8977 9.51253 14.5005 8.4125 14.5H2.83333V14.0833ZM4.08333 19.0833V15.3333H8.4125C9.31153 15.3338 10.1803 15.6582 10.8596 16.2471C12.1115 17.2967 13.6998 17.8599 15.3333 17.8333H15.75V21.1667C15.75 21.4982 15.8817 21.8161 16.1161 22.0506C16.3505 22.285 16.6685 22.4167 17 22.4167H21.75C22.0815 22.4167 22.3995 22.285 22.6339 22.0506C22.8683 21.8161 23 21.4982 23 21.1667V17.8333H24.9167V19.0833C24.9137 21.6133 22.8633 23.6638 20.3333 23.6667H8.66667C6.13667 23.6638 4.08625 21.6133 4.08333 19.0833ZM9.57583 24.5H19.4242C19.6785 24.7018 19.8883 24.954 20.0403 25.2409C20.1923 25.5277 20.2833 25.8429 20.3075 26.1667H8.69208C8.71646 25.8429 8.80756 25.5277 8.95965 25.2409C9.11174 24.9541 9.32153 24.7018 9.57583 24.5ZM4.91667 26.1667V25.75C4.91667 25.6395 4.96057 25.5335 5.03871 25.4554C5.11685 25.3772 5.22283 25.3333 5.33333 25.3333H6.16667C6.27717 25.3333 6.38315 25.2894 6.46129 25.2113C6.53943 25.1332 6.58333 25.0272 6.58333 24.9167V24.0833C7.175 24.3292 7.80625 24.4667 8.44667 24.49C8.10186 24.9854 7.89716 25.5646 7.85417 26.1667H4.91667ZM22.8333 25.3333H23.6667C23.7772 25.3333 23.8832 25.3772 23.9613 25.4554C24.0394 25.5335 24.0833 25.6395 24.0833 25.75V26.1667H21.1479C21.1039 25.5641 20.8986 24.9845 20.5533 24.4888C21.1936 24.4657 21.8247 24.3284 22.4167 24.0833V24.9167C22.4167 25.0272 22.4606 25.1332 22.5387 25.2113C22.6168 25.2894 22.7228 25.3333 22.8333 25.3333Z" fill="#141414"/>
<path d="M9.08073 22.4183C9.08073 22.3078 9.03683 22.2018 8.95869 22.1236C8.88055 22.0455 8.77457 22.0016 8.66406 22.0016C7.89079 22.0007 7.14943 21.6931 6.60264 21.1463C6.05585 20.5996 5.74828 19.8582 5.7474 19.0849C5.7474 18.9744 5.7035 18.8684 5.62536 18.7903C5.54722 18.7122 5.44124 18.6683 5.33073 18.6683C5.22022 18.6683 5.11424 18.7122 5.0361 18.7903C4.95796 18.8684 4.91406 18.9744 4.91406 19.0849C4.91517 20.0791 5.31061 21.0323 6.01363 21.7354C6.71665 22.4384 7.66984 22.8338 8.66406 22.8349C8.77457 22.8349 8.88055 22.791 8.95869 22.7129C9.03683 22.6347 9.08073 22.5288 9.08073 22.4183ZM11.9974 9.08493V11.1683C11.9974 11.2788 12.0413 11.3848 12.1194 11.4629C12.1976 11.541 12.3036 11.5849 12.4141 11.5849C12.5246 11.5849 12.6306 11.541 12.7087 11.4629C12.7868 11.3848 12.8307 11.2788 12.8307 11.1683V9.08493C12.8307 8.97443 12.7868 8.86844 12.7087 8.7903C12.6306 8.71216 12.5246 8.66827 12.4141 8.66827C12.3036 8.66827 12.1976 8.71216 12.1194 8.7903C12.0413 8.86844 11.9974 8.97443 11.9974 9.08493ZM10.3603 8.92993L9.52698 11.0133C9.48587 11.1159 9.48723 11.2307 9.53075 11.3324C9.57428 11.434 9.6564 11.5142 9.75906 11.5553C9.86172 11.5965 9.97651 11.5951 10.0782 11.5516C10.1798 11.5081 10.26 11.4259 10.3011 11.3233L11.1345 9.23993C11.1756 9.13727 11.1742 9.02249 11.1307 8.92082C11.0872 8.81916 11.0051 8.73896 10.9024 8.69785C10.7997 8.65674 10.6849 8.6581 10.5833 8.70162C10.4816 8.74515 10.4014 8.82727 10.3603 8.92993ZM14.4678 8.92993C14.4267 8.82727 14.3465 8.74515 14.2448 8.70162C14.1432 8.6581 14.0284 8.65674 13.9257 8.69785C13.8231 8.73896 13.7409 8.81916 13.6974 8.92082C13.6539 9.02249 13.6525 9.13727 13.6936 9.23993L14.527 11.3233C14.5681 11.4259 14.6483 11.5081 14.75 11.5516C14.8516 11.5951 14.9664 11.5965 15.0691 11.5553C15.1717 11.5142 15.2538 11.434 15.2974 11.3324C15.3409 11.2307 15.3423 11.1159 15.3011 11.0133L14.4678 8.92993Z" fill="#141414"/>
</svg>
