<svg width="28" height="28" viewBox="0 0 28 28" fill="none" xmlns="http://www.w3.org/2000/svg">
<path d="M27.0682 4.36719H0.93182C0.417977 4.36719 0 4.78516 0 5.29895V19.9747C0 20.4885 0.417977 20.9064 0.93182 20.9064H27.0682C27.582 20.9064 28 20.4885 28 19.9747V5.29895C28 4.78516 27.582 4.36719 27.0682 4.36719ZM27.1515 19.9747C27.1515 20.0198 27.1134 20.058 27.0682 20.058H0.93182C0.909819 20.0577 0.888798 20.0488 0.873239 20.0333C0.857681 20.0177 0.848815 19.9967 0.848531 19.9747V5.29895C0.848531 5.25378 0.886703 5.21566 0.93182 5.21566H27.0682C27.1134 5.21566 27.1515 5.25378 27.1515 5.29895V19.9747ZM21.8329 22.8172C20.157 22.0821 17.2289 21.6432 14.0003 21.6432C10.7713 21.6432 7.8429 22.0822 6.16705 22.8174C6.07779 22.8565 6.00471 22.9251 5.96009 23.0118C5.91548 23.0984 5.90206 23.1978 5.92209 23.2932C5.94212 23.3886 5.99437 23.4741 6.07006 23.5355C6.14576 23.5969 6.24028 23.6304 6.33773 23.6303C6.39635 23.6302 6.45432 23.618 6.50798 23.5944C8.05831 22.9142 10.9292 22.4917 14.0003 22.4917C17.0711 22.4917 19.9418 22.9142 21.4922 23.5943C21.5432 23.6167 21.5981 23.6288 21.6538 23.63C21.7095 23.6311 21.7649 23.6213 21.8168 23.601C21.8687 23.5808 21.9161 23.5505 21.9563 23.5119C21.9965 23.4733 22.0287 23.4272 22.0511 23.3762C22.0963 23.2731 22.0987 23.1563 22.0578 23.0515C22.0169 22.9467 21.936 22.8624 21.8329 22.8172ZM16.8183 12.2428L11.9917 10.3136C11.9273 10.2879 11.8576 10.2783 11.7887 10.2858C11.7198 10.2932 11.6537 10.3174 11.5963 10.3563C11.5389 10.3951 11.4919 10.4475 11.4594 10.5087C11.4269 10.57 11.4099 10.6382 11.4099 10.7075V14.566C11.4099 14.6353 11.4269 14.7036 11.4594 14.7649C11.4919 14.8261 11.5389 14.8784 11.5963 14.9173C11.6537 14.9562 11.7198 14.9804 11.7887 14.9878C11.8576 14.9952 11.9273 14.9857 11.9917 14.9599L16.8183 13.0307C16.897 12.9992 16.9645 12.9449 17.012 12.8746C17.0596 12.8044 17.085 12.7216 17.085 12.6368C17.085 12.552 17.0596 12.4691 17.012 12.3989C16.9645 12.3287 16.897 12.2743 16.8183 12.2428ZM12.2584 13.9396V11.334L15.5178 12.6368L12.2584 13.9396Z" fill="#141414"/>
</svg>
