<svg width="24" height="24" viewBox="0 0 24 24" fill="none" xmlns="http://www.w3.org/2000/svg">
<path d="M3.70322 13.4355H5.84226V15.0144H3.70322V13.4355Z" fill="#034177"/>
<path d="M22.5778 9.25296H1.42224C0.646738 9.25296 0.0180969 9.8816 0.0180969 10.6571V22.5959C0.0180969 23.3713 0.646738 24 1.42224 24H22.5778C23.3533 24 23.9819 23.3713 23.9819 22.5958V10.6571C23.9819 9.8816 23.3533 9.25296 22.5778 9.25296ZM5.68107 20.9531H2.20566V19.549H5.68107V20.9531ZM7.24641 15.2482C7.24641 15.8934 6.7215 16.4183 6.07632 16.4183H3.46918C2.82399 16.4183 2.29908 15.8934 2.29908 15.2482V13.2012C2.29908 12.5561 2.82399 12.0311 3.46918 12.0311H6.07627C6.72146 12.0311 7.24636 12.5561 7.24636 13.2012L7.24641 15.2482ZM11.0521 20.9531H7.57674V19.549H11.0521V20.9531ZM16.4233 20.9531H12.9479V19.549H16.4233V20.9531ZM21.7943 20.9531H18.3189V19.549H21.7943V20.9531ZM18.8676 3.41088L15.868 0.411258C15.3196 -0.137086 14.4306 -0.137086 13.8822 0.411258L6.44466 7.84882H14.6832L18.8676 3.41088ZM18.7814 7.84882L20.9769 5.52021L19.8609 4.40421L16.6131 7.84882H18.7814ZM22.5778 7.84882C22.8794 7.84882 23.1698 7.8972 23.4423 7.9856L21.9703 6.51354L20.7113 7.84887L22.5778 7.84882Z" fill="#034177"/>
</svg>
