<svg width="34" height="35" viewBox="0 0 34 35" fill="none" xmlns="http://www.w3.org/2000/svg">
<path d="M9.83858 1.66667C9.83858 0.746192 9.09239 0 8.17192 0C7.25144 0 6.50525 0.746192 6.50525 1.66667V3.33333C6.50525 4.25381 7.25144 5 8.17192 5C9.09239 5 9.83858 4.25381 9.83858 3.33333V1.66667Z" fill="#034177"/>
<path d="M28.1667 1.66667C28.1667 0.746192 27.4205 0 26.5 0C25.5796 0 24.8334 0.746192 24.8334 1.66667V3.33333C24.8334 4.25381 25.5796 5 26.5 5C27.4205 5 28.1667 4.25381 28.1667 3.33333V1.66667Z" fill="#034177"/>
<path d="M0.669312 12.5V31.6667C0.669312 32.5507 1.0205 33.3986 1.64562 34.0237C2.27074 34.6488 3.11859 35 4.00265 35H30.6693C31.5534 35 32.4012 34.6488 33.0263 34.0237C33.6515 33.3986 34.0026 32.5507 34.0026 31.6667V12.5H0.669312ZM10.6693 29.1667C10.6693 29.6087 10.4937 30.0326 10.1812 30.3452C9.8686 30.6577 9.44467 30.8333 9.00265 30.8333H7.33598C6.89395 30.8333 6.47003 30.6577 6.15747 30.3452C5.84491 30.0326 5.66931 29.6087 5.66931 29.1667V27.5C5.66931 27.058 5.84491 26.634 6.15747 26.3215C6.47003 26.0089 6.89395 25.8333 7.33598 25.8333H9.00265C9.44467 25.8333 9.8686 26.0089 10.1812 26.3215C10.4937 26.634 10.6693 27.058 10.6693 27.5V29.1667ZM10.6693 20C10.6693 20.442 10.4937 20.8659 10.1812 21.1785C9.8686 21.4911 9.44467 21.6667 9.00265 21.6667H7.33598C6.89395 21.6667 6.47003 21.4911 6.15747 21.1785C5.84491 20.8659 5.66931 20.442 5.66931 20V18.3333C5.66931 17.8913 5.84491 17.4674 6.15747 17.1548C6.47003 16.8423 6.89395 16.6667 7.33598 16.6667H9.00265C9.44467 16.6667 9.8686 16.8423 10.1812 17.1548C10.4937 17.4674 10.6693 17.8913 10.6693 18.3333V20ZM19.836 29.1667C19.836 29.6087 19.6604 30.0326 19.3478 30.3452C19.0353 30.6577 18.6113 30.8333 18.1693 30.8333H16.5026C16.0606 30.8333 15.6367 30.6577 15.3241 30.3452C15.0116 30.0326 14.836 29.6087 14.836 29.1667V27.5C14.836 27.058 15.0116 26.634 15.3241 26.3215C15.6367 26.0089 16.0606 25.8333 16.5026 25.8333H18.1693C18.6113 25.8333 19.0353 26.0089 19.3478 26.3215C19.6604 26.634 19.836 27.058 19.836 27.5V29.1667ZM19.836 20C19.836 20.442 19.6604 20.8659 19.3478 21.1785C19.0353 21.4911 18.6113 21.6667 18.1693 21.6667H16.5026C16.0606 21.6667 15.6367 21.4911 15.3241 21.1785C15.0116 20.8659 14.836 20.442 14.836 20V18.3333C14.836 17.8913 15.0116 17.4674 15.3241 17.1548C15.6367 16.8423 16.0606 16.6667 16.5026 16.6667H18.1693C18.6113 16.6667 19.0353 16.8423 19.3478 17.1548C19.6604 17.4674 19.836 17.8913 19.836 18.3333V20ZM29.0026 29.1667C29.0026 29.6087 28.8271 30.0326 28.5145 30.3452C28.2019 30.6577 27.778 30.8333 27.336 30.8333H25.6693C25.2273 30.8333 24.8034 30.6577 24.4908 30.3452C24.1782 30.0326 24.0026 29.6087 24.0026 29.1667V27.5C24.0026 27.058 24.1782 26.634 24.4908 26.3215C24.8034 26.0089 25.2273 25.8333 25.6693 25.8333H27.336C27.778 25.8333 28.2019 26.0089 28.5145 26.3215C28.8271 26.634 29.0026 27.058 29.0026 27.5V29.1667ZM29.0026 20C29.0026 20.442 28.8271 20.8659 28.5145 21.1785C28.2019 21.4911 27.778 21.6667 27.336 21.6667H25.6693C25.2273 21.6667 24.8034 21.4911 24.4908 21.1785C24.1782 20.8659 24.0026 20.442 24.0026 20V18.3333C24.0026 17.8913 24.1782 17.4674 24.4908 17.1548C24.8034 16.8423 25.2273 16.6667 25.6693 16.6667H27.336C27.778 16.6667 28.2019 16.8423 28.5145 17.1548C28.8271 17.4674 29.0026 17.8913 29.0026 18.3333V20ZM34.0026 10.8333V5.83333C34.0026 4.94928 33.6515 4.10143 33.0263 3.47631C32.4012 2.85119 31.5534 2.5 30.6693 2.5H29.836V3.33333C29.836 5.17167 28.341 6.66667 26.5026 6.66667C24.6643 6.66667 23.1693 5.17167 23.1693 3.33333V2.5H11.5026V3.33333C11.5026 5.17167 10.0076 6.66667 8.16931 6.66667C6.33098 6.66667 4.83598 5.17167 4.83598 3.33333V2.5H4.00265C3.11859 2.5 2.27074 2.85119 1.64562 3.47631C1.0205 4.10143 0.669312 4.94928 0.669312 5.83333V10.8333H34.0026Z" fill="#034177"/>
</svg>
