<svg width="24" height="24" viewBox="0 0 24 24" fill="none" xmlns="http://www.w3.org/2000/svg">
<path fill-rule="evenodd" clip-rule="evenodd" d="M12.9091 11.2038L8.2001 5.94861C8.52526 5.04511 9.18255 4.27916 10.0547 3.78736C10.9269 3.29556 11.9573 3.10989 12.9621 3.26347C13.9669 3.41705 14.8807 3.89989 15.5407 4.62587C16.2006 5.35186 16.5638 6.27378 16.5653 7.22721C16.5652 8.1902 16.1961 9.12118 15.5252 9.85092C14.8542 10.5807 13.9259 11.0607 12.9091 11.2038ZM15.9393 19.85L17.26 21.3128C17.4071 21.4756 17.6172 21.5771 17.8442 21.5948C18.0712 21.6125 18.2964 21.5451 18.4703 21.4073C18.6441 21.2695 18.7525 21.0727 18.7714 20.8601C18.7903 20.6476 18.7183 20.4367 18.5712 20.2738L5.52533 5.82879C5.45335 5.74575 5.3644 5.677 5.2637 5.62655C5.163 5.5761 5.05257 5.54497 4.93886 5.53499C4.82516 5.525 4.71047 5.53635 4.60151 5.56838C4.49255 5.60041 4.3915 5.65248 4.30429 5.72153C4.21708 5.79058 4.14545 5.87523 4.0936 5.97053C4.04175 6.06582 4.01072 6.16985 4.00232 6.27651C3.99393 6.38317 4.00834 6.49033 4.0447 6.59172C4.08107 6.6931 4.13867 6.78667 4.21413 6.86695L9.71909 12.9625C7.25899 13.1764 5.74257 13.6645 5.03073 13.9508C4.72075 14.0754 4.54386 14.3649 4.54386 14.6801C4.54386 16.1159 5.15289 17.4929 6.23696 18.5081C7.32103 19.5233 8.79135 20.0937 10.3245 20.0937H14.2194C14.8188 20.0937 15.3958 20.0085 15.9393 19.85ZM20 14.6801C20 15.8751 19.587 16.98 18.8863 17.875L14.459 12.9335C17.1355 13.1289 18.7669 13.65 19.514 13.9508C19.8231 14.0754 20 14.3649 20 14.6801Z" fill="#034177"/>
</svg>
