<svg width="16" height="16" viewBox="0 0 16 16" fill="none" xmlns="http://www.w3.org/2000/svg">
<path d="M1.94391 4.67969L2.77419 14.7027C2.83369 15.4255 3.44938 15.9922 4.17494 15.9922H11.8251C12.5507 15.9922 13.1663 15.4255 13.2258 14.7027L14.0561 4.67969H1.94391ZM5.65581 14.1172C5.41044 14.1172 5.204 13.9263 5.18844 13.6777L4.71969 6.11522C4.70366 5.85659 4.90003 5.63413 5.15822 5.61809C5.426 5.59931 5.63887 5.798 5.65534 6.05662L6.12409 13.6191C6.14069 13.8869 5.92878 14.1172 5.65581 14.1172ZM8.46875 13.6484C8.46875 13.9075 8.25909 14.1172 8 14.1172C7.74091 14.1172 7.53125 13.9075 7.53125 13.6484V6.08594C7.53125 5.82684 7.74091 5.61719 8 5.61719C8.25909 5.61719 8.46875 5.82684 8.46875 6.08594V13.6484ZM11.2803 6.11525L10.8116 13.6777C10.7962 13.9238 10.5911 14.1289 10.3144 14.1163C10.0562 14.1003 9.85987 13.8778 9.87591 13.6192L10.3447 6.05666C10.3607 5.79803 10.5873 5.60987 10.8418 5.61812C11.1 5.63416 11.2963 5.85663 11.2803 6.11525ZM14.0937 1.86719H11.2812V1.39844C11.2812 0.623 10.6504 -0.0078125 9.875 -0.0078125H6.125C5.34956 -0.0078125 4.71875 0.623 4.71875 1.39844V1.86719H1.90625C1.38847 1.86719 0.96875 2.28691 0.96875 2.80469C0.96875 3.32241 1.38847 3.74219 1.90625 3.74219H14.0937C14.6115 3.74219 15.0312 3.32241 15.0312 2.80469C15.0312 2.28691 14.6115 1.86719 14.0937 1.86719ZM10.3437 1.86719H5.65625V1.39844C5.65625 1.13981 5.86637 0.929688 6.125 0.929688H9.875C10.1336 0.929688 10.3437 1.13981 10.3437 1.39844V1.86719Z" fill="#F20007"/>
</svg>
