<svg width="88" height="66" viewBox="0 0 88 66" fill="none" xmlns="http://www.w3.org/2000/svg">
<path d="M77.508 48.6024L18.5298 64.9751C16.8062 65.4547 14.9627 65.2306 13.4042 64.3521C11.8456 63.4736 10.6993 62.0125 10.2171 60.2897L8.6771 54.7333L0.613464 25.6879C0.376095 24.8334 0.309436 23.9406 0.417299 23.0604C0.525162 22.1802 0.805431 21.3299 1.24209 20.558C1.67874 19.7862 2.26323 19.108 2.96213 18.5622C3.66103 18.0163 4.46065 17.6136 5.31528 17.3769L9.82801 16.1151L22.748 12.5351L64.2934 1.00422C65.1478 0.766816 66.0405 0.700081 66.9206 0.807826C67.8007 0.915572 68.651 1.19569 69.4228 1.63216C70.1946 2.06864 70.8728 2.65292 71.4187 3.35162C71.9646 4.05032 72.3675 4.84975 72.6044 5.70422L74.5025 12.5369L82.208 40.2897C82.4457 41.1441 82.5126 42.037 82.405 42.9173C82.2974 43.7976 82.0173 44.6481 81.5808 45.4201C81.1443 46.1921 80.56 46.8706 79.8611 47.4166C79.1623 47.9626 78.3627 48.3656 77.508 48.6024Z" fill="#D5D5D5"/>
<path d="M77.5106 48.6045L18.5324 64.9773C16.8088 65.4568 14.9653 65.2327 13.4067 64.3542C11.8482 63.4758 10.7019 62.0147 10.2197 60.2918L8.67969 54.7354V20.1518C8.67969 18.6718 9.09969 17.2863 9.8306 16.1191L22.7506 12.5391H74.5034L82.2088 40.2918C82.4465 41.1462 82.5134 42.0391 82.4058 42.9194C82.2982 43.7998 82.0182 44.6502 81.5817 45.4223C81.1452 46.1943 80.5608 46.8727 79.8619 47.4187C79.1631 47.9648 78.3635 48.3677 77.5088 48.6045H77.5106Z" fill="#D5D5D5"/>
<path d="M81.4161 45.71C81.1215 46.1609 80.7797 46.5809 80.3888 46.97C79.6106 47.7336 78.647 48.2936 77.5252 48.6045H77.5106L18.5324 64.9773C17.8345 65.1767 17.1077 65.2554 16.3833 65.21C14.6561 65.4573 11.1088 63.5791 10.2197 60.2918L8.67969 54.7354V20.1518C8.67969 18.6718 9.09969 17.2863 9.8306 16.1191L22.7506 12.5391H74.5033L82.2088 40.2918C82.4622 41.2003 82.5224 42.1519 82.3856 43.0851C82.2487 44.0183 81.9196 44.9125 81.4161 45.71Z" fill="#D5D5D5"/>
<path d="M72.601 5.70809L82.2065 40.3008C82.6876 42.0237 82.4647 43.8672 81.5867 45.4258C80.7087 46.9844 79.2475 48.1304 77.5247 48.6117L18.5392 64.9917C17.6844 65.229 16.7912 65.2957 15.9107 65.1878C15.0301 65.08 14.1795 64.7998 13.4072 64.3632C11.8476 63.4814 10.7021 62.0162 10.2228 60.2899C9.7435 58.5636 9.96959 56.7176 10.8514 55.1579C11.7331 53.5983 13.1983 52.4529 14.9246 51.9735L32.0992 47.2044C43.7174 43.979 51.5265 33.7935 52.2519 22.4099C52.4612 19.4832 52.1834 16.5421 51.4301 13.7063C51.4022 13.5398 51.364 13.3752 51.3156 13.2135L51.3101 13.1935C51.0199 12.1453 50.9391 11.0502 51.0723 9.97079C51.2056 8.89136 51.5503 7.84877 52.0868 6.90265C52.6233 5.95653 53.341 5.12542 54.1988 4.45685C55.0567 3.78828 56.038 3.29536 57.0865 3.00627L64.3047 1.00082C66.029 0.525019 67.8718 0.753644 69.4276 1.63641C70.9835 2.51917 72.125 3.98378 72.601 5.70809Z" fill="#D5D5D5"/>
<path d="M81.409 45.71C81.1144 46.1609 80.7726 46.5809 80.3817 46.97C79.6035 47.7336 78.6399 48.2936 77.5181 48.6045H77.5035L18.5253 64.9936C17.8281 65.1961 17.0999 65.2701 16.3762 65.2118C14.6489 65.4591 11.1016 63.5809 10.2126 60.2936C9.73625 58.566 9.96351 56.72 10.8446 55.1595C11.7257 53.5989 13.189 52.4509 14.9144 51.9664L32.0962 47.2027C43.7089 43.9809 51.5235 33.7845 52.238 22.4082C52.4535 19.4833 52.18 16.5431 51.4289 13.7082C51.398 13.5354 51.3526 13.3809 51.3053 13.21V13.1936C51.2435 12.9754 51.1962 12.7572 51.1489 12.5391H74.4962L82.2017 40.2918C82.4551 41.2003 82.5153 42.1519 82.3785 43.0851C82.2416 44.0183 81.9126 44.9125 81.409 45.71Z" fill="#B9B9B9"/>
<path d="M70.4325 33.8695L63.6725 35.7477C63.459 35.8071 63.2358 35.8239 63.0157 35.797C62.7957 35.7701 62.5831 35.7002 62.3901 35.5911C62.1971 35.482 62.0274 35.336 61.8909 35.1613C61.7544 34.9866 61.6536 34.7868 61.5944 34.5732L59.718 27.8132C59.6586 27.5996 59.6418 27.3764 59.6687 27.1563C59.6956 26.9363 59.7655 26.7237 59.8746 26.5307C59.9837 26.3377 60.1297 26.1681 60.3044 26.0315C60.4791 25.895 60.6789 25.7942 60.8925 25.735L67.6525 23.8586C67.8661 23.7992 68.0893 23.7824 68.3094 23.8093C68.5294 23.8362 68.742 23.9062 68.935 24.0152C69.128 24.1243 69.2976 24.2704 69.4342 24.445C69.5707 24.6197 69.6715 24.8195 69.7307 25.0332L71.6071 31.7932C71.7266 32.2243 71.6699 32.6852 71.4497 33.0745C71.2294 33.4639 70.8636 33.7498 70.4325 33.8695Z" fill="#D5D5D5"/>
<path d="M67.6548 23.8586C66.5348 24.1677 65.8784 25.3295 66.1893 26.4495L66.2784 26.7659C66.6514 28.1103 66.4751 29.5478 65.7884 30.7623C65.1018 31.9767 63.9608 32.8688 62.6166 33.2423L61.3275 33.6004L61.5966 34.5732C61.6559 34.7868 61.7566 34.9867 61.8932 35.1613C62.0297 35.336 62.1993 35.482 62.3923 35.5911C62.5853 35.7002 62.7979 35.7702 63.0179 35.797C63.238 35.8239 63.4612 35.8071 63.6748 35.7477L70.4348 33.8695C70.8658 33.7498 71.2317 33.4639 71.4519 33.0745C71.6722 32.6852 71.7288 32.2243 71.6093 31.7932L69.733 25.0332C69.6737 24.8195 69.5729 24.6197 69.4364 24.445C69.2999 24.2704 69.1303 24.1243 68.9373 24.0152C68.7443 23.9062 68.5317 23.8362 68.3116 23.8093C68.0915 23.7824 67.8684 23.7992 67.6548 23.8586ZM32.2566 38.5059L14.4566 43.4495C14.0932 43.5536 13.7129 43.5847 13.3374 43.541C12.962 43.4973 12.5989 43.3797 12.2691 43.1951C11.9393 43.0104 11.6494 42.7622 11.416 42.465C11.1826 42.1677 11.0103 41.8271 10.9091 41.4629C10.808 41.0987 10.7799 40.7181 10.8266 40.343C10.8732 39.968 10.9937 39.6058 11.181 39.2775C11.3683 38.9492 11.6187 38.6612 11.9179 38.4302C12.217 38.1992 12.5589 38.0296 12.9239 37.9314L30.7239 32.9859C31.4534 32.7895 32.2311 32.8894 32.8873 33.2637C33.5436 33.6381 34.0253 34.2567 34.2275 34.9847C34.4297 35.7127 34.336 36.4911 33.9668 37.1503C33.5977 37.8095 32.983 38.2979 32.2566 38.5059ZM28.2366 56.095L20.2548 58.3114C19.7839 58.442 19.2804 58.3804 18.8549 58.1401C18.4295 57.8997 18.1168 57.5003 17.9857 57.0295L17.973 56.9805C17.7002 55.9986 18.2748 54.9841 19.2548 54.7114L27.2366 52.4968C28.2166 52.2241 29.2311 52.7986 29.5039 53.7786L29.5184 53.8259C29.7911 54.8077 29.2166 55.8223 28.2366 56.095ZM43.1548 51.9532L35.173 54.1677C34.7023 54.2979 34.1993 54.236 33.7743 53.9957C33.3492 53.7554 33.0368 53.3563 32.9057 52.8859L32.893 52.8386C32.6202 51.8568 33.1948 50.8423 34.1748 50.5695L42.1566 48.3532C43.1366 48.0805 44.1511 48.655 44.4239 49.6368L44.4366 49.6841C44.7093 50.6659 44.1348 51.6805 43.1548 51.9532ZM58.073 47.8095L50.0948 50.0259C49.6237 50.1565 49.1199 50.0947 48.6944 49.854C48.2689 49.6132 47.9564 49.2134 47.8257 48.7423L47.813 48.695C47.5402 47.7132 48.1148 46.6986 49.0948 46.4259L57.0748 44.2095C58.0566 43.9368 59.0711 44.5132 59.3439 45.4932L59.3566 45.5404C59.6293 46.5223 59.053 47.5368 58.073 47.8095ZM72.9948 43.6659L65.013 45.8841C64.5421 46.0142 64.0388 45.952 63.6137 45.7114C63.1886 45.4707 62.8764 45.0711 62.7457 44.6004L62.7311 44.5514C62.4584 43.5714 63.033 42.555 64.0148 42.2841L71.9948 40.0659C72.9766 39.795 73.9911 40.3695 74.2639 41.3495L74.2766 41.3968C74.5493 42.3786 73.9748 43.395 72.9948 43.6659Z" fill="#D5D5D5"/>
<path d="M80.8879 65.0833H19.6751C17.8863 65.0828 16.1708 64.372 14.9059 63.1071C13.641 61.8422 12.9302 60.1267 12.9297 58.3378V22.4288C12.9294 21.5427 13.1037 20.6653 13.4426 19.8466C13.7815 19.0279 14.2783 18.2839 14.9046 17.6572C15.531 17.0305 16.2747 16.5333 17.0932 16.194C17.9117 15.8547 18.7891 15.6799 19.6751 15.6797H80.8879C81.7742 15.6794 82.652 15.8539 83.4709 16.1929C84.2898 16.532 85.034 17.0292 85.6607 17.6559C86.2875 18.2827 86.7846 19.0268 87.1237 19.8457C87.4628 20.6647 87.6372 21.5424 87.6369 22.4288V58.3378C87.6367 59.2239 87.4619 60.1012 87.1226 60.9198C86.7833 61.7383 86.2861 62.482 85.6594 63.1083C85.0327 63.7347 84.2888 64.2315 83.4701 64.5704C82.6514 64.9092 81.7739 65.0835 80.8879 65.0833Z" fill="#A1A3A5"/>
<path d="M87.631 22.4361V58.3379C87.6334 60.1266 86.9253 61.843 85.6623 63.1097C84.3994 64.3763 82.6851 65.0895 80.8964 65.0924H19.6782C18.7907 65.0942 17.9115 64.9203 17.0915 64.5808C16.2714 64.2413 15.5266 63.7429 14.9001 63.1143C14.2717 62.4879 13.7733 61.7434 13.4338 60.9237C13.0943 60.1039 12.9203 59.2251 12.9219 58.3379C12.9238 56.5469 13.636 54.8298 14.9023 53.5632C16.1685 52.2966 17.8854 51.5839 19.6764 51.5815H37.5019C49.5601 51.5815 59.8091 43.8597 63.5564 33.0833C64.5237 30.3906 65.0491 27.487 65.091 24.4761C65.1128 24.3088 65.1128 24.1397 65.1128 23.9724V23.9506C65.1135 22.863 65.3286 21.7861 65.7457 20.7817C66.1629 19.7772 66.7739 18.8649 67.5439 18.0967C68.3139 17.3286 69.2278 16.7197 70.2333 16.305C71.2387 15.8903 72.3161 15.6778 73.4037 15.6797H80.8946C81.7806 15.6809 82.6576 15.8566 83.4757 16.1968C84.2937 16.537 85.0368 17.0351 85.6623 17.6625C86.2879 18.2899 86.7837 19.0344 87.1215 19.8534C87.4593 20.6725 87.6324 21.5501 87.631 22.4361Z" fill="#9C9C9C"/>
<path d="M12.9297 24.4844H87.6388V33.0771H12.9297V24.4844Z" fill="#7C7D84"/>
<path d="M87.631 24.4766V33.0838H63.5547C64.5238 30.3911 65.0492 27.4875 65.091 24.4766H87.631Z" fill="#676970"/>
<path d="M39.9848 43.2429H21.5121C20.7526 43.2429 20.0242 42.9412 19.4872 42.4042C18.9501 41.8671 18.6484 41.1387 18.6484 40.3793C18.6484 39.6198 18.9501 38.8914 19.4872 38.3544C20.0242 37.8173 20.7526 37.5156 21.5121 37.5156H39.9848C40.7443 37.5156 41.4727 37.8173 42.0097 38.3544C42.5467 38.8914 42.8484 39.6198 42.8484 40.3793C42.8484 41.1387 42.5467 41.8671 42.0097 42.4042C41.4727 42.9412 40.7443 43.2429 39.9848 43.2429ZM31.403 59.1156H23.123C22.1048 59.1156 21.2793 58.2902 21.2793 57.272V57.2229C21.2793 56.2047 22.1048 55.3811 23.123 55.3811H31.4048C32.423 55.3811 33.2466 56.2047 33.2466 57.2229V57.272C33.2466 58.2902 32.4212 59.1156 31.403 59.1156ZM46.8884 59.1156H38.6066C37.5884 59.1156 36.763 58.2902 36.763 57.272V57.2229C36.763 56.2047 37.5884 55.3811 38.6066 55.3811H46.8884C47.9066 55.3811 48.7321 56.2047 48.7321 57.2229V57.272C48.7321 58.2902 47.9066 59.1156 46.8884 59.1156ZM62.3721 59.1156H54.0902C53.0721 59.1156 52.2484 58.2902 52.2484 57.272V57.2229C52.2484 56.2047 53.0721 55.3811 54.0902 55.3811H62.3721C63.3902 55.3811 64.2157 56.2047 64.2157 57.2229V57.272C64.2157 58.2902 63.3902 59.1156 62.3721 59.1156ZM77.8575 59.1156H69.5757C68.5575 59.1156 67.7321 58.2902 67.7321 57.272V57.2229C67.7321 56.2047 68.5575 55.3811 69.5757 55.3811H77.8575C78.8757 55.3811 79.6993 56.2047 79.6993 57.2229V57.272C79.6993 58.2902 78.8757 59.1156 77.8575 59.1156Z" fill="#7C7D7E"/>
<path d="M67.0297 38.8672L73.4188 45.2581L67.0297 51.6454L60.6406 45.2581L67.0297 38.8672Z" fill="#D5D5D5"/>
<path d="M67.4408 42.3095V42.3641C67.4408 44.3822 65.8044 46.0186 63.7862 46.0186C63.589 46.0181 63.3961 46.0762 63.232 46.1856C63.068 46.2949 62.9401 46.4506 62.8647 46.6328C62.7893 46.815 62.7697 47.0155 62.8085 47.2088C62.8473 47.4022 62.9427 47.5796 63.0826 47.7186L67.0317 51.6659L73.4208 45.2768L69.5698 41.4259C69.3953 41.2521 69.1733 41.1339 68.9317 41.0862C68.6901 41.0384 68.4397 41.0633 68.2122 41.1576C67.9847 41.2519 67.7902 41.4114 67.6533 41.6161C67.5163 41.8208 67.443 42.0614 67.4426 42.3077L67.4408 42.3095Z" fill="#D5D5D5"/>
<path d="M75.0748 38.8672L81.4639 45.2563L75.0748 51.6435L68.6875 45.2563L75.0748 38.8672Z" fill="#A9A9A9"/>
<path d="M77.292 42.3818C77.292 44.7473 75.3756 46.6636 73.012 46.6636C72.7718 46.6635 72.537 46.7346 72.3372 46.868C72.1374 47.0013 71.9817 47.1909 71.8896 47.4127C71.7976 47.6346 71.7734 47.8787 71.8201 48.1143C71.8668 48.3499 71.9823 48.5664 72.152 48.7364L75.0811 51.6654L81.4702 45.2764L78.2011 42.0073C78.1266 41.9329 78.0317 41.8823 77.9285 41.8618C77.8252 41.8413 77.7182 41.8518 77.6209 41.8921C77.5237 41.9323 77.4405 42.0005 77.382 42.088C77.3234 42.1755 77.2921 42.2765 77.292 42.3818Z" fill="#CCCACA"/>
</svg>
