<svg width="28" height="28" viewBox="0 0 28 28" fill="none" xmlns="http://www.w3.org/2000/svg">
<g clip-path="url(#clip0_24_23712)">
<path d="M24.7339 25.199H3.26719C3.00947 25.199 2.80052 24.99 2.80052 24.7323C2.80052 24.6085 2.75135 24.4898 2.66384 24.4023C2.57632 24.3148 2.45762 24.2656 2.33385 24.2656C2.21009 24.2656 2.09139 24.3148 2.00387 24.4023C1.91635 24.4898 1.86719 24.6085 1.86719 24.7323C1.86719 25.5054 2.49404 26.1323 3.26719 26.1323H24.7339C25.507 26.1323 26.1339 25.5054 26.1339 24.7323C26.1339 24.6085 26.0847 24.4898 25.9972 24.4023C25.9097 24.3148 25.791 24.2656 25.6672 24.2656C25.5434 24.2656 25.4247 24.3148 25.3372 24.4023C25.2497 24.4898 25.2005 24.6085 25.2005 24.7323C25.2005 24.8561 25.1514 24.9748 25.0638 25.0623C24.9763 25.1498 24.8576 25.199 24.7339 25.199Z" fill="#141414"/>
<path d="M27.5333 22.4H25.6667V21C25.6667 20.8762 25.6175 20.7575 25.53 20.67C25.4425 20.5825 25.3238 20.5333 25.2 20.5333H18.9672C19.8298 19.8397 20.3833 18.8333 20.5071 17.7333H21C22.2886 17.7333 23.3333 16.6886 23.3333 15.4C23.3333 14.1114 22.2886 13.0667 21 13.0667H20.5333V12.6C20.5333 12.4762 20.4842 12.3575 20.3967 12.27C20.3091 12.1825 20.1904 12.1333 20.0667 12.1333H12.6C12.4762 12.1333 12.3575 12.1825 12.27 12.27C12.1825 12.3575 12.1333 12.4762 12.1333 12.6V17.2667C12.1335 17.8936 12.2743 18.5126 12.5453 19.0779C12.8163 19.6433 13.2107 20.1406 13.6995 20.5333H11.2V6.53333H12.6V7C12.6016 8.28812 13.6452 9.33176 14.9333 9.33333V10.7333C14.9333 10.8571 14.9825 10.9758 15.07 11.0633C15.1575 11.1508 15.2762 11.2 15.4 11.2H17.2667C17.3904 11.2 17.5091 11.1508 17.5967 11.0633C17.6842 10.9758 17.7333 10.8571 17.7333 10.7333V9.33333C18.2345 9.33238 18.7217 9.1686 19.1217 8.86667H22.4V9.33333C22.4 9.4571 22.4492 9.5758 22.5367 9.66332C22.6242 9.75083 22.7429 9.8 22.8667 9.8H26.6C27.3731 9.8 28 9.17315 28 8.4C28 7.62685 27.3731 7 26.6 7H22.8667C22.7429 7 22.6242 7.04917 22.5367 7.13668C22.4492 7.2242 22.4 7.3429 22.4 7.46667V7.93333H19.8689C19.9991 7.63937 20.0664 7.32148 20.0667 7V6.53333H23.3333C23.4571 6.53333 23.5758 6.48417 23.6633 6.39665C23.7508 6.30913 23.8 6.19043 23.8 6.06667V4.2C23.7975 1.88148 21.9185 0.00250833 19.6 0H0.466667C0.342899 0 0.2242 0.0491665 0.136684 0.136684C0.0491665 0.2242 0 0.342899 0 0.466667L0 24.7333C0.00204167 26.5366 1.46335 27.998 3.26667 28H24.7333C26.5366 27.998 27.998 26.5366 28 24.7333V22.8667C28 22.7429 27.9508 22.6242 27.8633 22.5367C27.7758 22.4492 27.6571 22.4 27.5333 22.4ZM23.3333 7.93333H26.6C26.7238 7.93333 26.8425 7.9825 26.93 8.07002C27.0175 8.15753 27.0667 8.27623 27.0667 8.4C27.0667 8.52377 27.0175 8.64247 26.93 8.72998C26.8425 8.8175 26.7238 8.86667 26.6 8.86667H23.3333V7.93333ZM21 14C21.7731 14 22.4 14.6269 22.4 15.4C22.4 16.1731 21.7731 16.8 21 16.8H20.5333V14H21ZM19.6 13.0667V14.3268L19.4664 14.2939C18.5949 14.0828 17.6833 14.1029 16.8219 14.3523L15.9002 14.6203C15.2516 14.8079 14.5675 14.8372 13.9052 14.7057L13.0653 14.5375V13.0667H19.6ZM13.0667 17.2667V15.49L13.72 15.6213C14.5296 15.7821 15.3659 15.7464 16.1588 15.5171L17.0805 15.2492C17.7852 15.0453 18.531 15.0293 19.2439 15.2027L19.5982 15.2886V17.2667C19.5982 19.0709 18.1355 20.5333 16.3315 20.5333C14.5273 20.5333 13.0649 19.0709 13.0649 17.2667H13.0667ZM24.7333 21.4667V22.4H11.2V21.4667H24.7333ZM16.8 10.2667H15.8667V9.33333H16.8V10.2667ZM19.1333 7C19.1333 7.77315 18.5065 8.4 17.7333 8.4H14.9333C14.1602 8.4 13.5333 7.77315 13.5333 7V6.53333H19.1333V7ZM0.933333 0.933333H19.6C21.4033 0.935375 22.8646 2.39668 22.8667 4.2V5.6H10.7333C10.6096 5.6 10.4909 5.64917 10.4033 5.73668C10.3158 5.8242 10.2667 5.9429 10.2667 6.06667V22.4H0.933333V0.933333ZM27.0667 24.7333C27.0651 26.0215 26.0215 27.0651 24.7333 27.0667H3.26667C1.97855 27.0651 0.934908 26.0215 0.933333 24.7333V23.3333H27.0667V24.7333Z" fill="#141414"/>
<path d="M6.99688 9.33203H4.19688C3.42373 9.33203 2.79688 9.95888 2.79688 10.732V19.132C2.79688 19.9052 3.42373 20.532 4.19688 20.532H6.99688C7.77003 20.532 8.39688 19.9052 8.39688 19.132V10.732C8.39688 9.95888 7.77003 9.33203 6.99688 9.33203ZM7.46354 19.132C7.46354 19.2558 7.41438 19.3745 7.32686 19.462C7.23934 19.5495 7.12064 19.5987 6.99688 19.5987H4.19688C4.07311 19.5987 3.95441 19.5495 3.86689 19.462C3.77938 19.3745 3.73021 19.2558 3.73021 19.132V10.732C3.73021 10.6083 3.77938 10.4896 3.86689 10.402C3.95441 10.3145 4.07311 10.2654 4.19688 10.2654H6.99688C7.12064 10.2654 7.23934 10.3145 7.32686 10.402C7.41438 10.4896 7.46354 10.6083 7.46354 10.732V19.132Z" fill="#141414"/>
<path d="M5.60052 11.2008C4.82737 11.2008 4.20052 11.8276 4.20052 12.6008C4.20052 13.3739 4.82737 14.0008 5.60052 14.0008C6.37367 14.0008 7.00052 13.3739 7.00052 12.6008C7.00052 11.8276 6.37367 11.2008 5.60052 11.2008ZM5.60052 13.0674C5.47675 13.0674 5.35806 13.0183 5.27054 12.9308C5.18302 12.8432 5.13385 12.7245 5.13385 12.6008C5.13385 12.477 5.18302 12.3583 5.27054 12.2708C5.35806 12.1833 5.47675 12.1341 5.60052 12.1341C5.72429 12.1341 5.84299 12.1833 5.9305 12.2708C6.01802 12.3583 6.06719 12.477 6.06719 12.6008C6.06719 12.7245 6.01802 12.8432 5.9305 12.9308C5.84299 13.0183 5.72429 13.0674 5.60052 13.0674ZM5.60052 15.4008C4.82737 15.4008 4.20052 16.0276 4.20052 16.8008C4.20052 17.5739 4.82737 18.2008 5.60052 18.2008C6.37367 18.2008 7.00052 17.5739 7.00052 16.8008C7.00052 16.0276 6.37367 15.4008 5.60052 15.4008ZM5.60052 17.2674C5.47675 17.2674 5.35806 17.2183 5.27054 17.1308C5.18302 17.0432 5.13385 16.9246 5.13385 16.8008C5.13385 16.677 5.18302 16.5583 5.27054 16.4708C5.35806 16.3833 5.47675 16.3341 5.60052 16.3341C5.72429 16.3341 5.84299 16.3833 5.9305 16.4708C6.01802 16.5583 6.06719 16.677 6.06719 16.8008C6.06719 16.9246 6.01802 17.0432 5.9305 17.1308C5.84299 17.2183 5.72429 17.2674 5.60052 17.2674ZM4.20052 3.73411H19.1339C19.2576 3.73411 19.3763 3.68495 19.4638 3.59743C19.5514 3.50991 19.6005 3.39122 19.6005 3.26745C19.6005 3.14368 19.5514 3.02498 19.4638 2.93746C19.3763 2.84995 19.2576 2.80078 19.1339 2.80078H4.20052C4.07675 2.80078 3.95806 2.84995 3.87054 2.93746C3.78302 3.02498 3.73385 3.14368 3.73385 3.26745C3.73385 3.39122 3.78302 3.50991 3.87054 3.59743C3.95806 3.68495 4.07675 3.73411 4.20052 3.73411ZM20.5339 3.73411H21.0005C21.1243 3.73411 21.243 3.68495 21.3305 3.59743C21.418 3.50991 21.4672 3.39122 21.4672 3.26745C21.4672 3.14368 21.418 3.02498 21.3305 2.93746C21.243 2.84995 21.1243 2.80078 21.0005 2.80078H20.5339C20.4101 2.80078 20.2914 2.84995 20.2039 2.93746C20.1164 3.02498 20.0672 3.14368 20.0672 3.26745C20.0672 3.39122 20.1164 3.50991 20.2039 3.59743C20.2914 3.68495 20.4101 3.73411 20.5339 3.73411ZM3.26719 3.26745C3.26719 3.14368 3.21802 3.02498 3.1305 2.93746C3.04299 2.84995 2.92429 2.80078 2.80052 2.80078H2.33385C2.21009 2.80078 2.09139 2.84995 2.00387 2.93746C1.91635 3.02498 1.86719 3.14368 1.86719 3.26745C1.86719 3.39122 1.91635 3.50991 2.00387 3.59743C2.09139 3.68495 2.21009 3.73411 2.33385 3.73411H2.80052C2.92429 3.73411 3.04299 3.68495 3.1305 3.59743C3.21802 3.50991 3.26719 3.39122 3.26719 3.26745Z" fill="#141414"/>
</g>
<defs>
<clipPath id="clip0_24_23712">
<rect width="28" height="28" fill="white"/>
</clipPath>
</defs>
</svg>
