<svg width="28" height="28" viewBox="0 0 28 28" fill="none" xmlns="http://www.w3.org/2000/svg">
<g clip-path="url(#clip0_24_23705)">
<path d="M8.21292 22.7101H4.49417C4.38754 22.7102 4.28456 22.6713 4.20456 22.6009C4.12456 22.5304 4.07306 22.4331 4.05973 22.3273L2.65973 11.22C2.64511 11.1047 2.67691 10.9883 2.74812 10.8964C2.81934 10.8045 2.92415 10.7447 3.03948 10.73C3.15482 10.7154 3.27124 10.7472 3.36313 10.8184C3.45502 10.8897 3.51486 10.9945 3.52948 11.1098L4.87961 21.8342H7.77542V11.9095C7.77542 11.7935 7.82151 11.6822 7.90356 11.6002C7.98561 11.5181 8.09689 11.472 8.21292 11.472C8.32895 11.472 8.44023 11.5181 8.52228 11.6002C8.60433 11.6822 8.65042 11.7935 8.65042 11.9095V22.2726C8.65042 22.3886 8.60433 22.4999 8.52228 22.582C8.44023 22.664 8.32895 22.7101 8.21292 22.7101Z" fill="#141414"/>
<path d="M6.12522 12.6501C4.77981 12.6482 3.48344 12.1447 2.4896 11.2378C1.83659 10.6427 1.31635 9.91659 0.962805 9.1069C0.609258 8.29721 0.430342 7.4221 0.437725 6.53861C0.430259 5.6552 0.60905 4.78013 0.962443 3.97045C1.31584 3.16077 1.8359 2.43465 2.48872 1.83943C3.05542 1.32097 3.72634 0.929581 4.45656 0.691455C5.18679 0.453328 5.95946 0.373963 6.72285 0.458676L19.6413 2.74986C19.7425 2.76784 19.8341 2.82082 19.9 2.89953C19.966 2.97824 20.0022 3.07765 20.0023 3.18036V9.89643C20.0022 9.99914 19.966 10.0986 19.9 10.1773C19.8341 10.256 19.7425 10.309 19.6413 10.3269L6.75085 12.6146C6.54315 12.6383 6.33427 12.6501 6.12522 12.6501ZM6.11297 1.29736C4.98634 1.30591 3.90286 1.73176 3.07191 2.49261C2.51104 3.00569 2.06452 3.63115 1.76142 4.32826C1.45832 5.02537 1.30543 5.7785 1.31272 6.53861C1.30519 7.29906 1.45799 8.05257 1.76118 8.75001C2.06437 9.44744 2.51113 10.0732 3.07235 10.5864C3.54723 11.0227 4.11008 11.3523 4.72301 11.5529C5.33595 11.7535 5.98474 11.8204 6.62572 11.7492L19.1273 9.53024V3.54699L6.59772 1.32405C6.43676 1.30624 6.27493 1.29733 6.11297 1.29736Z" fill="#141414"/>
<path d="M22.3312 11.5317C22.271 11.5319 22.2114 11.5197 22.1562 11.4958L19.3912 10.3032C19.3131 10.2691 19.2466 10.2129 19.2 10.1416C19.1533 10.0702 19.1286 9.98679 19.1287 9.90156V3.18156C19.1286 3.09632 19.1533 3.0129 19.2 2.94155C19.2466 2.8702 19.3131 2.81403 19.3912 2.77993L22.1579 1.58731C22.2246 1.55823 22.2974 1.54621 22.3698 1.55234C22.4423 1.55847 22.512 1.58256 22.5728 1.62242C22.6336 1.66228 22.6835 1.71667 22.718 1.78066C22.7525 1.84465 22.7705 1.91623 22.7704 1.98893V11.0942C22.7704 11.2102 22.7243 11.3215 22.6423 11.4035C22.5603 11.4856 22.449 11.5317 22.3329 11.5317H22.3312ZM20.0019 9.61368L21.8937 10.4292V2.65393L20.0019 3.46987V9.61368ZM5.66769 9.02218C5.17709 9.02209 4.69753 8.87654 4.28965 8.60391C3.88177 8.33128 3.56389 7.94383 3.3762 7.49055C3.18852 7.03726 3.13945 6.53851 3.23522 6.05734C3.33098 5.57618 3.56727 5.13421 3.91421 4.78733C4.26115 4.44046 4.70316 4.20424 5.18434 4.10856C5.66552 4.01288 6.16427 4.06203 6.61752 4.2498C7.07077 4.43756 7.45817 4.75551 7.73072 5.16344C8.00328 5.57137 8.14875 6.05095 8.14875 6.54156C8.14794 7.19929 7.88627 7.82984 7.42114 8.29488C6.95602 8.75993 6.32542 9.02149 5.66769 9.02218ZM5.66769 4.93593C5.35014 4.93602 5.03976 5.03026 4.77577 5.20674C4.51178 5.38322 4.30606 5.63402 4.1846 5.92741C4.06314 6.22081 4.0314 6.54363 4.09341 6.85507C4.15541 7.1665 4.30836 7.45255 4.53293 7.67706C4.7575 7.90157 5.0436 8.05444 5.35505 8.11636C5.66649 8.17828 5.98931 8.14646 6.28267 8.02492C6.57604 7.90338 6.82678 7.69758 7.00318 7.43355C7.17959 7.16951 7.27375 6.8591 7.27375 6.54156C7.27317 6.11582 7.10376 5.70769 6.80268 5.40669C6.5016 5.10569 6.09343 4.93639 5.66769 4.93593ZM9.001 15.7501H8.20956C8.09353 15.7501 7.98225 15.704 7.9002 15.6219C7.81816 15.5399 7.77206 15.4286 7.77206 15.3126V13.0599C7.77206 12.9438 7.81816 12.8326 7.9002 12.7505C7.98225 12.6685 8.09353 12.6224 8.20956 12.6224H9.001C9.27923 12.6232 9.54583 12.7341 9.74257 12.9308C9.93931 13.1275 10.0502 13.3941 10.051 13.6724V14.7001C10.0502 14.9783 9.93931 15.2449 9.74257 15.4416C9.54583 15.6384 9.27923 15.7492 9.001 15.7501ZM8.64706 14.8751H9.001C9.0472 14.8744 9.09132 14.8557 9.124 14.8231C9.15667 14.7904 9.17532 14.7463 9.176 14.7001V13.6741C9.17543 13.6279 9.15681 13.5837 9.12412 13.551C9.09142 13.5183 9.04724 13.4997 9.001 13.4991H8.64706V14.8751ZM6.01813 27.5626C5.93259 27.5627 5.8489 27.5377 5.7774 27.4908C5.7059 27.4438 5.64974 27.3769 5.61584 27.2984C5.58195 27.2199 5.57183 27.1331 5.58672 27.0489C5.60161 26.9647 5.64086 26.8866 5.69963 26.8245C5.84218 26.6348 5.92053 26.4045 5.92329 26.1673C5.92604 25.93 5.85306 25.698 5.71494 25.505C5.02238 24.2664 5.70006 22.3397 5.77969 22.124C5.81984 22.0151 5.9016 21.9266 6.00699 21.878C6.11238 21.8294 6.23276 21.8246 6.34166 21.8648C6.45055 21.9049 6.53904 21.9867 6.58765 22.0921C6.63627 22.1975 6.64102 22.3178 6.60088 22.4267C6.42588 22.908 6.05794 24.3246 6.47925 25.0776C6.70997 25.4327 6.82059 25.8525 6.79484 26.2752C6.76908 26.6979 6.60831 27.1011 6.33619 27.4256C6.29528 27.4689 6.24597 27.5033 6.19128 27.5269C6.13659 27.5504 6.07767 27.5626 6.01813 27.5626ZM24.7221 4.43281C24.1882 4.4022 23.6818 4.18548 23.2911 3.82031C23.2071 3.74132 23.1576 3.63236 23.1535 3.51712C23.1494 3.40189 23.191 3.28969 23.2692 3.20493C23.3474 3.12018 23.4558 3.06972 23.571 3.06452C23.6862 3.05932 23.7988 3.09981 23.8843 3.17718C23.8896 3.18243 24.5913 3.81112 25.0398 3.43968C26.0193 2.62987 27.2946 3.36881 27.348 3.40031C27.4483 3.45931 27.521 3.55572 27.5501 3.66833C27.5793 3.78094 27.5625 3.90052 27.5035 4.00077C27.4743 4.05041 27.4356 4.09381 27.3896 4.12849C27.3436 4.16318 27.2913 4.18846 27.2355 4.2029C27.1229 4.23207 27.0033 4.21531 26.9031 4.15631C26.8913 4.14931 26.0998 3.70043 25.598 4.11606C25.3533 4.32293 25.0426 4.4353 24.7221 4.43281ZM24.7221 7.00924C24.1882 6.97849 23.6819 6.76179 23.2911 6.39674C23.2057 6.31807 23.1551 6.20872 23.1504 6.09275C23.1457 5.97678 23.1872 5.86368 23.2659 5.77834C23.3446 5.693 23.4539 5.6424 23.5699 5.63768C23.6859 5.63297 23.799 5.67451 23.8843 5.75318C23.8896 5.75887 24.5913 6.38756 25.0398 6.01568C26.0193 5.20587 27.2946 5.94481 27.348 5.97631C27.3975 6.00552 27.4408 6.0442 27.4753 6.09013C27.5098 6.13606 27.535 6.18835 27.5494 6.24401C27.5637 6.29967 27.5669 6.3576 27.5589 6.41451C27.5508 6.47142 27.5317 6.52619 27.5024 6.57568C27.4732 6.62518 27.4345 6.66843 27.3886 6.70298C27.3427 6.73753 27.2904 6.76269 27.2347 6.77703C27.1791 6.79138 27.1211 6.79461 27.0642 6.78656C27.0073 6.77851 26.9526 6.75933 26.9031 6.73012C26.8913 6.72268 26.0998 6.27424 25.598 6.68987C25.3536 6.89756 25.0429 7.01085 24.7221 7.00924ZM24.7221 9.58612C24.1882 9.55536 23.6819 9.33866 23.2911 8.97362C23.2057 8.89495 23.1551 8.7856 23.1504 8.66963C23.1457 8.55365 23.1872 8.44055 23.2659 8.35521C23.3446 8.26987 23.4539 8.21928 23.5699 8.21456C23.6859 8.20984 23.799 8.25139 23.8843 8.33006C23.8896 8.33574 24.5913 8.96399 25.0398 8.59256C26.0202 7.78012 27.2942 8.52124 27.3484 8.55318C27.4483 8.6123 27.5206 8.70866 27.5494 8.82107C27.5782 8.93347 27.5611 9.05271 27.502 9.15256C27.4429 9.2524 27.3465 9.32467 27.2341 9.35347C27.1217 9.38227 27.0025 9.36524 26.9026 9.30612C26.8812 9.29343 26.0963 8.85199 25.598 9.26674C25.3536 9.4745 25.0429 9.58781 24.7221 9.58612Z" fill="#141414"/>
</g>
<defs>
<clipPath id="clip0_24_23705">
<rect width="28" height="28" fill="white"/>
</clipPath>
</defs>
</svg>
