<svg width="28" height="28" viewBox="0 0 28 28" fill="none" xmlns="http://www.w3.org/2000/svg">
<path d="M22.4869 12.1703V5.39731C22.4862 5.08753 22.4244 4.78094 22.305 4.49506C22.1857 4.20918 22.0112 3.94962 21.7915 3.73122C21.5718 3.51282 21.3112 3.33987 21.0247 3.22225C20.7381 3.10463 20.4311 3.04466 20.1213 3.04575C20.0711 3.04572 20.0213 3.0556 19.9748 3.07483C19.9284 3.09406 19.8861 3.12226 19.8506 3.15781C19.815 3.19336 19.7868 3.23557 19.7676 3.28203C19.7484 3.32849 19.7385 3.37828 19.7385 3.42856V6.23031H18.776V4.30356C18.7757 3.96423 18.6408 3.6389 18.4009 3.39892C18.161 3.15893 17.8357 3.0239 17.4963 3.02344H5.702C5.3626 3.02378 5.03719 3.15877 4.7972 3.39876C4.5572 3.63876 4.42222 3.96416 4.42188 4.30356V23.6772C4.42228 24.0165 4.55729 24.3419 4.79728 24.5818C5.03726 24.8218 5.36263 24.9567 5.702 24.9571H17.4963C17.8357 24.9567 18.161 24.8217 18.4009 24.5817C18.6409 24.3418 18.7758 24.0165 18.7762 23.6772V22.2207H19.7387V24.2437C19.7387 24.294 19.7486 24.3438 19.7678 24.3902C19.7871 24.4367 19.8153 24.4789 19.8508 24.5145C19.8864 24.55 19.9286 24.5782 19.975 24.5975C20.0215 24.6167 20.0713 24.6266 20.1216 24.6265H20.136C20.7595 24.6258 21.3572 24.3779 21.798 23.937C22.2389 23.4962 22.4869 22.8984 22.4876 22.275V15.5018C22.7769 15.4952 23.0522 15.3759 23.2547 15.1692C23.4572 14.9624 23.5709 14.6848 23.5715 14.3954V13.2771C23.5709 12.9876 23.4571 12.7098 23.2545 12.503C23.0518 12.2962 22.7764 12.1768 22.4869 12.1703ZM19.7381 6.99594V7.55266H18.7756V6.99594H19.7381ZM19.7381 8.31828V20.1327H18.7756V8.31828H19.7381ZM18.01 23.6772C18.0099 23.8134 17.9557 23.944 17.8594 24.0404C17.7632 24.1369 17.6326 24.1911 17.4963 24.1914H5.702C5.56562 24.1913 5.43485 24.1371 5.3384 24.0407C5.24194 23.9443 5.18767 23.8135 5.1875 23.6772V4.30356C5.18767 4.16716 5.24194 4.0364 5.33839 3.93995C5.43483 3.8435 5.5656 3.78924 5.702 3.78906H17.4963C17.6327 3.78924 17.7635 3.84351 17.8599 3.93996C17.9563 4.03642 18.0105 4.16718 18.0106 4.30356L18.01 23.6772ZM18.7756 21.4551V20.8984H19.7381V21.4551H18.7756ZM21.7204 22.275C21.7199 22.6314 21.5996 22.9774 21.3788 23.2572C21.1579 23.537 20.8494 23.7345 20.5028 23.8178V3.85447C20.8494 3.93779 21.1579 4.13524 21.3788 4.41507C21.5996 4.69489 21.7199 5.04085 21.7204 5.39731V22.275ZM22.8052 14.3952C22.8049 14.4816 22.7719 14.5648 22.7129 14.628C22.6539 14.6912 22.5731 14.7297 22.4869 14.736V12.9357C22.5732 12.9419 22.6539 12.9806 22.713 13.0439C22.772 13.1071 22.8049 13.1904 22.8052 13.2769V14.3952Z" fill="#141414"/>
<path d="M16.4606 4.17969H6.74156C6.48698 4.17992 6.24289 4.28114 6.06285 4.46113C5.88281 4.64113 5.78154 4.8852 5.78125 5.13978V22.852C5.78154 23.1066 5.88281 23.3507 6.06284 23.5307C6.24287 23.7107 6.48696 23.812 6.74156 23.8123H16.4606C16.7152 23.812 16.9593 23.7107 17.1393 23.5307C17.3193 23.3506 17.4205 23.1066 17.4207 22.852V5.13891C17.4203 4.8845 17.3189 4.64065 17.1389 4.46084C16.959 4.28103 16.715 4.17992 16.4606 4.17969ZM6.74156 4.94531H16.4606C16.5122 4.94537 16.5616 4.96588 16.5981 5.00233C16.6345 5.03879 16.655 5.08822 16.6551 5.13978V9.85122H13.2785C13.7313 9.3837 13.9846 8.75842 13.9848 8.10756V7.27434C13.9848 7.22406 13.975 7.17427 13.9557 7.12781C13.9365 7.08136 13.9083 7.03914 13.8728 7.00359C13.8372 6.96804 13.795 6.93984 13.7485 6.92061C13.7021 6.90138 13.6523 6.8915 13.602 6.89153H9.34228C9.292 6.8915 9.24221 6.90138 9.19575 6.92061C9.14929 6.93984 9.10708 6.96804 9.07153 7.00359C9.03597 7.03914 9.00778 7.08136 8.98855 7.12781C8.96932 7.17427 8.95944 7.22406 8.95947 7.27434V8.10756C8.96074 8.75894 9.21539 9.38426 9.66953 9.85122H6.54688V5.13891C6.54722 5.08748 6.56788 5.03827 6.60435 5.00201C6.64081 4.96575 6.69013 4.94537 6.74156 4.94531ZM14.5164 12.1022H13.5718V11.8696H14.5164V12.1022ZM13.5521 14.4264C13.6204 14.3968 13.6786 14.3479 13.7195 14.2857C13.7604 14.2236 13.7823 14.1508 13.7825 14.0764V12.8678H14.3057V14.0755C14.3057 14.1508 14.328 14.2244 14.3696 14.2872C14.4113 14.3499 14.4706 14.3989 14.54 14.4281C14.6102 14.458 14.6764 14.4967 14.7369 14.5432C14.804 14.5884 14.8601 14.6483 14.9006 14.7183C14.9412 14.7883 14.9653 14.8667 14.9712 14.9474V16.8814H13.1164V14.9474C13.1315 14.828 13.1806 14.7154 13.2579 14.623C13.3351 14.5307 13.4372 14.4624 13.5521 14.4264ZM15.2013 13.9337C15.1596 13.9017 15.1164 13.8717 15.0718 13.8438V12.7766C15.1367 12.7309 15.1898 12.6703 15.2264 12.5999C15.2631 12.5295 15.2823 12.4513 15.2824 12.3719V11.6006C15.2823 11.4689 15.23 11.3427 15.1369 11.2496C15.0438 11.1565 14.9175 11.1041 14.7859 11.104H13.3027C13.1711 11.1041 13.0449 11.1565 12.9518 11.2496C12.8587 11.3427 12.8063 11.4689 12.8062 11.6006V12.3712C12.8063 12.4506 12.8255 12.5288 12.8622 12.5992C12.8988 12.6697 12.9519 12.7303 13.0168 12.7759V13.8447C12.8205 13.9559 12.6561 14.1157 12.5394 14.3089C12.4228 14.502 12.3578 14.7219 12.3508 14.9474V16.8814H10.7992C11.0789 16.5332 11.2312 16.0998 11.231 15.6531C11.2088 15.111 10.9779 14.5984 10.5865 14.2227C10.1951 13.847 9.67354 13.6371 9.13097 13.6371C8.5884 13.6371 8.06684 13.847 7.67544 14.2227C7.28403 14.5984 7.05311 15.111 7.03097 15.6531C7.03134 16.1 7.18438 16.5334 7.46475 16.8814H6.546V10.6168H16.6551V16.8814H15.7363V14.9474C15.7321 14.7485 15.6816 14.5533 15.5887 14.3773C15.4958 14.2013 15.3632 14.0495 15.2013 13.9337ZM8.89078 16.8814C8.5923 16.8399 8.31834 16.6935 8.11793 16.4685C7.91753 16.2434 7.80377 15.9544 7.79703 15.6531C7.81916 15.3143 7.96938 14.9966 8.21719 14.7644C8.465 14.5322 8.79184 14.4031 9.13141 14.4031C9.47097 14.4031 9.79782 14.5322 10.0456 14.7644C10.2934 14.9966 10.4436 15.3143 10.4658 15.6531C10.4596 15.9569 10.3441 16.2483 10.1406 16.4739C9.937 16.6995 9.65895 16.8442 9.35737 16.8814H8.89078ZM9.72509 8.10756V7.65781H13.2192V8.10822C13.2187 8.55054 13.0507 8.97627 12.7491 9.29977C12.4474 9.62326 12.0344 9.82052 11.5932 9.85187H11.3406V9.85078C10.9016 9.81622 10.4916 9.61771 10.1923 9.29472C9.89301 8.97173 9.72621 8.54792 9.72509 8.10756ZM16.4606 23.0458H6.74156C6.68996 23.0457 6.64051 23.0251 6.60403 22.9886C6.56754 22.9521 6.54699 22.9027 6.54688 22.8511V17.647H16.6551V22.8511C16.655 22.9027 16.6345 22.9521 16.5981 22.9886C16.5616 23.0251 16.5122 23.0457 16.4606 23.0458Z" fill="#141414"/>
</svg>
