<svg width="24" height="24" viewBox="0 0 24 24" fill="none" xmlns="http://www.w3.org/2000/svg">
<path d="M12.0011 1.02344C8.97574 1.02344 6.5154 3.48515 6.5154 6.50915V9.94047H5.82969C4.50626 9.94047 3.42969 11.017 3.42969 12.3405V20.569C3.42969 21.8925 4.50626 22.969 5.82969 22.969H18.1725C19.496 22.969 20.5725 21.8925 20.5725 20.569V12.3405C20.5725 11.017 19.496 9.94047 18.1725 9.94047H17.4868V6.50915C17.4868 3.48515 15.0251 1.02344 12.0011 1.02344ZM8.57254 6.50915C8.57254 4.61932 10.1106 3.08058 12.0011 3.08058C13.8916 3.08058 15.4297 4.61932 15.4297 6.50915V9.94047H8.57254V6.50915ZM8.22969 17.4902C7.66054 17.4902 7.20112 17.0308 7.20112 16.4616C7.20112 15.8925 7.66054 15.433 8.22969 15.433C8.79883 15.433 9.25826 15.8925 9.25826 16.4616C9.25826 17.0308 8.79883 17.4902 8.22969 17.4902ZM12.0011 17.4902C11.432 17.4902 10.9725 17.0308 10.9725 16.4616C10.9725 15.8925 11.432 15.433 12.0011 15.433C12.5703 15.433 13.0297 15.8925 13.0297 16.4616C13.0297 17.0308 12.5703 17.4902 12.0011 17.4902ZM15.7725 17.4902C15.2034 17.4902 14.744 17.0308 14.744 16.4616C14.744 15.8925 15.2034 15.433 15.7725 15.433C16.3417 15.433 16.8011 15.8925 16.8011 16.4616C16.8011 17.0308 16.3417 17.4902 15.7725 17.4902Z" fill="#034177"/>
</svg>
