<svg width="24" height="24" viewBox="0 0 24 24" fill="none" xmlns="http://www.w3.org/2000/svg">
<path d="M12.0057 2.17969C10.0638 2.17969 8.16559 2.75551 6.551 3.83435C4.9364 4.91318 3.67798 6.44658 2.93487 8.24061C2.19175 10.0347 1.99732 12.0088 2.37616 13.9133C2.75499 15.8178 3.69009 17.5673 5.06318 18.9404C6.43628 20.3135 8.18571 21.2486 10.0903 21.6274C11.9948 22.0062 13.9689 21.8118 15.7629 21.0687C17.557 20.3256 19.0904 19.0671 20.1692 17.4526C21.248 15.838 21.8239 13.9397 21.8239 11.9979C21.8207 9.39488 20.7853 6.8994 18.9447 5.05881C17.1042 3.21822 14.6087 2.18281 12.0057 2.17969ZM11.3511 6.76151C11.3511 6.58791 11.4201 6.42142 11.5429 6.29867C11.6656 6.17592 11.8321 6.10696 12.0057 6.10696C12.1793 6.10696 12.3458 6.17592 12.4685 6.29867C12.5913 6.42142 12.6602 6.58791 12.6602 6.76151V11.3433C12.6602 11.5169 12.5913 11.6834 12.4685 11.8062C12.3458 11.9289 12.1793 11.9979 12.0057 11.9979C11.8321 11.9979 11.6656 11.9289 11.5429 11.8062C11.4201 11.6834 11.3511 11.5169 11.3511 11.3433V6.76151ZM12.0057 17.8888C10.4441 17.8864 8.9471 17.2649 7.84286 16.1607C6.73863 15.0565 6.1172 13.5595 6.11478 11.9979C6.11191 11.1145 6.30953 10.242 6.69275 9.44609C7.07597 8.65018 7.6348 7.95159 8.32714 7.40296C8.39305 7.34074 8.47117 7.2929 8.55654 7.26244C8.6419 7.23199 8.73267 7.21961 8.82308 7.22606C8.91348 7.23252 9.00156 7.25769 9.08174 7.29996C9.16191 7.34224 9.23243 7.40071 9.28883 7.47166C9.34523 7.54261 9.38628 7.62451 9.40937 7.71215C9.43247 7.7998 9.43711 7.89128 9.42301 7.98081C9.4089 8.07035 9.37635 8.15598 9.32743 8.23227C9.2785 8.30857 9.21426 8.37388 9.13878 8.42405C8.39857 9.0178 7.86098 9.82672 7.60024 10.7391C7.33949 11.6515 7.36846 12.6223 7.68314 13.5175C7.99782 14.4128 8.58269 15.1882 9.35698 15.7367C10.1313 16.2853 11.0568 16.5799 12.0057 16.5799C12.9546 16.5799 13.8801 16.2853 14.6544 15.7367C15.4287 15.1882 16.0135 14.4128 16.3282 13.5175C16.6429 12.6223 16.6719 11.6515 16.4111 10.7391C16.1504 9.82672 15.6128 9.0178 14.8726 8.42405C14.7533 8.31149 14.6807 8.15827 14.669 7.9947C14.6573 7.83114 14.7075 7.66915 14.8095 7.54078C14.9115 7.41241 15.058 7.32702 15.22 7.3015C15.382 7.27597 15.5477 7.31218 15.6842 7.40296C16.3766 7.95159 16.9354 8.65018 17.3186 9.44609C17.7018 10.242 17.8995 11.1145 17.8966 11.9979C17.8942 13.5595 17.2727 15.0565 16.1685 16.1607C15.0643 17.2649 13.5673 17.8864 12.0057 17.8888Z" fill="#034177"/>
</svg>
