<svg width="41" height="26" viewBox="0 0 41 26" fill="none" xmlns="http://www.w3.org/2000/svg">
<path d="M28.6848 0.835938C35.4047 0.835938 40.8518 6.30333 40.8518 13.0469C40.8516 19.7903 35.4045 25.2568 28.6848 25.2568C25.672 25.2568 22.9173 24.1552 20.7922 22.335C18.6672 24.155 15.9124 25.2568 12.8997 25.2568C6.18014 25.2566 0.732836 19.7901 0.732666 13.0469C0.732666 6.30349 6.18004 0.8362 12.8997 0.835938C15.9121 0.835938 18.6673 1.93712 20.7922 3.75684C22.9172 1.93697 25.6723 0.835951 28.6848 0.835938Z" fill="#ED0006"/>
<path d="M28.6843 0.835938C35.4042 0.835938 40.8523 6.30333 40.8523 13.0469C40.8521 19.7903 35.4041 25.2568 28.6843 25.2568C25.6718 25.2568 22.9176 24.1549 20.7927 22.335C23.4073 20.0955 25.067 16.7668 25.0671 13.0469C25.0671 9.32649 23.4077 5.99641 20.7927 3.75684C22.9175 1.93723 25.6721 0.836018 28.6843 0.835938Z" fill="#F9A000"/>
<path d="M20.7915 3.75781C23.4068 5.99739 25.0669 9.3272 25.0669 13.0479C25.0668 16.7681 23.4064 20.0964 20.7915 22.3359C18.1771 20.0964 16.5172 16.7677 16.5171 13.0479C16.5171 9.32761 18.1767 5.99739 20.7915 3.75781Z" fill="#FF5E00"/>
</svg>
