<svg width="21" height="20" viewBox="0 0 21 20" fill="none" xmlns="http://www.w3.org/2000/svg">
<path d="M19.2511 10.1951C19.2511 9.47569 19.1915 8.95069 19.0626 8.40625H10.6797V11.6534H15.6003C15.5011 12.4604 14.9654 13.6757 13.7749 14.4923L13.7582 14.601L16.4087 16.6133L16.5924 16.6312C18.2788 15.1048 19.2511 12.859 19.2511 10.1951Z" fill="#4285F4"/>
<path d="M10.6793 18.7539C13.09 18.7539 15.1138 17.9761 16.592 16.6344L13.7745 14.4955C13.0206 15.0108 12.0086 15.3705 10.6793 15.3705C8.31822 15.3705 6.31427 13.8441 5.59992 11.7344L5.49522 11.7431L2.73917 13.8334L2.70312 13.9316C4.17136 16.7899 7.18723 18.7539 10.6793 18.7539Z" fill="#34A853"/>
<path d="M5.59916 11.7322C5.41068 11.1877 5.30159 10.6044 5.30159 10.0016C5.30159 9.39881 5.41068 8.8155 5.58925 8.27106L5.58425 8.15511L2.79366 6.03125L2.70236 6.07381C2.09723 7.25994 1.75 8.59191 1.75 10.0016C1.75 11.4113 2.09723 12.7432 2.70236 13.9294L5.59916 11.7322Z" fill="#FBBC05"/>
<path d="M10.6794 4.63331C12.3559 4.63331 13.4868 5.34303 14.1317 5.93612L16.6516 3.525C15.104 2.11528 13.09 1.25 10.6794 1.25C7.18725 1.25 4.17137 3.21387 2.70312 6.07218L5.59002 8.26944C6.3143 6.15972 8.31825 4.63331 10.6794 4.63331Z" fill="#EB4335"/>
</svg>
