<svg width="25" height="20" viewBox="0 0 25 20" fill="none" xmlns="http://www.w3.org/2000/svg">
<path d="M21.9375 0H2.4375C1.09362 0 0 0.961453 0 2.14291V13.5718C0 14.7532 1.09362 15.7147 2.4375 15.7147H4.875V19.2862C4.87526 19.4207 4.91865 19.5524 5.0002 19.6661C5.08174 19.7799 5.19813 19.8712 5.336 19.9294C5.47387 19.9877 5.62763 20.0106 5.77963 19.9955C5.93163 19.9804 6.0757 19.9279 6.19531 19.8441L12.0664 15.7147H21.9375C23.2814 15.7147 24.375 14.7532 24.375 13.5718V2.14291C24.375 0.961453 23.2814 0 21.9375 0ZM12.1875 10.0003H5.6875C5.47201 10.0003 5.26535 9.92499 5.11298 9.79104C4.9606 9.65708 4.875 9.47539 4.875 9.28595C4.875 9.0965 4.9606 8.91482 5.11298 8.78086C5.26535 8.6469 5.47201 8.57164 5.6875 8.57164H12.1875C12.403 8.57164 12.6097 8.6469 12.762 8.78086C12.9144 8.91482 13 9.0965 13 9.28595C13 9.47539 12.9144 9.65708 12.762 9.79104C12.6097 9.92499 12.403 10.0003 12.1875 10.0003ZM18.6875 7.14304H5.6875C5.47201 7.14304 5.26535 7.06778 5.11298 6.93382C4.9606 6.79986 4.875 6.61818 4.875 6.42873C4.875 6.23929 4.9606 6.0576 5.11298 5.92364C5.26535 5.78969 5.47201 5.71443 5.6875 5.71443H18.6875C18.903 5.71443 19.1097 5.78969 19.262 5.92364C19.4144 6.0576 19.5 6.23929 19.5 6.42873C19.5 6.61818 19.4144 6.79986 19.262 6.93382C19.1097 7.06778 18.903 7.14304 18.6875 7.14304Z" fill="#141414"/>
</svg>
