<svg width="21" height="24" viewBox="0 0 21 24" fill="none" xmlns="http://www.w3.org/2000/svg">
<path d="M10.2475 0.625C6.25006 0.625 2.91602 3.84507 2.91602 7.95647C2.91602 9.52061 3.38603 10.9154 4.28807 12.2223L9.68643 20.646C9.94832 21.0555 10.5472 21.0547 10.8085 20.646L16.2303 12.1937C17.1129 10.9459 17.579 9.48084 17.579 7.95647C17.579 3.9139 14.2901 0.625 10.2475 0.625ZM10.2475 11.289C8.41004 11.289 6.915 9.79392 6.915 7.95647C6.915 6.11903 8.41004 4.62398 10.2475 4.62398C12.0849 4.62398 13.58 6.11903 13.58 7.95647C13.58 9.79392 12.0849 11.289 10.2475 11.289Z" fill="#141414" fill-opacity="0.6"/>
<path d="M15.4579 15.9414L12.1018 21.1884C11.2331 22.5428 9.257 22.5384 8.39247 21.1897L5.03092 15.9428C2.07327 16.6266 0.25 17.8793 0.25 19.3763C0.25 21.974 5.40105 23.3753 10.2475 23.3753C15.0939 23.3753 20.2449 21.974 20.2449 19.3763C20.2449 17.8782 18.4191 16.6249 15.4579 15.9414Z" fill="#141414" fill-opacity="0.6"/>
</svg>
