<svg width="26" height="21" viewBox="0 0 26 21" fill="none" xmlns="http://www.w3.org/2000/svg">
<path d="M9.28606 10.0017C10.2045 10.0017 11.1023 9.72937 11.8659 9.2191C12.6295 8.70884 13.2247 7.98359 13.5761 7.13506C13.9275 6.28654 14.0195 5.35286 13.8402 4.4521C13.661 3.55133 13.2187 2.72395 12.5692 2.07459C11.9197 1.42523 11.0922 0.983046 10.1915 0.803969C9.29066 0.624893 8.357 0.716964 7.50853 1.06854C6.66007 1.42011 5.93492 2.0154 5.42479 2.77912C4.91466 3.54284 4.64246 4.44068 4.64263 5.3591C4.64392 6.59014 5.13357 7.77038 6.00413 8.64079C6.87469 9.51119 8.05502 10.0006 9.28606 10.0017ZM15.3603 13.8375C14.1837 12.6306 12.674 11.8019 11.024 11.4571C9.37412 11.1124 7.65888 11.2673 6.09742 11.9021C4.53597 12.5369 3.19918 13.6227 2.25782 15.0209C1.31646 16.4191 0.813262 18.0662 0.8125 19.7517C0.8125 19.9672 0.898102 20.1739 1.05048 20.3262C1.20285 20.4786 1.40951 20.5642 1.625 20.5642H16.9487C17.1642 20.5642 17.3709 20.4786 17.5233 20.3262C17.6756 20.1739 17.7612 19.9672 17.7612 19.7517C17.7644 18.8902 17.6314 18.0335 17.3672 17.2135C16.9738 15.9457 16.2861 14.7889 15.3603 13.8375Z" fill="#141414" fill-opacity="0.6"/>
<path d="M19.0938 10.4062C21.0009 10.4062 22.5469 8.86023 22.5469 6.95312C22.5469 5.04602 21.0009 3.5 19.0938 3.5C17.1866 3.5 15.6406 5.04602 15.6406 6.95312C15.6406 8.86023 17.1866 10.4062 19.0938 10.4062Z" fill="#141414" fill-opacity="0.6"/>
<path d="M19.0924 11.3594C18.0033 11.3635 16.9352 11.6601 16 12.2182C16.1763 12.3758 16.3542 12.531 16.5208 12.7016C17.6271 13.8388 18.449 15.2213 18.9193 16.7365C19.0804 17.2353 19.1992 17.7469 19.2744 18.2656H24.3736C24.5891 18.2656 24.7958 18.18 24.9481 18.0276C25.1005 17.8753 25.1861 17.6686 25.1861 17.4531C25.1844 15.8375 24.5418 14.2885 23.3994 13.1461C22.257 12.0037 20.708 11.3611 19.0924 11.3594Z" fill="#141414" fill-opacity="0.6"/>
</svg>
