<svg width="26" height="18" viewBox="0 0 26 18" fill="none" xmlns="http://www.w3.org/2000/svg">
<path d="M20.668 11.2852C20.2477 11.2852 19.9062 11.6266 19.9062 12.0469C19.9062 12.4671 20.2477 12.8086 20.668 12.8086C21.0882 12.8086 21.4297 12.4671 21.4297 12.0469C21.4297 11.6266 21.0882 11.2852 20.668 11.2852Z" fill="#141414"/>
<path d="M25.2383 0.621094H7.68041V2.90625C7.68041 3.32728 7.33972 3.66797 6.91869 3.66797C6.49766 3.66797 6.15697 3.32728 6.15697 2.90625V0.621094H0.761719C0.340691 0.621094 0 0.961785 0 1.38281V5.95312C0 6.37415 0.340691 6.71484 0.761719 6.71484C2.0218 6.71484 3.04688 7.73991 3.04688 9C3.04688 10.2601 2.0218 11.2852 0.761719 11.2852C0.340691 11.2852 0 11.6258 0 12.0469V16.6172C0 17.0382 0.340691 17.3789 0.761719 17.3789H6.09375V15.0938C6.09375 14.6727 6.43444 14.332 6.85547 14.332C7.2765 14.332 7.61719 14.6727 7.61719 15.0938V17.3789H25.2383C25.6593 17.3789 26 17.0382 26 16.6172V1.38281C26 0.961785 25.6593 0.621094 25.2383 0.621094ZM7.61719 12.0469C7.61719 12.4679 7.2765 12.8086 6.85547 12.8086C6.43444 12.8086 6.09375 12.4679 6.09375 12.0469V10.5234C6.09375 10.1024 6.43444 9.76172 6.85547 9.76172C7.2765 9.76172 7.61719 10.1024 7.61719 10.5234V12.0469ZM7.61719 7.47656C7.61719 7.89759 7.2765 8.23828 6.85547 8.23828C6.43444 8.23828 6.09375 7.89759 6.09375 7.47656V5.95312C6.09375 5.5321 6.43444 5.19141 6.85547 5.19141C7.2765 5.19141 7.61719 5.5321 7.61719 5.95312V7.47656ZM12.2891 5.95312C12.2891 4.69304 13.3141 3.66797 14.5742 3.66797C15.8343 3.66797 16.8594 4.69304 16.8594 5.95312C16.8594 7.21321 15.8343 8.23828 14.5742 8.23828C13.3141 8.23828 12.2891 7.21321 12.2891 5.95312ZM14.1517 14.2041C13.8014 13.9705 13.7069 13.4982 13.9405 13.1478L20.0342 4.00714C20.267 3.6568 20.7394 3.56305 21.0905 3.79589C21.4409 4.02948 21.5354 4.5018 21.3018 4.85219L15.208 13.9928C14.9782 14.338 14.5076 14.44 14.1517 14.2041ZM20.668 14.332C19.4079 14.332 18.3828 13.307 18.3828 12.0469C18.3828 10.7868 19.4079 9.76172 20.668 9.76172C21.9281 9.76172 22.9531 10.7868 22.9531 12.0469C22.9531 13.307 21.9281 14.332 20.668 14.332Z" fill="#141414"/>
<path d="M14.5742 5.19141C14.154 5.19141 13.8125 5.53286 13.8125 5.95312C13.8125 6.37339 14.154 6.71484 14.5742 6.71484C14.9945 6.71484 15.3359 6.37339 15.3359 5.95312C15.3359 5.53286 14.9945 5.19141 14.5742 5.19141Z" fill="#141414"/>
</svg>
