<svg width="20" height="20" viewBox="0 0 20 20" fill="none" xmlns="http://www.w3.org/2000/svg">
<path fill-rule="evenodd" clip-rule="evenodd" d="M16.3713 7.86313C16.3092 8.13126 16.2078 8.38872 16.0703 8.62713L10.5533 18.1811L10.8933 18.7711C11.1639 19.2394 11.6094 19.581 12.1319 19.7209C12.6543 19.8608 13.2109 19.7875 13.6793 19.5171L18.9793 16.4571C19.4473 16.1865 19.7887 15.7412 19.9286 15.219C20.0685 14.6968 19.9954 14.1405 19.7253 13.6721L16.3713 7.86313ZM15.2203 6.45113C15.3414 6.95824 15.2638 7.49248 15.0033 7.94413L9.43331 17.5931C9.29939 17.8252 9.12106 18.0286 8.90851 18.1918C8.69596 18.3549 8.45336 18.4746 8.19455 18.5439C7.93574 18.6133 7.66581 18.631 7.40016 18.596C7.13451 18.5611 6.87835 18.4741 6.64631 18.3401L1.34731 15.2801C0.879061 15.0095 0.537442 14.564 0.397552 14.0416C0.257662 13.5191 0.330953 12.9625 0.601312 12.4941L6.17131 2.84613C6.43228 2.39384 6.85675 2.05884 7.35731 1.91013L11.6213 0.643133C11.8869 0.564186 12.1659 0.540185 12.4411 0.572593C12.7163 0.605002 12.982 0.693141 13.222 0.831633C13.462 0.970125 13.6713 1.15607 13.8371 1.37811C14.0029 1.60016 14.1217 1.85365 14.1863 2.12313L15.2203 6.45113ZM12.5283 4.07213C12.4632 4.19154 12.3748 4.29671 12.2684 4.38145C12.1619 4.46618 12.0397 4.52878 11.9087 4.56556C11.7777 4.60233 11.6407 4.61254 11.5058 4.59558C11.3708 4.57862 11.2406 4.53483 11.1228 4.4668C11.005 4.39876 10.902 4.30785 10.8199 4.19942C10.7377 4.09099 10.6781 3.96722 10.6445 3.83541C10.6109 3.70359 10.6041 3.56639 10.6243 3.43187C10.6445 3.29735 10.6914 3.16824 10.7623 3.05213C10.901 2.82488 11.1231 2.66087 11.3811 2.59512C11.6391 2.52938 11.9126 2.56712 12.1431 2.70028C12.3736 2.83344 12.543 3.05146 12.615 3.30779C12.6869 3.56412 12.6558 3.83843 12.5283 4.07213ZM4.58831 10.3841C4.67831 10.7081 4.88631 10.9641 5.21431 11.1541C5.54131 11.3421 5.86731 11.3941 6.19331 11.3101C6.51831 11.2261 6.78331 11.0051 6.99031 10.6481C7.12831 10.4081 7.20031 10.1751 7.20331 9.94713C7.20922 9.7259 7.14899 9.50793 7.03031 9.32113C6.90849 9.12781 6.73998 8.96825 6.54031 8.85713C6.34187 8.73859 6.11721 8.67092 5.88631 8.66013C5.66631 8.65413 5.45931 8.71013 5.26331 8.82713C5.06731 8.94413 4.90131 9.12313 4.76331 9.36213C4.55731 9.71913 4.49831 10.0601 4.58831 10.3841ZM9.18431 10.4621C9.11711 10.4234 9.04152 10.4015 8.96403 10.3984C8.88653 10.3953 8.80942 10.411 8.73931 10.4441L4.55531 12.4141C4.44008 12.4684 4.3511 12.5662 4.30797 12.686C4.26484 12.8058 4.27108 12.9379 4.32531 13.0531C4.37955 13.1684 4.47734 13.2573 4.59718 13.3005C4.71701 13.3436 4.84908 13.3374 4.96431 13.2831L9.14831 11.3121C9.22766 11.2748 9.29527 11.2165 9.34382 11.1435C9.39237 11.0705 9.42 10.9856 9.42371 10.898C9.42741 10.8104 9.40706 10.7235 9.36486 10.6467C9.32266 10.5698 9.26022 10.506 9.18431 10.4621ZM5.83431 10.5071C5.74131 10.5571 5.65731 10.5611 5.58131 10.5171C5.50531 10.4731 5.46431 10.3971 5.45731 10.2891C5.45731 10.1791 5.50931 10.0341 5.61331 9.85313C5.71731 9.67313 5.81631 9.55713 5.90931 9.50613C6.00931 9.45313 6.09631 9.44913 6.17231 9.49313C6.24831 9.53713 6.28631 9.61313 6.28631 9.72313C6.29331 9.83313 6.24431 9.97713 6.14031 10.1571C6.03631 10.3371 5.93431 10.4541 5.83431 10.5071ZM6.53831 14.1011C6.62831 14.4251 6.83631 14.6811 7.16331 14.8711C7.49131 15.0591 7.81731 15.1111 8.14331 15.0281C8.46831 14.9431 8.73331 14.7231 8.94031 14.3651C9.07831 14.1251 9.15031 13.8921 9.15331 13.6651C9.15942 13.4436 9.09918 13.2252 8.98031 13.0381C8.85842 12.8449 8.68993 12.6853 8.49031 12.5741C8.29176 12.456 8.06712 12.3887 7.83631 12.3781C7.61631 12.3711 7.40931 12.4271 7.21331 12.5441C7.01731 12.6611 6.85131 12.8401 6.71331 13.0791C6.50631 13.4371 6.44831 13.7771 6.53831 14.1011ZM7.78431 14.2241C7.69131 14.2741 7.60631 14.2781 7.53031 14.2341C7.45531 14.1911 7.41331 14.1141 7.40731 14.0061C7.40731 13.8961 7.45931 13.7511 7.56331 13.5701C7.66731 13.3901 7.76631 13.2741 7.85931 13.2231C7.95931 13.1711 8.04631 13.1661 8.12231 13.2101C8.19831 13.2541 8.23631 13.3301 8.23631 13.4401C8.24331 13.5501 8.19431 13.6941 8.09031 13.8741C7.98531 14.0551 7.88431 14.1721 7.78431 14.2241Z" fill="#141414" fill-opacity="0.6"/>
</svg>
