<svg width="26" height="26" viewBox="0 0 26 26" fill="none" xmlns="http://www.w3.org/2000/svg">
<g clip-path="url(#clip0_24_18295)">
<path d="M2.70832 10.293H5.41663C5.33438 10.2929 5.25321 10.2742 5.17927 10.2381C5.10533 10.2021 5.04054 10.1497 4.98982 10.085C4.88688 9.9539 4.85113 9.78272 4.89125 9.62022L5.22818 8.27365C5.3157 7.92193 5.51847 7.60964 5.80416 7.38659C6.08984 7.16354 6.44199 7.04257 6.80443 7.04297H10.2917C11.1876 7.04297 11.9167 7.77204 11.9167 8.66797V9.75129C11.9167 10.0503 11.674 10.293 11.375 10.293H14.625C14.326 10.293 14.0833 10.0503 14.0833 9.75129V8.66797C14.0833 7.77204 14.8124 7.04297 15.7083 7.04297H19.1956C19.558 7.04257 19.9102 7.16354 20.1958 7.38659C20.4815 7.60964 20.6843 7.92193 20.7718 8.27365L21.1087 9.62022C21.1289 9.70007 21.1306 9.78348 21.1135 9.86405C21.0964 9.94462 21.0611 10.0202 21.0102 10.085C20.9595 10.1497 20.8947 10.2021 20.8207 10.2381C20.7468 10.2742 20.6656 10.2929 20.5834 10.293H23.2917C23.5907 10.293 23.8334 10.0503 23.8334 9.75129V6.50129C23.8334 5.00847 22.6179 3.79297 21.1251 3.79297H4.875C3.38218 3.79297 2.16668 5.00847 2.16668 6.50129V9.75129C2.16668 10.0503 2.40932 10.293 2.70832 10.293ZM23.2917 11.3763H2.70832C1.2155 11.3763 0 12.5918 0 14.0846V21.6679C0 21.9669 0.242684 22.2096 0.541684 22.2096C0.840684 22.2096 1.08337 21.9669 1.08337 21.6679V20.0429H24.9167V21.6679C24.9167 21.9669 25.1594 22.2096 25.4584 22.2096C25.7574 22.2096 26 21.9669 26 21.6679V14.0846C26 12.5918 24.7845 11.3763 23.2917 11.3763ZM24.9167 18.9596H1.08332V17.8763H24.9166V18.9596H24.9167Z" fill="#141414" fill-opacity="0.6"/>
</g>
<defs>
<clipPath id="clip0_24_18295">
<rect width="26" height="26" fill="white"/>
</clipPath>
</defs>
</svg>
