<svg width="26" height="26" viewBox="0 0 26 26" fill="none" xmlns="http://www.w3.org/2000/svg">
<path d="M8.13542 2.70833C8.13542 2.11002 7.65039 1.625 7.05208 1.625C6.45377 1.625 5.96875 2.11002 5.96875 2.70833V3.79167C5.96875 4.38998 6.45377 4.875 7.05208 4.875C7.65039 4.875 8.13542 4.38998 8.13542 3.79167V2.70833Z" fill="#141414" fill-opacity="0.6"/>
<path d="M20.0417 2.70833C20.0417 2.11002 19.5566 1.625 18.9583 1.625C18.36 1.625 17.875 2.11002 17.875 2.70833V3.79167C17.875 4.38998 18.36 4.875 18.9583 4.875C19.5566 4.875 20.0417 4.38998 20.0417 3.79167V2.70833Z" fill="#141414" fill-opacity="0.6"/>
<path d="M2.17188 9.75V22.2083C2.17188 22.783 2.40015 23.3341 2.80648 23.7404C3.21281 24.1467 3.76391 24.375 4.33854 24.375H21.6719C22.2465 24.375 22.7976 24.1467 23.2039 23.7404C23.6103 23.3341 23.8385 22.783 23.8385 22.2083V9.75H2.17188ZM8.67188 20.5833C8.67188 20.8707 8.55774 21.1462 8.35457 21.3494C8.15141 21.5525 7.87586 21.6667 7.58854 21.6667H6.50521C6.21789 21.6667 5.94234 21.5525 5.73918 21.3494C5.53601 21.1462 5.42188 20.8707 5.42188 20.5833V19.5C5.42188 19.2127 5.53601 18.9371 5.73918 18.734C5.94234 18.5308 6.21789 18.4167 6.50521 18.4167H7.58854C7.87586 18.4167 8.15141 18.5308 8.35457 18.734C8.55774 18.9371 8.67188 19.2127 8.67188 19.5V20.5833ZM8.67188 14.625C8.67188 14.9123 8.55774 15.1879 8.35457 15.391C8.15141 15.5942 7.87586 15.7083 7.58854 15.7083H6.50521C6.21789 15.7083 5.94234 15.5942 5.73918 15.391C5.53601 15.1879 5.42188 14.9123 5.42188 14.625V13.5417C5.42188 13.2543 5.53601 12.9788 5.73918 12.7756C5.94234 12.5725 6.21789 12.4583 6.50521 12.4583H7.58854C7.87586 12.4583 8.15141 12.5725 8.35457 12.7756C8.55774 12.9788 8.67188 13.2543 8.67188 13.5417V14.625ZM14.6302 20.5833C14.6302 20.8707 14.5161 21.1462 14.3129 21.3494C14.1097 21.5525 13.8342 21.6667 13.5469 21.6667H12.4635C12.1762 21.6667 11.9007 21.5525 11.6975 21.3494C11.4943 21.1462 11.3802 20.8707 11.3802 20.5833V19.5C11.3802 19.2127 11.4943 18.9371 11.6975 18.734C11.9007 18.5308 12.1762 18.4167 12.4635 18.4167H13.5469C13.8342 18.4167 14.1097 18.5308 14.3129 18.734C14.5161 18.9371 14.6302 19.2127 14.6302 19.5V20.5833ZM14.6302 14.625C14.6302 14.9123 14.5161 15.1879 14.3129 15.391C14.1097 15.5942 13.8342 15.7083 13.5469 15.7083H12.4635C12.1762 15.7083 11.9007 15.5942 11.6975 15.391C11.4943 15.1879 11.3802 14.9123 11.3802 14.625V13.5417C11.3802 13.2543 11.4943 12.9788 11.6975 12.7756C11.9007 12.5725 12.1762 12.4583 12.4635 12.4583H13.5469C13.8342 12.4583 14.1097 12.5725 14.3129 12.7756C14.5161 12.9788 14.6302 13.2543 14.6302 13.5417V14.625ZM20.5885 20.5833C20.5885 20.8707 20.4744 21.1462 20.2712 21.3494C20.0681 21.5525 19.7925 21.6667 19.5052 21.6667H18.4219C18.1346 21.6667 17.859 21.5525 17.6558 21.3494C17.4527 21.1462 17.3385 20.8707 17.3385 20.5833V19.5C17.3385 19.2127 17.4527 18.9371 17.6558 18.734C17.859 18.5308 18.1346 18.4167 18.4219 18.4167H19.5052C19.7925 18.4167 20.0681 18.5308 20.2712 18.734C20.4744 18.9371 20.5885 19.2127 20.5885 19.5V20.5833ZM20.5885 14.625C20.5885 14.9123 20.4744 15.1879 20.2712 15.391C20.0681 15.5942 19.7925 15.7083 19.5052 15.7083H18.4219C18.1346 15.7083 17.859 15.5942 17.6558 15.391C17.4527 15.1879 17.3385 14.9123 17.3385 14.625V13.5417C17.3385 13.2543 17.4527 12.9788 17.6558 12.7756C17.859 12.5725 18.1346 12.4583 18.4219 12.4583H19.5052C19.7925 12.4583 20.0681 12.5725 20.2712 12.7756C20.4744 12.9788 20.5885 13.2543 20.5885 13.5417V14.625ZM23.8385 8.66667V5.41667C23.8385 4.84203 23.6103 4.29093 23.2039 3.8846C22.7976 3.47827 22.2465 3.25 21.6719 3.25H21.1302V3.79167C21.1302 4.98658 20.1585 5.95833 18.9635 5.95833C17.7686 5.95833 16.7969 4.98658 16.7969 3.79167V3.25H9.21354V3.79167C9.21354 4.98658 8.24179 5.95833 7.04688 5.95833C5.85196 5.95833 4.88021 4.98658 4.88021 3.79167V3.25H4.33854C3.76391 3.25 3.21281 3.47827 2.80648 3.8846C2.40015 4.29093 2.17188 4.84203 2.17188 5.41667V8.66667H23.8385Z" fill="#141414" fill-opacity="0.6"/>
</svg>
