<svg width="26" height="20" viewBox="0 0 26 20" fill="none" xmlns="http://www.w3.org/2000/svg">
<path d="M2.70832 7.29297H5.41663C5.33438 7.29291 5.25321 7.27416 5.17927 7.23813C5.10533 7.20209 5.04054 7.14972 4.98982 7.08497C4.88688 6.9539 4.85113 6.78272 4.89125 6.62022L5.22818 5.27365C5.3157 4.92193 5.51847 4.60964 5.80416 4.38659C6.08984 4.16354 6.44199 4.04257 6.80443 4.04297H10.2917C11.1876 4.04297 11.9167 4.77204 11.9167 5.66797V6.75129C11.9167 7.05029 11.674 7.29297 11.375 7.29297H14.625C14.326 7.29297 14.0833 7.05029 14.0833 6.75129V5.66797C14.0833 4.77204 14.8124 4.04297 15.7083 4.04297H19.1956C19.558 4.04257 19.9102 4.16354 20.1958 4.38659C20.4815 4.60964 20.6843 4.92193 20.7718 5.27365L21.1087 6.62022C21.1289 6.70007 21.1306 6.78348 21.1135 6.86405C21.0964 6.94462 21.0611 7.0202 21.0102 7.08497C20.9595 7.14972 20.8947 7.20209 20.8207 7.23812C20.7468 7.27416 20.6656 7.29291 20.5834 7.29297H23.2917C23.5907 7.29297 23.8334 7.05029 23.8334 6.75129V3.50129C23.8334 2.00847 22.6179 0.792969 21.1251 0.792969H4.875C3.38218 0.792969 2.16668 2.00847 2.16668 3.50129V6.75129C2.16668 7.05029 2.40932 7.29297 2.70832 7.29297ZM23.2917 8.37629H2.70832C1.2155 8.37629 0 9.59179 0 11.0846V18.6679C0 18.9669 0.242684 19.2096 0.541684 19.2096C0.840684 19.2096 1.08337 18.9669 1.08337 18.6679V17.0429H24.9167V18.6679C24.9167 18.9669 25.1594 19.2096 25.4584 19.2096C25.7574 19.2096 26 18.9669 26 18.6679V11.0846C26 9.59179 24.7845 8.37629 23.2917 8.37629ZM24.9167 15.9596H1.08332V14.8763H24.9166V15.9596H24.9167Z" fill="#141414"/>
</svg>
