<svg width="20" height="20" viewBox="0 0 20 20" fill="none" xmlns="http://www.w3.org/2000/svg">
<path d="M10.625 9.16797C10.625 9.00221 10.5592 8.84324 10.4419 8.72603C10.3247 8.60882 10.1658 8.54297 10 8.54297C9.83424 8.54297 9.67527 8.60882 9.55806 8.72603C9.44085 8.84324 9.375 9.00221 9.375 9.16797V14.168C9.375 14.3337 9.44085 14.4927 9.55806 14.6099C9.67527 14.7271 9.83424 14.793 10 14.793C10.1658 14.793 10.3247 14.7271 10.4419 14.6099C10.5592 14.4927 10.625 14.3337 10.625 14.168V9.16797Z" fill="#141414" fill-opacity="0.6"/>
<path fill-rule="evenodd" clip-rule="evenodd" d="M9.9974 1.04297C5.0499 1.04297 1.03906 5.0538 1.03906 10.0013C1.03906 14.9488 5.0499 18.9596 9.9974 18.9596C14.9449 18.9596 18.9557 14.9488 18.9557 10.0013C18.9557 5.0538 14.9449 1.04297 9.9974 1.04297ZM2.28906 10.0013C2.28906 7.95693 3.10119 5.99628 4.54678 4.55069C5.99237 3.10509 7.95302 2.29297 9.9974 2.29297C12.0418 2.29297 14.0024 3.10509 15.448 4.55069C16.8936 5.99628 17.7057 7.95693 17.7057 10.0013C17.7057 12.0457 16.8936 14.0063 15.448 15.4519C14.0024 16.8975 12.0418 17.7096 9.9974 17.7096C7.95302 17.7096 5.99237 16.8975 4.54678 15.4519C3.10119 14.0063 2.28906 12.0457 2.28906 10.0013Z" fill="#141414" fill-opacity="0.6"/>
<path d="M10.8307 6.66927C10.8307 6.89028 10.7429 7.10225 10.5867 7.25853C10.4304 7.41481 10.2184 7.5026 9.9974 7.5026C9.77638 7.5026 9.56442 7.41481 9.40814 7.25853C9.25186 7.10225 9.16406 6.89028 9.16406 6.66927C9.16406 6.44826 9.25186 6.2363 9.40814 6.08002C9.56442 5.92374 9.77638 5.83594 9.9974 5.83594C10.2184 5.83594 10.4304 5.92374 10.5867 6.08002C10.7429 6.2363 10.8307 6.44826 10.8307 6.66927Z" fill="#141414" fill-opacity="0.6"/>
</svg>
