<svg width="22" height="26" viewBox="0 0 22 26" fill="none" xmlns="http://www.w3.org/2000/svg">
<path d="M7.75781 0V2.16889H9.92671V3.25332C10.6858 3.14489 11.3365 3.14489 12.0956 3.25332V2.16889H14.2645V0H7.75781Z" fill="#FF0000"/>
<path d="M18.3835 7.15916L19.1426 6.40007L20.0101 7.26764L21.5284 5.74941L18.2751 2.49609L16.7568 4.01433L17.6244 4.88184L16.6484 5.85784C11.4431 2.71295 4.71955 4.33961 1.68314 9.54491C-1.35328 14.7502 0.273333 21.2569 5.37021 24.4017C10.4671 27.5466 17.1906 25.92 20.227 20.7147C22.9381 16.2685 22.179 10.6294 18.3835 7.15916ZM11.0093 22.6667C6.77997 22.6667 3.41822 19.3049 3.41822 15.0756C3.41822 10.8463 6.77997 7.4845 11.0093 7.4845V15.0756H18.6003C18.6004 19.3049 15.2386 22.6667 11.0093 22.6667Z" fill="#FF0000"/>
</svg>
