<svg width="22" height="24" viewBox="0 0 22 24" fill="none" xmlns="http://www.w3.org/2000/svg">
<path fill-rule="evenodd" clip-rule="evenodd" d="M11 9.66537C11.4596 9.66537 11.9148 9.57484 12.3394 9.39894C12.764 9.22305 13.1499 8.96524 13.4749 8.64024C13.7999 8.31523 14.0577 7.9294 14.2336 7.50476C14.4095 7.08012 14.5 6.62499 14.5 6.16537C14.5 5.70574 14.4095 5.25061 14.2336 4.82597C14.0577 4.40133 13.7999 4.0155 13.4749 3.69049C13.1499 3.36549 12.764 3.10768 12.3394 2.93179C11.9148 2.7559 11.4596 2.66536 11 2.66536C10.0717 2.66536 9.1815 3.03411 8.52513 3.69049C7.86875 4.34687 7.5 5.23711 7.5 6.16537C7.5 7.09362 7.86875 7.98386 8.52513 8.64024C9.1815 9.29662 10.0717 9.66537 11 9.66537ZM11 11.9987C12.5471 11.9987 14.0308 11.3841 15.1248 10.2902C16.2188 9.19619 16.8333 7.71246 16.8333 6.16537C16.8333 4.61827 16.2188 3.13454 15.1248 2.04058C14.0308 0.946613 12.5471 0.332031 11 0.332031C9.4529 0.332031 7.96917 0.946613 6.87521 2.04058C5.78125 3.13454 5.16667 4.61827 5.16667 6.16537C5.16667 7.71246 5.78125 9.19619 6.87521 10.2902C7.96917 11.3841 9.4529 11.9987 11 11.9987ZM7.5 16.6654C6.26232 16.6654 5.07534 17.157 4.20017 18.0322C3.325 18.9074 2.83333 20.0944 2.83333 21.332V22.4987C2.83333 22.8081 2.71042 23.1049 2.49162 23.3237C2.27283 23.5424 1.97609 23.6654 1.66667 23.6654C1.35725 23.6654 1.0605 23.5424 0.841709 23.3237C0.622916 23.1049 0.5 22.8081 0.5 22.4987V21.332C0.5 19.4755 1.2375 17.695 2.55025 16.3823C3.86301 15.0695 5.64348 14.332 7.5 14.332H14.5C16.3565 14.332 18.137 15.0695 19.4497 16.3823C20.7625 17.695 21.5 19.4755 21.5 21.332V22.4987C21.5 22.8081 21.3771 23.1049 21.1583 23.3237C20.9395 23.5424 20.6428 23.6654 20.3333 23.6654C20.0239 23.6654 19.7272 23.5424 19.5084 23.3237C19.2896 23.1049 19.1667 22.8081 19.1667 22.4987V21.332C19.1667 20.0944 18.675 18.9074 17.7998 18.0322C16.9247 17.157 15.7377 16.6654 14.5 16.6654H7.5Z" fill="#141414"/>
</svg>
