<svg width="28" height="28" viewBox="0 0 28 28" fill="none" xmlns="http://www.w3.org/2000/svg">
<g clip-path="url(#clip0_24_23649)">
<mask id="mask0_24_23649" style="mask-type:luminance" maskUnits="userSpaceOnUse" x="0" y="0" width="28" height="28">
<path d="M27.5 27.5V0.5H0.5V27.5H27.5Z" fill="white" stroke="white"/>
</mask>
<g mask="url(#mask0_24_23649)">
<path d="M8.31552 16.468C9.24515 16.0924 9.60986 14.8468 9.13097 13.6864C8.65207 12.5259 7.51047 11.8878 6.58084 12.2634C5.65126 12.6389 5.28655 13.8845 5.76545 15.045C6.24429 16.2068 7.38595 16.8435 8.31552 16.468ZM11.7511 11.5381C12.7163 11.2623 13.213 10.0622 12.8616 8.85779C12.5102 7.65331 11.4428 6.89922 10.479 7.17507C9.51525 7.45085 9.01711 8.65091 9.36853 9.8554C9.71989 11.0598 10.7859 11.8139 11.7511 11.5381ZM21.3932 12.4685C20.4636 12.0929 19.3219 12.7296 18.8431 13.8915C18.3642 15.0534 18.7289 16.2989 19.6585 16.6731C20.5881 17.0471 21.7297 16.4119 22.2086 15.25C22.6875 14.088 22.3228 12.844 21.3932 12.4685ZM16.4638 11.5381C17.4289 11.8139 18.495 11.0598 18.8463 9.85393C19.1977 8.64944 18.701 7.44938 17.7359 7.17359C16.7706 6.89775 15.7047 7.65183 15.3532 8.85779C15.0019 10.0622 15.4986 11.2623 16.4638 11.5381ZM18.4804 19.0752C18.8377 20.6978 17.0571 21.0498 16.2728 20.8386C15.4885 20.6273 13.8887 20.5921 13.8887 20.5921C13.8887 20.5921 12.2845 20.6274 11.5002 20.8386C10.7159 21.0513 8.93382 20.6978 9.28961 19.0752C9.64541 17.4526 11.2141 17.5231 11.644 15.3357C12.0725 13.1483 13.8902 13.2891 13.8902 13.2891C13.8902 13.2891 15.7035 13.1483 16.132 15.3357C16.5589 17.5231 18.1246 17.4526 18.4804 19.0752Z" stroke="#141414" stroke-miterlimit="10"/>
<path d="M27.164 14.0039C27.164 21.2829 21.2633 27.1836 13.9843 27.1836C6.7054 27.1836 0.804688 21.2829 0.804688 14.0039C0.804688 6.72501 6.7054 0.8243 13.9843 0.8243C21.2633 0.8243 27.164 6.72501 27.164 14.0039Z" stroke="#141414" stroke-miterlimit="10"/>
</g>
</g>
<defs>
<clipPath id="clip0_24_23649">
<rect width="28" height="28" fill="white"/>
</clipPath>
</defs>
</svg>
