<svg width="24" height="18" viewBox="0 0 24 18" fill="none" xmlns="http://www.w3.org/2000/svg">
<path d="M23.7886 1.76817L16.5099 9L23.7886 16.2318C23.9202 15.9568 24 15.6528 24 15.3281V2.67188C24 2.34717 23.9202 2.04319 23.7886 1.76817ZM21.8906 0.5625H2.10938C1.78467 0.5625 1.48069 0.642328 1.20567 0.773906L10.5086 10.03C11.3312 10.8525 12.6688 10.8525 13.4914 10.03L22.7943 0.773906C22.5193 0.642328 22.2153 0.5625 21.8906 0.5625ZM0.211406 1.76817C0.0798281 2.04319 0 2.34717 0 2.67188V15.3281C0 15.6528 0.0798281 15.9569 0.211406 16.2318L7.49011 9L0.211406 1.76817Z" fill="white"/>
<path d="M15.5131 9.99609L14.4831 11.0261C13.1125 12.3967 10.8823 12.3967 9.51177 11.0261L8.48183 9.99609L1.20312 17.2279C1.47814 17.3595 1.78212 17.4393 2.10683 17.4393H21.8881C22.2128 17.4393 22.5168 17.3595 22.7918 17.2279L15.5131 9.99609Z" fill="white"/>
</svg>
