<svg width="20" height="19" viewBox="0 0 20 19" fill="none" xmlns="http://www.w3.org/2000/svg">
<path fill-rule="evenodd" clip-rule="evenodd" d="M5.29574 2.1875C5.5429 2.1875 5.77994 2.28568 5.95471 2.46045C6.12948 2.63522 6.22766 2.87226 6.22766 3.11941V4.05133H7.15957C7.40673 4.05133 7.64377 4.14951 7.81854 4.32428C7.99331 4.49905 8.09149 4.73609 8.09149 4.98324C8.09149 5.2304 7.99331 5.46744 7.81854 5.64221C7.64377 5.81698 7.40673 5.91516 7.15957 5.91516H6.22766V6.84707C6.22766 7.09423 6.12948 7.33127 5.95471 7.50604C5.77994 7.68081 5.5429 7.77899 5.29574 7.77899C5.04859 7.77899 4.81155 7.68081 4.63678 7.50604C4.46201 7.33127 4.36383 7.09423 4.36383 6.84707V5.91516H3.43191C3.18476 5.91516 2.94772 5.81698 2.77295 5.64221C2.59818 5.46744 2.5 5.2304 2.5 4.98324C2.5 4.73609 2.59818 4.49905 2.77295 4.32428C2.94772 4.14951 3.18476 4.05133 3.43191 4.05133H4.36383V3.11941C4.36383 2.87226 4.46201 2.63522 4.63678 2.46045C4.81155 2.28568 5.04859 2.1875 5.29574 2.1875ZM5.29574 11.5066C5.5429 11.5066 5.77994 11.6048 5.95471 11.7796C6.12948 11.9544 6.22766 12.1914 6.22766 12.4386V13.3705H7.15957C7.40673 13.3705 7.64377 13.4687 7.81854 13.6434C7.99331 13.8182 8.09149 14.0552 8.09149 14.3024C8.09149 14.5496 7.99331 14.7866 7.81854 14.9614C7.64377 15.1361 7.40673 15.2343 7.15957 15.2343H6.22766V16.1662C6.22766 16.4134 6.12948 16.6504 5.95471 16.8252C5.77994 17 5.5429 17.0981 5.29574 17.0981C5.04859 17.0981 4.81155 17 4.63678 16.8252C4.46201 16.6504 4.36383 16.4134 4.36383 16.1662V15.2343H3.43191C3.18476 15.2343 2.94772 15.1361 2.77295 14.9614C2.59818 14.7866 2.5 14.5496 2.5 14.3024C2.5 14.0552 2.59818 13.8182 2.77295 13.6434C2.94772 13.4687 3.18476 13.3705 3.43191 13.3705H4.36383V12.4386C4.36383 12.1914 4.46201 11.9544 4.63678 11.7796C4.81155 11.6048 5.04859 11.5066 5.29574 11.5066ZM11.8191 2.1875C12.0248 2.18743 12.2247 2.2554 12.3877 2.38081C12.5507 2.50622 12.6677 2.68203 12.7203 2.88084L13.819 7.03346L16.9447 8.83578C17.0863 8.91758 17.204 9.03522 17.2858 9.17688C17.3675 9.31855 17.4106 9.47924 17.4106 9.64282C17.4106 9.8064 17.3675 9.96709 17.2858 10.1088C17.204 10.2504 17.0863 10.3681 16.9447 10.4499L13.819 12.2531L12.7194 16.4048C12.6666 16.6034 12.5497 16.779 12.3868 16.9043C12.2239 17.0296 12.0242 17.0975 11.8187 17.0975C11.6132 17.0975 11.4134 17.0296 11.2505 16.9043C11.0876 16.779 10.9707 16.6034 10.918 16.4048L9.81926 12.2522L6.69362 10.4499C6.55196 10.3681 6.43433 10.2504 6.35254 10.1088C6.27076 9.96709 6.2277 9.8064 6.2277 9.64282C6.2277 9.47924 6.27076 9.31855 6.35254 9.17688C6.43433 9.03522 6.55196 8.91758 6.69362 8.83578L9.81926 7.03253L10.9189 2.88084C10.9715 2.68219 11.0883 2.50649 11.2511 2.3811C11.4139 2.2557 11.6136 2.18764 11.8191 2.1875Z" fill="white"/>
</svg>
