<svg width="21" height="20" viewBox="0 0 21 20" fill="none" xmlns="http://www.w3.org/2000/svg">
<path d="M1.125 3.52762H10.6408C10.9276 4.83305 12.0934 5.81309 13.4837 5.81309C14.874 5.81309 16.0398 4.83309 16.3266 3.52762H19.875C20.2202 3.52762 20.5 3.24777 20.5 2.90262C20.5 2.55746 20.2202 2.27762 19.875 2.27762H16.3263C16.0389 0.972852 14.8716 -0.0078125 13.4837 -0.0078125C12.0951 -0.0078125 10.9283 0.972695 10.6411 2.27762H1.125C0.779844 2.27762 0.5 2.55746 0.5 2.90262C0.5 3.24777 0.779844 3.52762 1.125 3.52762ZM11.8233 2.90426L11.8234 2.89754C11.8261 1.98477 12.5709 1.24223 13.4837 1.24223C14.3952 1.24223 15.1401 1.98375 15.144 2.89609L15.1441 2.90527C15.1427 3.81961 14.3984 4.56313 13.4837 4.56313C12.5694 4.56313 11.8254 3.82035 11.8233 2.90656L11.8233 2.90426ZM19.875 16.4761H16.3263C16.0389 15.1714 14.8716 14.1907 13.4837 14.1907C12.0951 14.1907 10.9283 15.1712 10.6411 16.4761H1.125C0.779844 16.4761 0.5 16.7559 0.5 17.1011C0.5 17.4463 0.779844 17.7261 1.125 17.7261H10.6408C10.9276 19.0315 12.0934 20.0116 13.4837 20.0116C14.874 20.0116 16.0398 19.0315 16.3266 17.7261H19.875C20.2202 17.7261 20.5 17.4463 20.5 17.1011C20.5 16.7559 20.2202 16.4761 19.875 16.4761ZM13.4837 18.7616C12.5694 18.7616 11.8254 18.0188 11.8233 17.105L11.8233 17.1027L11.8234 17.096C11.8261 16.1832 12.5709 15.4407 13.4837 15.4407C14.3952 15.4407 15.1401 16.1822 15.144 17.0945L15.1441 17.1037C15.1428 18.0181 14.3985 18.7616 13.4837 18.7616ZM19.875 9.37687H10.3592C10.0724 8.07145 8.9066 7.09144 7.51629 7.09144C6.12598 7.09144 4.9602 8.07145 4.6734 9.37687H1.125C0.779844 9.37687 0.5 9.65672 0.5 10.0019C0.5 10.3471 0.779844 10.6269 1.125 10.6269H4.67371C4.96109 11.9316 6.12844 12.9123 7.51629 12.9123C8.90488 12.9123 10.0717 11.9318 10.3589 10.6269H19.875C20.2202 10.6269 20.5 10.3471 20.5 10.0019C20.5 9.65672 20.2202 9.37687 19.875 9.37687ZM9.17668 10.0002L9.17664 10.007C9.17391 10.9197 8.4291 11.6623 7.51629 11.6623C6.60477 11.6623 5.85992 10.9207 5.85598 10.0084L5.85586 9.9993C5.85723 9.08484 6.60156 8.34144 7.51629 8.34144C8.43059 8.34144 9.17465 9.08418 9.17672 9.99801L9.17668 10.0002Z" fill="#141414"/>
</svg>
