<svg width="40" height="41" viewBox="0 0 40 41" fill="none" xmlns="http://www.w3.org/2000/svg">
<path d="M20.0668 26.681L21.0365 27.4083V22.9234C21.0365 21.1658 19.6425 19.7719 17.8849 19.7719H8.85464C7.09706 19.7719 5.70312 21.1658 5.70312 22.9234V27.3477L6.4304 26.7416H6.91525C6.85464 26.0143 6.85464 25.1052 6.97585 24.1961C6.97585 24.1355 7.03646 24.0143 7.09706 24.0143C7.64252 23.8325 10.0062 23.1052 12.9759 23.9537C12.9759 23.9537 13.3395 25.4083 13.2789 26.7416H13.7031C13.7031 26.378 13.5213 24.1355 13.8849 24.0143C14.4304 23.8325 16.794 23.1052 19.7637 23.9537C19.7637 23.9537 20.1274 25.4083 20.0668 26.7416V26.681ZM38.3698 28.8022H37.7031V26.3174H37.8243C38.0062 26.3174 38.188 26.1355 38.188 25.9537C38.188 25.7719 38.0062 25.5901 37.8243 25.5901H36.6122C36.4304 25.7113 36.3092 25.8325 36.0668 25.8931C35.5213 26.0749 34.8546 25.9537 34.4304 25.5901H34.188C34.0062 25.5901 33.8243 25.7719 33.8243 25.9537C33.8243 26.1961 34.0062 26.3174 34.188 26.3174H34.3092V28.8022H33.6425C33.4607 28.8022 33.3395 28.9234 33.3395 29.1052V36.1961C33.3395 36.378 33.4607 36.4992 33.6425 36.4992H33.9455V36.8628C33.9455 36.984 34.0668 37.1052 34.188 37.1052C34.3092 37.1052 34.4304 36.984 34.4304 36.8628C34.4304 36.7416 34.3092 36.6204 34.188 36.6204V36.4992H35.1577V36.8628C35.1577 36.984 35.2789 37.1052 35.4001 37.1052C35.5213 37.1052 35.6425 36.984 35.6425 36.8628C35.6425 36.7416 35.5213 36.6204 35.4001 36.6204V36.4992H36.3698V36.8628C36.3698 36.984 36.491 37.1052 36.6122 37.1052C36.7334 37.1052 36.8546 36.984 36.8546 36.8628C36.8546 36.7416 36.7334 36.6204 36.6122 36.6204V36.4992H37.5819V36.8628C37.5819 36.984 37.7031 37.1052 37.8243 37.1052C37.9455 37.1052 38.0668 36.984 38.0668 36.8628C38.0668 36.7416 37.9455 36.6204 37.8243 36.6204V36.4992H38.3698C38.5516 36.4992 38.6728 36.378 38.6728 36.1961V29.1052C38.6728 28.9234 38.5516 28.8022 38.3698 28.8022ZM37.2183 28.8022H34.8546V26.2567H37.2183V28.8022ZM29.2183 13.6507C30.9759 13.6507 32.3698 12.2567 32.3698 10.4992C32.3698 8.7416 30.9759 7.34766 29.2183 7.34766C27.4607 7.34766 26.0668 8.7416 26.0668 10.4992C26.0668 12.2567 27.4607 13.6507 29.2183 13.6507Z" fill="#034177"/>
<path d="M34.4287 24.6812C34.6712 25.2873 35.3378 25.5903 35.9439 25.3479C36.55 25.1055 36.853 24.4388 36.6106 23.8327C36.6106 23.7721 33.5803 15.6509 33.2772 15.3479L33.0954 15.1661C30.1863 13.4691 27.7015 13.6509 25.2772 15.1661L25.0954 15.3479C24.3681 16.3176 22.2469 20.9237 22.6106 25.1661C22.6712 25.7721 23.156 26.257 23.7621 26.257H23.8833C24.55 26.1964 24.9742 25.6509 24.9742 24.9843C24.853 23.6509 24.9742 22.4388 25.2772 21.2873L25.459 27.7115C25.459 28.0146 25.6409 28.257 25.8833 28.3176V38.4388C25.8833 39.2267 26.55 39.8933 27.3378 39.8933C28.1257 39.8933 28.7924 39.2267 28.7924 38.4388V28.3176H29.7015V38.4388C29.7015 39.2267 30.3681 39.8933 31.156 39.8933C31.9439 39.8933 32.6106 39.2267 32.6106 38.4388V28.3176C32.853 28.257 33.0348 28.0146 33.0348 27.7115L33.2166 21.4691C33.2166 21.5297 34.4893 24.9237 34.4287 24.6812ZM30.3075 15.4085L29.8227 16.863H28.55L28.1257 15.4085C28.9742 14.9237 29.7015 14.9843 30.3075 15.4085ZM28.1257 22.3176L28.4893 17.2873H29.9439L30.3075 22.3176L29.2166 23.6509L28.1257 22.3176ZM22.6712 2.74183H16.2469C16.3075 4.25698 16.6712 9.04486 19.9439 12.6812H12.9742V2.74183H12.2469V12.6812H5.39844C8.67116 9.04486 9.09541 4.25698 9.09541 2.74183H2.67116V18.863H4.91359C6.79238 18.8024 5.33783 14.3782 4.9742 13.4085H12.1863V18.863H12.9136V13.4085H20.3075C19.9439 14.4388 18.55 18.8024 20.3681 18.863H22.6106V2.74183H22.6712ZM24.0045 1.59032V1.10547H1.39844V2.25698H24.0045V1.59032Z" fill="#034177"/>
<path d="M1.33594 38.378H2.9117V37.5295H23.5784V38.378H25.1541V34.6204H1.33594V38.378ZM1.33594 32.2567H25.0935V33.9537H1.33594V32.2567ZM20.9723 28.3174L19.8814 27.4689C19.8208 27.7113 19.7602 27.9537 19.639 28.1355C19.639 28.1355 15.6996 29.1052 13.7602 28.0749C13.7602 28.0749 13.6996 27.8325 13.639 27.4083H13.0935C13.0329 27.6507 12.9723 27.8931 12.8511 28.0749C12.8511 28.0749 8.9117 29.0446 6.9723 28.0143C6.9723 28.0143 6.9117 27.7719 6.85109 27.3477H6.66927L5.69957 28.0749L2.18442 30.8628L1.33594 31.5295H25.0935L24.245 30.8628L20.9723 28.3174Z" fill="#034177"/>
</svg>
