<svg width="25" height="24" viewBox="0 0 25 24" fill="none" xmlns="http://www.w3.org/2000/svg">
<g clip-path="url(#clip0_185_3244)">
<path d="M23.375 20.25H10.625C10.3266 20.25 10.0405 20.1315 9.8295 19.9205C9.61853 19.7095 9.5 19.4234 9.5 19.125C9.5 15.1298 12.7944 12 17 12C21.2056 12 24.5 15.1298 24.5 19.125C24.5 19.4234 24.3815 19.7095 24.1705 19.9205C23.9595 20.1315 23.6734 20.25 23.375 20.25ZM17 12.75C13.2151 12.75 10.25 15.5501 10.25 19.125C10.25 19.2245 10.2895 19.3198 10.3598 19.3902C10.4302 19.4605 10.5255 19.5 10.625 19.5H23.375C23.4745 19.5 23.5698 19.4605 23.6402 19.3902C23.7105 19.3198 23.75 19.2245 23.75 19.125C23.75 15.5501 20.7849 12.75 17 12.75ZM17 11.25C16.2583 11.25 15.5333 11.0301 14.9166 10.618C14.2999 10.206 13.8193 9.62029 13.5355 8.93506C13.2516 8.24984 13.1774 7.49584 13.3221 6.76841C13.4667 6.04098 13.8239 5.3728 14.3483 4.84835C14.8728 4.3239 15.541 3.96675 16.2684 3.82206C16.9958 3.67736 17.7498 3.75162 18.4351 4.03545C19.1203 4.31928 19.706 4.79993 20.118 5.41661C20.5301 6.0333 20.75 6.75832 20.75 7.5C20.7489 8.49423 20.3535 9.44742 19.6504 10.1504C18.9474 10.8535 17.9942 11.2489 17 11.25ZM17 4.5C16.4067 4.5 15.8266 4.67595 15.3333 5.00559C14.8399 5.33524 14.4554 5.80377 14.2284 6.35195C14.0013 6.90013 13.9419 7.50333 14.0576 8.08527C14.1734 8.66722 14.4591 9.20176 14.8787 9.62132C15.2982 10.0409 15.8328 10.3266 16.4147 10.4424C16.9967 10.5581 17.5999 10.4987 18.1481 10.2716C18.6962 10.0446 19.1648 9.66006 19.4944 9.16671C19.8241 8.67336 20 8.09335 20 7.5C19.9991 6.70463 19.6827 5.94208 19.1203 5.37967C18.5579 4.81725 17.7954 4.50089 17 4.5Z" fill="#141414"/>
<path d="M8.75 20.25H1.625C1.32663 20.25 1.04048 20.1315 0.829505 19.9205C0.618526 19.7095 0.5 19.4234 0.5 19.125C0.5 15.9184 3.24088 13.5 6.875 13.5C8.03641 13.4918 9.18267 13.7637 10.2166 14.2928C10.3047 14.3389 10.3709 14.4182 10.4006 14.5131C10.4303 14.608 10.421 14.7109 10.3749 14.799C10.3287 14.8871 10.2495 14.9533 10.1545 14.983C10.0596 15.0127 9.95674 15.0034 9.86863 14.9573C8.94212 14.4843 7.91522 14.2416 6.875 14.25C3.66838 14.25 1.25 16.3459 1.25 19.125C1.25 19.2245 1.28951 19.3198 1.35984 19.3902C1.43016 19.4605 1.52554 19.5 1.625 19.5H8.75C8.84946 19.5 8.94484 19.5395 9.01517 19.6098C9.08549 19.6802 9.125 19.7755 9.125 19.875C9.125 19.9745 9.08549 20.0698 9.01517 20.1402C8.94484 20.2105 8.84946 20.25 8.75 20.25ZM6.875 12.75C6.28166 12.75 5.70164 12.5741 5.20829 12.2444C4.71494 11.9148 4.33042 11.4462 4.10336 10.8981C3.8763 10.3499 3.81689 9.74667 3.93264 9.16473C4.0484 8.58279 4.33412 8.04824 4.75368 7.62868C5.17324 7.20912 5.70779 6.9234 6.28973 6.80765C6.87167 6.69189 7.47487 6.7513 8.02305 6.97836C8.57123 7.20543 9.03977 7.58994 9.36941 8.08329C9.69905 8.57664 9.875 9.15666 9.875 9.75C9.87411 10.5454 9.55775 11.3079 8.99533 11.8703C8.43292 12.4328 7.67038 12.7491 6.875 12.75ZM6.875 7.5C6.42999 7.5 5.99498 7.63196 5.62497 7.8792C5.25496 8.12643 4.96657 8.47783 4.79627 8.88896C4.62597 9.3001 4.58142 9.7525 4.66823 10.189C4.75505 10.6254 4.96934 11.0263 5.28401 11.341C5.59868 11.6557 5.99959 11.87 6.43605 11.9568C6.8725 12.0436 7.3249 11.999 7.73604 11.8287C8.14717 11.6584 8.49857 11.37 8.74581 11C8.99304 10.63 9.125 10.195 9.125 9.75C9.1244 9.15345 8.88716 8.5815 8.46533 8.15967C8.04351 7.73784 7.47155 7.5006 6.875 7.5Z" fill="#141414"/>
</g>
<defs>
<clipPath id="clip0_185_3244">
<rect width="24" height="24" fill="white" transform="translate(0.5)"/>
</clipPath>
</defs>
</svg>
