<svg width="22" height="22" viewBox="0 0 22 22" fill="none" xmlns="http://www.w3.org/2000/svg">
<path d="M21.1925 16.0514L18.1782 13.0371C17.1016 11.9605 15.2715 12.3912 14.8409 13.7907C14.5179 14.7596 13.4414 15.2979 12.4725 15.0825C10.3194 14.5443 7.41268 11.7452 6.87441 9.48447C6.55144 8.51553 7.19737 7.43898 8.16627 7.11605C9.56578 6.68543 9.9964 4.8553 8.91985 3.77875L5.90551 0.764408C5.04427 0.0108225 3.75241 0.0108225 2.99883 0.764408L0.953381 2.80985C-1.09207 4.96295 1.16869 10.6687 6.22848 15.7285C11.2883 20.7882 16.994 23.1567 19.1471 21.0036L21.1925 18.9581C21.9462 18.0969 21.9462 16.805 21.1925 16.0514Z" fill="white"/>
</svg>
