<svg width="24" height="24" viewBox="0 0 24 24" fill="none" xmlns="http://www.w3.org/2000/svg">
<g clip-path="url(#clip0_185_3250)">
<path d="M14.1718 13.2766H9.82179C9.67179 13.2766 9.52179 13.4266 9.52179 13.5766C9.52179 13.7266 9.67179 13.8766 9.82179 13.8766H14.1343C14.2843 13.8766 14.4343 13.7641 14.4343 13.5766C14.4343 13.3891 14.3218 13.2766 14.1718 13.2766ZM22.7968 12.1891H1.23429C1.08429 12.1891 0.934292 12.3016 0.934292 12.4891C0.934292 12.6391 1.04679 12.7891 1.23429 12.7891H22.7968C22.9468 12.7891 23.0968 12.6766 23.0968 12.4891C23.0593 12.3391 22.9468 12.1891 22.7968 12.1891ZM22.7968 12.1891H1.23429C1.08429 12.1891 0.934292 12.3016 0.934292 12.4891C0.934292 12.6391 1.04679 12.7891 1.23429 12.7891H22.7968C22.9468 12.7891 23.0968 12.6766 23.0968 12.4891C23.0593 12.3391 22.9468 12.1891 22.7968 12.1891ZM14.1718 13.2766H9.82179C9.67179 13.2766 9.52179 13.4266 9.52179 13.5766C9.52179 13.7266 9.67179 13.8766 9.82179 13.8766H14.1343C14.2843 13.8766 14.4343 13.7641 14.4343 13.5766C14.4343 13.3891 14.3218 13.2766 14.1718 13.2766ZM23.5843 8.32656C23.5468 8.10156 23.3593 7.91406 23.1343 7.91406H0.859292C0.634292 7.91406 0.446792 8.10156 0.409292 8.32656C0.184292 10.5391 0.259292 12.7516 0.484292 14.9266C0.559292 15.6016 1.08429 16.0891 1.72179 16.0891H22.2343C22.8718 16.0891 23.3968 15.6016 23.4718 14.9266C23.7343 12.7141 23.8093 10.5391 23.5843 8.32656ZM2.65929 15.7891C2.54679 15.5641 2.47179 15.1891 2.43429 14.9266H21.5593C21.5218 15.1891 21.4468 15.5641 21.3343 15.7891H2.65929ZM23.2093 14.8891C23.1718 15.4141 22.7593 15.7891 22.2718 15.7891H21.9718C22.1593 15.3016 22.1593 14.7016 22.1593 14.6266C22.1593 14.5516 22.1218 14.4766 22.0843 14.4016C22.0468 14.3266 21.9718 14.3266 21.8593 14.3266H2.13429C2.05929 14.3266 1.98429 14.3641 1.90929 14.4016C1.83429 14.4391 1.83429 14.5516 1.83429 14.6266C1.83429 14.7016 1.87179 15.2641 2.02179 15.7891H1.72179C1.23429 15.7891 0.821792 15.4141 0.784292 14.8891C0.521792 12.3766 0.521792 10.3141 0.709292 8.36406C0.709292 8.28906 0.784292 8.21406 0.859292 8.21406H23.0968C23.1718 8.21406 23.2468 8.28906 23.2468 8.36406C23.4718 10.3141 23.4718 12.3766 23.2093 14.8891ZM22.7968 12.1891H1.23429C1.08429 12.1891 0.934292 12.3016 0.934292 12.4891C0.934292 12.6391 1.04679 12.7891 1.23429 12.7891H22.7968C22.9468 12.7891 23.0968 12.6766 23.0968 12.4891C23.0593 12.3391 22.9468 12.1891 22.7968 12.1891ZM14.1718 13.2766H9.82179C9.67179 13.2766 9.52179 13.4266 9.52179 13.5766C9.52179 13.7266 9.67179 13.8766 9.82179 13.8766H14.1343C14.2843 13.8766 14.4343 13.7641 14.4343 13.5766C14.4343 13.3891 14.3218 13.2766 14.1718 13.2766Z" fill="#141414" fill-opacity="0.02"/>
<path d="M23.8465 8.28828C23.809 7.91328 23.4715 7.61328 23.0965 7.61328H0.85899C0.48399 7.61328 0.14649 7.91328 0.10899 8.28828C-0.0785101 10.2758 -0.0785101 12.4133 0.18399 14.9633C0.25899 15.7883 0.93399 16.3883 1.72149 16.3883H22.234C23.0215 16.3883 23.6965 15.7883 23.7715 14.9633C24.034 12.4133 24.0715 10.2758 23.8465 8.28828ZM22.2715 15.7883H1.72149C1.23399 15.7883 0.82149 15.4133 0.78399 14.8883C0.52149 12.3758 0.52149 10.3133 0.70899 8.36328C0.70899 8.28828 0.78399 8.21328 0.85899 8.21328H23.0965C23.1715 8.21328 23.2465 8.28828 23.2465 8.36328C23.434 10.3133 23.434 12.4133 23.1715 14.9258C23.1715 15.4133 22.759 15.7883 22.2715 15.7883Z" fill="#2E4159"/>
<path d="M23.2856 8.36484C23.2856 8.28984 23.2106 8.21484 23.1356 8.21484H0.860552C0.785552 8.21484 0.710552 8.28984 0.710552 8.36484C0.523052 10.3148 0.523052 12.3773 0.785552 14.8898C0.823052 15.4148 1.23555 15.7898 1.72305 15.7898H2.02305C1.83555 15.3023 1.83555 14.7023 1.83555 14.6273C1.83555 14.5523 1.87305 14.4773 1.91055 14.4023C1.94805 14.3273 2.02305 14.3273 2.13555 14.3273H21.8606C21.9356 14.3273 22.0106 14.3648 22.0856 14.4023C22.1606 14.4398 22.1606 14.5523 22.1606 14.6273C22.1606 14.7023 22.1231 15.2648 21.9731 15.7898H22.2731C22.7606 15.7898 23.1731 15.4148 23.2106 14.8898C23.4731 12.3773 23.4731 10.3148 23.2856 8.36484ZM14.1731 13.8398H9.82305C9.67305 13.8398 9.52305 13.7273 9.52305 13.5398C9.52305 13.3523 9.67305 13.2398 9.82305 13.2398H14.1356C14.2856 13.2398 14.4356 13.3898 14.4356 13.5398C14.4356 13.6898 14.3231 13.8398 14.1731 13.8398ZM22.7981 12.7898H1.23555C1.08555 12.7898 0.935552 12.6773 0.935552 12.4898C0.935552 12.3398 1.04805 12.1898 1.23555 12.1898H22.7981C22.9481 12.1898 23.0981 12.3023 23.0981 12.4898C23.0606 12.6398 22.9481 12.7898 22.7981 12.7898Z" fill="#141414" fill-opacity="0.02"/>
<path d="M22.1625 14.6625C22.1625 14.7375 22.125 15.3 21.975 15.825C21.9375 15.9375 21.9 16.0125 21.8625 16.125C21.825 16.2 21.7875 16.2375 21.75 16.3125C21.675 16.3875 21.6 16.425 21.525 16.425C21.45 16.425 21.4125 16.425 21.3375 16.35C21.2625 16.275 21.225 16.2 21.225 16.125C21.225 16.05 21.2625 16.0125 21.3 15.9375C21.3375 15.9 21.3375 15.8625 21.375 15.825C21.4875 15.6 21.5625 15.225 21.6 14.9625H2.475C2.5125 15.225 2.5875 15.6 2.7 15.825C2.7375 15.8625 2.7375 15.9 2.775 15.9375C2.8125 15.975 2.85 16.05 2.85 16.125C2.85 16.2 2.8125 16.3125 2.7375 16.35C2.7 16.3875 2.6625 16.3875 2.625 16.425H2.475C2.4 16.425 2.325 16.3875 2.25 16.3125C2.2125 16.275 2.175 16.2 2.1375 16.125C2.1 16.05 2.0625 15.9375 2.025 15.825C1.8375 15.3375 1.8375 14.7375 1.8375 14.6625C1.8375 14.5875 1.875 14.5125 1.9125 14.4375C1.95 14.3625 2.025 14.3625 2.1375 14.3625H21.8625C21.9375 14.3625 22.0125 14.4 22.0875 14.4375C22.125 14.475 22.1625 14.5875 22.1625 14.6625ZM23.0625 12.4875C23.0625 12.6375 22.95 12.7875 22.7625 12.7875H1.2375C1.0875 12.7875 0.9375 12.675 0.9375 12.4875C0.9375 12.3375 1.05 12.1875 1.2375 12.1875H22.8C22.95 12.1875 23.0625 12.3375 23.0625 12.4875ZM14.4375 13.575C14.4375 13.725 14.325 13.875 14.1375 13.875H9.825C9.675 13.875 9.525 13.7625 9.525 13.575C9.525 13.3875 9.675 13.275 9.825 13.275H14.1375C14.325 13.275 14.4375 13.3875 14.4375 13.575Z" fill="#2E4159"/>
</g>
<defs>
<clipPath id="clip0_185_3250">
<rect width="24" height="24" fill="white"/>
</clipPath>
</defs>
</svg>
