<svg width="20" height="19" viewBox="0 0 20 19" fill="none" xmlns="http://www.w3.org/2000/svg">
<g clip-path="url(#clip0_236_795)">
<path d="M14.1664 0H5.82789C3.11405 0 0.90625 2.2078 0.90625 4.92164V13.2603C0.90625 15.974 3.11405 18.1818 5.82789 18.1818H14.1665C16.8802 18.1818 19.088 15.974 19.088 13.2603V4.92164C19.088 2.2078 16.8802 0 14.1664 0V0ZM9.99714 14.0623C7.25584 14.0623 5.0257 11.8322 5.0257 9.09089C5.0257 6.34959 7.25584 4.11945 9.99714 4.11945C12.7384 4.11945 14.9686 6.34959 14.9686 9.09089C14.9686 11.8322 12.7384 14.0623 9.99714 14.0623ZM15.0875 5.29188C14.2774 5.29188 13.6185 4.63298 13.6185 3.82287C13.6185 3.01277 14.2774 2.35373 15.0875 2.35373C15.8976 2.35373 16.5566 3.01277 16.5566 3.82287C16.5566 4.63298 15.8976 5.29188 15.0875 5.29188Z" fill="#034177"/>
<path d="M9.9993 5.1875C7.84587 5.1875 6.09375 6.93948 6.09375 9.09305C6.09375 11.2465 7.84587 12.9986 9.9993 12.9986C12.1529 12.9986 13.9049 11.2465 13.9049 9.09305C13.9049 6.93948 12.1529 5.1875 9.9993 5.1875Z" fill="#034177"/>
<path d="M15.0906 3.42188C14.8684 3.42188 14.6875 3.60276 14.6875 3.82498C14.6875 4.04721 14.8684 4.22809 15.0906 4.22809C15.313 4.22809 15.4938 4.04734 15.4938 3.82498C15.4938 3.60262 15.313 3.42188 15.0906 3.42188Z" fill="#034177"/>
</g>
<defs>
<clipPath id="clip0_236_795">
<rect width="18.1818" height="18.1818" fill="white" transform="translate(0.90625)"/>
</clipPath>
</defs>
</svg>
