<svg width="11" height="20" viewBox="0 0 11 20" fill="none" xmlns="http://www.w3.org/2000/svg">
<path d="M10.4796 0.00397218L8.00398 0C5.22268 0 3.42529 1.84409 3.42529 4.6983V6.86453H0.936145C0.721054 6.86453 0.546875 7.03891 0.546875 7.254V10.3926C0.546875 10.6077 0.721252 10.7819 0.936145 10.7819H3.42529V18.7016C3.42529 18.9167 3.59947 19.0909 3.81456 19.0909H7.06218C7.27728 19.0909 7.45145 18.9165 7.45145 18.7016V10.7819H10.3618C10.5769 10.7819 10.7511 10.6077 10.7511 10.3926L10.7523 7.254C10.7523 7.15072 10.7112 7.05182 10.6383 6.97873C10.5654 6.90564 10.4661 6.86453 10.3628 6.86453H7.45145V5.02819C7.45145 4.14557 7.66178 3.69751 8.81151 3.69751L10.4792 3.69691C10.6941 3.69691 10.8683 3.52253 10.8683 3.30764V0.393246C10.8683 0.17855 10.6943 0.0043694 10.4796 0.00397218Z" fill="#034177"/>
</svg>
