<svg width="24" height="24" viewBox="0 0 24 24" fill="none" xmlns="http://www.w3.org/2000/svg">
<path d="M17.9992 1.87254V10.8727C17.9008 10.8727 17.8033 10.8921 17.7124 10.9298C17.6216 10.9675 17.539 11.0228 17.4695 11.0924C17.4 11.1621 17.3449 11.2447 17.3074 11.3357C17.2698 11.4266 17.2506 11.5241 17.2508 11.6225L17.2494 15H2.25097C1.4119 15 0.75 15.6761 0.75 16.501V20.2485C0.75 21.0734 1.41474 21.7495 2.25097 21.7495H2.62515V22.8734C2.62374 23.0804 2.7924 23.2504 3.00075 23.249H5.6271C5.83404 23.249 6.0027 23.0789 6.00128 22.8734V21.7495H18.0006V22.8734C18.0006 23.0818 18.1692 23.2504 18.3776 23.249H21.0011C21.0506 23.2492 21.0995 23.2396 21.1453 23.2208C21.191 23.2021 21.2326 23.1744 21.2676 23.1395C21.3026 23.1046 21.3304 23.0632 21.3494 23.0175C21.3684 22.9718 21.3781 22.9229 21.3781 22.8734V21.7495H21.7523C22.5914 21.7495 23.2519 21.0734 23.2519 20.2485V16.501C23.2519 15.6761 22.5914 14.9986 21.7523 14.9986H21.0011V11.6239C21.0007 11.4256 20.9218 11.2354 20.7815 11.0952C20.6412 10.9549 20.4511 10.8759 20.2527 10.8756L20.2513 1.87538C20.2513 1.57691 20.1328 1.29066 19.9217 1.07962C19.7107 0.868566 19.4244 0.75 19.126 0.75C18.8275 0.75 18.5412 0.868566 18.3302 1.07962C18.1191 1.29066 18.0006 1.57691 18.0006 1.87538L17.9992 1.87254ZM19.126 1.49978C19.3301 1.49978 19.5001 1.65852 19.5001 1.87254V10.8727H18.7504V1.87254C18.7504 1.65994 18.9219 1.49978 19.126 1.49978ZM8.46181 4.98788C7.18593 4.98985 5.92316 5.24521 4.74677 5.73912C3.57037 6.23304 2.50379 6.95568 1.60891 7.8651C1.24324 8.20668 1.80593 8.7637 2.14326 8.39094C2.96825 7.55285 3.9515 6.88698 5.03593 6.43199C6.12037 5.977 7.28437 5.74195 8.46039 5.74049C10.8302 5.74049 13.1036 6.69437 14.7804 8.39094C15.1205 8.76512 15.6761 8.20385 15.3133 7.8651C14.4183 6.95629 13.3519 6.23414 12.1758 5.74049C10.9997 5.24684 9.7373 4.99009 8.46181 4.98788ZM8.46181 7.34777C7.49307 7.34854 6.53413 7.54177 5.64069 7.91623C4.74725 8.29069 3.9371 8.83891 3.25729 9.52907C2.86894 9.8579 3.47273 10.4333 3.7888 10.0535C4.39926 9.4339 5.12668 8.94169 5.92886 8.60544C6.73104 8.2692 7.592 8.09559 8.46181 8.09471C10.2137 8.09471 11.8932 8.79914 13.1348 10.0549C13.4778 10.4177 14.0249 9.87774 13.6692 9.52907C12.9888 8.83876 12.1782 8.29037 11.2843 7.91569C10.3904 7.541 9.43104 7.3489 8.46181 7.34777ZM8.46181 9.70341C7.12524 9.70341 5.84821 10.2377 4.90425 11.1916C4.54 11.5275 5.09418 12.0931 5.43576 11.7203C5.83132 11.3194 6.30257 11.0011 6.82216 10.7838C7.34175 10.5665 7.89933 10.4547 8.46251 10.4547C9.0257 10.4547 9.58328 10.5665 10.1029 10.7838C10.6225 11.0011 11.0937 11.3194 11.4893 11.7203C11.8379 12.0888 12.3822 11.5389 12.0236 11.1916C11.5579 10.7203 11.0032 10.3461 10.3918 10.0906C9.78043 9.83515 9.12443 9.70354 8.46181 9.70341ZM18.0006 11.6239H20.2499V15H17.9992L18.0006 11.6239ZM8.46039 12.0605C7.74179 12.0605 7.05438 12.3482 6.54696 12.8598C6.17845 13.217 6.72839 13.7613 7.08131 13.3885C7.26137 13.2053 7.47612 13.0598 7.71301 12.9605C7.94991 12.8612 8.20422 12.81 8.4611 12.81C8.71798 12.81 8.97228 12.8612 9.20918 12.9605C9.44608 13.0598 9.66082 13.2053 9.84089 13.3885C10.1938 13.757 10.7395 13.2142 10.3724 12.8598C10.1222 12.6067 9.8242 12.4057 9.49576 12.2685C9.16732 12.1313 8.81634 12.0606 8.46039 12.0605ZM2.25097 15.7512H21.7509C22.1733 15.7512 22.5007 16.0843 22.5007 16.501V20.2485C22.5007 20.6709 22.1619 20.9997 21.7495 20.9997H2.25239C2.15348 21.0006 2.05537 20.9819 1.96381 20.9444C1.87224 20.907 1.78905 20.8517 1.71911 20.7818C1.64916 20.7118 1.59387 20.6287 1.55645 20.5371C1.51903 20.4455 1.50025 20.3474 1.5012 20.2485V16.501C1.5012 16.0843 1.83002 15.7498 2.25239 15.7498L2.25097 15.7512ZM4.12329 16.501C3.8252 16.501 3.53932 16.6194 3.32854 16.8302C3.11775 17.041 2.99934 17.3269 2.99934 17.625C2.99934 17.9231 3.11775 18.209 3.32854 18.4197C3.53932 18.6305 3.8252 18.7489 4.12329 18.7489C4.27564 18.7566 4.42796 18.7332 4.57098 18.6802C4.71401 18.6271 4.84476 18.5456 4.9553 18.4405C5.06583 18.3353 5.15385 18.2088 5.21398 18.0687C5.27412 17.9285 5.30513 17.7775 5.30513 17.625C5.30513 17.4724 5.27412 17.3215 5.21398 17.1813C5.15385 17.0411 5.06583 16.9146 4.9553 16.8095C4.84476 16.7044 4.71401 16.6228 4.57098 16.5698C4.42796 16.5168 4.27564 16.4934 4.12329 16.501ZM7.12808 16.501C6.49594 16.501 5.99987 17.007 5.99987 17.6236C5.99987 18.2401 6.50303 18.7489 7.12808 18.7489C7.42617 18.7489 7.71205 18.6305 7.92284 18.4197C8.13362 18.209 8.25204 17.9231 8.25204 17.625C8.25204 17.3269 8.13362 17.041 7.92284 16.8302C7.71205 16.6194 7.42617 16.501 7.12808 16.501ZM10.1272 16.501C9.97616 16.4953 9.82552 16.52 9.68427 16.5738C9.54301 16.6276 9.41403 16.7092 9.30502 16.8139C9.19601 16.9186 9.1092 17.0442 9.04978 17.1831C8.99036 17.3221 8.95953 17.4716 8.95915 17.6228C8.95877 17.7739 8.98884 17.9236 9.04756 18.0628C9.10628 18.2021 9.19246 18.3281 9.30094 18.4333C9.40942 18.5386 9.53799 18.6209 9.67897 18.6753C9.81995 18.7298 9.97047 18.7553 10.1215 18.7504C10.4129 18.7408 10.6893 18.6185 10.8923 18.4092C11.0953 18.1999 11.2092 17.92 11.2099 17.6284C11.2106 17.3369 11.0982 17.0564 10.8962 16.8461C10.6943 16.6358 10.4186 16.5121 10.1272 16.501ZM4.12329 17.248C4.32314 17.248 4.50031 17.4124 4.50031 17.6236C4.50031 17.7232 4.46074 17.8187 4.3903 17.8892C4.31986 17.9596 4.22433 17.9992 4.12471 17.9992C4.0251 17.9992 3.92956 17.9596 3.85912 17.8892C3.78869 17.8187 3.74911 17.7232 3.74911 17.6236C3.74911 17.4124 3.92345 17.248 4.12329 17.248ZM7.12808 17.248C7.32934 17.248 7.50084 17.4124 7.50084 17.6236C7.50084 17.8347 7.33076 17.9977 7.12808 17.9977C6.9254 17.9977 6.74965 17.8362 6.74965 17.6236C6.74965 17.411 6.92681 17.248 7.12808 17.248ZM10.1272 17.248C10.3242 17.248 10.5 17.4124 10.5 17.6236C10.5 17.8347 10.3299 17.9977 10.1272 17.9977C9.92309 17.9977 9.75018 17.8362 9.75018 17.6236C9.75018 17.411 9.93018 17.248 10.1272 17.248ZM12.3737 17.248C11.8847 17.248 11.8847 17.9977 12.3737 17.9977H15.7527C16.2416 17.9977 16.2416 17.2465 15.7527 17.2465L12.3737 17.248ZM17.4379 17.248C16.9475 17.248 16.9475 17.9977 17.4379 17.9977H18.3762C18.8652 17.9977 18.8652 17.2465 18.3762 17.2465L17.4379 17.248ZM3.37352 21.7495H5.24867V22.4993H3.37493L3.37352 21.7495ZM18.7489 21.7495H20.6241V22.4993H18.7518L18.7489 21.7495Z" fill="#141414"/>
</svg>
