<svg width="41" height="41" viewBox="0 0 41 41" fill="none" xmlns="http://www.w3.org/2000/svg">
<path d="M12.8382 4.66667C12.8382 3.74619 12.092 3 11.1715 3C10.2511 3 9.50488 3.74619 9.50488 4.66667V6.33333C9.50488 7.25381 10.2511 8 11.1715 8C12.092 8 12.8382 7.25381 12.8382 6.33333V4.66667Z" fill="#034177"/>
<path d="M31.1663 4.66667C31.1663 3.74619 30.4201 3 29.4997 3C28.5792 3 27.833 3.74619 27.833 4.66667V6.33333C27.833 7.25381 28.5792 8 29.4997 8C30.4201 8 31.1663 7.25381 31.1663 6.33333V4.66667Z" fill="#034177"/>
<path d="M3.66895 15.5V34.6667C3.66895 35.5507 4.02013 36.3986 4.64526 37.0237C5.27038 37.6488 6.11822 38 7.00228 38H33.6689C34.553 38 35.4008 37.6488 36.026 37.0237C36.6511 36.3986 37.0023 35.5507 37.0023 34.6667V15.5H3.66895ZM13.6689 32.1667C13.6689 32.6087 13.4934 33.0326 13.1808 33.3452C12.8682 33.6577 12.4443 33.8333 12.0023 33.8333H10.3356C9.89358 33.8333 9.46966 33.6577 9.1571 33.3452C8.84454 33.0326 8.66895 32.6087 8.66895 32.1667V30.5C8.66895 30.058 8.84454 29.634 9.1571 29.3215C9.46966 29.0089 9.89358 28.8333 10.3356 28.8333H12.0023C12.4443 28.8333 12.8682 29.0089 13.1808 29.3215C13.4934 29.634 13.6689 30.058 13.6689 30.5V32.1667ZM13.6689 23C13.6689 23.442 13.4934 23.8659 13.1808 24.1785C12.8682 24.4911 12.4443 24.6667 12.0023 24.6667H10.3356C9.89358 24.6667 9.46966 24.4911 9.1571 24.1785C8.84454 23.8659 8.66895 23.442 8.66895 23V21.3333C8.66895 20.8913 8.84454 20.4674 9.1571 20.1548C9.46966 19.8423 9.89358 19.6667 10.3356 19.6667H12.0023C12.4443 19.6667 12.8682 19.8423 13.1808 20.1548C13.4934 20.4674 13.6689 20.8913 13.6689 21.3333V23ZM22.8356 32.1667C22.8356 32.6087 22.66 33.0326 22.3475 33.3452C22.0349 33.6577 21.611 33.8333 21.1689 33.8333H19.5023C19.0603 33.8333 18.6363 33.6577 18.3238 33.3452C18.0112 33.0326 17.8356 32.6087 17.8356 32.1667V30.5C17.8356 30.058 18.0112 29.634 18.3238 29.3215C18.6363 29.0089 19.0603 28.8333 19.5023 28.8333H21.1689C21.611 28.8333 22.0349 29.0089 22.3475 29.3215C22.66 29.634 22.8356 30.058 22.8356 30.5V32.1667ZM22.8356 23C22.8356 23.442 22.66 23.8659 22.3475 24.1785C22.0349 24.4911 21.611 24.6667 21.1689 24.6667H19.5023C19.0603 24.6667 18.6363 24.4911 18.3238 24.1785C18.0112 23.8659 17.8356 23.442 17.8356 23V21.3333C17.8356 20.8913 18.0112 20.4674 18.3238 20.1548C18.6363 19.8423 19.0603 19.6667 19.5023 19.6667H21.1689C21.611 19.6667 22.0349 19.8423 22.3475 20.1548C22.66 20.4674 22.8356 20.8913 22.8356 21.3333V23ZM32.0023 32.1667C32.0023 32.6087 31.8267 33.0326 31.5141 33.3452C31.2016 33.6577 30.7776 33.8333 30.3356 33.8333H28.6689C28.2269 33.8333 27.803 33.6577 27.4904 33.3452C27.1779 33.0326 27.0023 32.6087 27.0023 32.1667V30.5C27.0023 30.058 27.1779 29.634 27.4904 29.3215C27.803 29.0089 28.2269 28.8333 28.6689 28.8333H30.3356C30.7776 28.8333 31.2016 29.0089 31.5141 29.3215C31.8267 29.634 32.0023 30.058 32.0023 30.5V32.1667ZM32.0023 23C32.0023 23.442 31.8267 23.8659 31.5141 24.1785C31.2016 24.4911 30.7776 24.6667 30.3356 24.6667H28.6689C28.2269 24.6667 27.803 24.4911 27.4904 24.1785C27.1779 23.8659 27.0023 23.442 27.0023 23V21.3333C27.0023 20.8913 27.1779 20.4674 27.4904 20.1548C27.803 19.8423 28.2269 19.6667 28.6689 19.6667H30.3356C30.7776 19.6667 31.2016 19.8423 31.5141 20.1548C31.8267 20.4674 32.0023 20.8913 32.0023 21.3333V23ZM37.0023 13.8333V8.83333C37.0023 7.94928 36.6511 7.10143 36.026 6.47631C35.4008 5.85119 34.553 5.5 33.6689 5.5H32.8356V6.33333C32.8356 8.17167 31.3406 9.66667 29.5023 9.66667C27.6639 9.66667 26.1689 8.17167 26.1689 6.33333V5.5H14.5023V6.33333C14.5023 8.17167 13.0073 9.66667 11.1689 9.66667C9.33061 9.66667 7.83561 8.17167 7.83561 6.33333V5.5H7.00228C6.11822 5.5 5.27038 5.85119 4.64526 6.47631C4.02013 7.10143 3.66895 7.94928 3.66895 8.83333V13.8333H37.0023Z" fill="#034177"/>
</svg>
