<svg width="31" height="35" viewBox="0 0 31 35" fill="none" xmlns="http://www.w3.org/2000/svg">
<path d="M15.3807 0C9.23086 0 4.10156 4.95396 4.10156 11.2792C4.10156 13.6856 4.82466 15.8313 6.21241 17.842L14.5176 30.8015C14.9205 31.4315 15.8418 31.4302 16.2439 30.8015L24.5851 17.7979C25.943 15.8784 26.6599 13.6244 26.6599 11.2792C26.6599 5.05984 21.6001 0 15.3807 0ZM15.3807 16.4061C12.5539 16.4061 10.2538 14.106 10.2538 11.2792C10.2538 8.45235 12.5539 6.15228 15.3807 6.15228C18.2076 6.15228 20.5077 8.45235 20.5077 11.2792C20.5077 14.106 18.2076 16.4061 15.3807 16.4061Z" fill="#034177"/>
<path d="M23.3967 23.5635L18.2335 31.6358C16.897 33.7195 13.8569 33.7126 12.5269 31.6377L7.35526 23.5656C2.80503 24.6176 0 26.5449 0 28.8479C0 32.8443 7.92469 35.0002 15.3807 35.0002C22.8367 35.0002 30.7614 32.8443 30.7614 28.8479C30.7614 26.5432 27.9525 24.615 23.3967 23.5635Z" fill="#034177"/>
</svg>
