<svg width="38" height="39" viewBox="0 0 38 39" fill="none" xmlns="http://www.w3.org/2000/svg">
<path d="M19.0668 25.681L20.0365 26.4083V21.9234C20.0365 20.1658 18.6425 18.7719 16.8849 18.7719H7.85464C6.09706 18.7719 4.70312 20.1658 4.70312 21.9234V26.3477L5.4304 25.7416H5.91525C5.85464 25.0143 5.85464 24.1052 5.97585 23.1961C5.97585 23.1355 6.03646 23.0143 6.09706 23.0143C6.64252 22.8325 9.00616 22.1052 11.9759 22.9537C11.9759 22.9537 12.3395 24.4083 12.2789 25.7416H12.7031C12.7031 25.378 12.5213 23.1355 12.8849 23.0143C13.4304 22.8325 15.794 22.1052 18.7637 22.9537C18.7637 22.9537 19.1274 24.4083 19.0668 25.7416V25.681ZM37.3698 27.8022H36.7031V25.3174H36.8243C37.0062 25.3174 37.188 25.1355 37.188 24.9537C37.188 24.7719 37.0062 24.5901 36.8243 24.5901H35.6122C35.4304 24.7113 35.3092 24.8325 35.0668 24.8931C34.5213 25.0749 33.8546 24.9537 33.4304 24.5901H33.188C33.0062 24.5901 32.8243 24.7719 32.8243 24.9537C32.8243 25.1961 33.0062 25.3174 33.188 25.3174H33.3092V27.8022H32.6425C32.4607 27.8022 32.3395 27.9234 32.3395 28.1052V35.1961C32.3395 35.378 32.4607 35.4992 32.6425 35.4992H32.9455V35.8628C32.9455 35.984 33.0668 36.1052 33.188 36.1052C33.3092 36.1052 33.4304 35.984 33.4304 35.8628C33.4304 35.7416 33.3092 35.6204 33.188 35.6204V35.4992H34.1577V35.8628C34.1577 35.984 34.2789 36.1052 34.4001 36.1052C34.5213 36.1052 34.6425 35.984 34.6425 35.8628C34.6425 35.7416 34.5213 35.6204 34.4001 35.6204V35.4992H35.3698V35.8628C35.3698 35.984 35.491 36.1052 35.6122 36.1052C35.7334 36.1052 35.8546 35.984 35.8546 35.8628C35.8546 35.7416 35.7334 35.6204 35.6122 35.6204V35.4992H36.5819V35.8628C36.5819 35.984 36.7031 36.1052 36.8243 36.1052C36.9455 36.1052 37.0668 35.984 37.0668 35.8628C37.0668 35.7416 36.9455 35.6204 36.8243 35.6204V35.4992H37.3698C37.5516 35.4992 37.6728 35.378 37.6728 35.1961V28.1052C37.6728 27.9234 37.5516 27.8022 37.3698 27.8022ZM36.2183 27.8022H33.8546V25.2567H36.2183V27.8022ZM28.2183 12.6507C29.9759 12.6507 31.3698 11.2567 31.3698 9.49917C31.3698 7.7416 29.9759 6.34766 28.2183 6.34766C26.4607 6.34766 25.0668 7.7416 25.0668 9.49917C25.0668 11.2567 26.4607 12.6507 28.2183 12.6507Z" fill="#034177"/>
<path d="M33.4287 23.6812C33.6712 24.2873 34.3378 24.5903 34.9439 24.3479C35.55 24.1055 35.853 23.4388 35.6106 22.8327C35.6106 22.7721 32.5803 14.6509 32.2772 14.3479L32.0954 14.1661C29.1863 12.4691 26.7015 12.6509 24.2772 14.1661L24.0954 14.3479C23.3681 15.3176 21.2469 19.9237 21.6106 24.1661C21.6712 24.7721 22.156 25.257 22.7621 25.257H22.8833C23.55 25.1964 23.9742 24.6509 23.9742 23.9843C23.853 22.6509 23.9742 21.4388 24.2772 20.2873L24.459 26.7115C24.459 27.0146 24.6409 27.257 24.8833 27.3176V37.4388C24.8833 38.2267 25.55 38.8933 26.3378 38.8933C27.1257 38.8933 27.7924 38.2267 27.7924 37.4388V27.3176H28.7015V37.4388C28.7015 38.2267 29.3681 38.8933 30.156 38.8933C30.9439 38.8933 31.6106 38.2267 31.6106 37.4388V27.3176C31.853 27.257 32.0348 27.0146 32.0348 26.7115L32.2166 20.4691C32.2166 20.5297 33.4893 23.9237 33.4287 23.6812ZM29.3075 14.4085L28.8227 15.863H27.55L27.1257 14.4085C27.9742 13.9237 28.7015 13.9843 29.3075 14.4085ZM27.1257 21.3176L27.4893 16.2873H28.9439L29.3075 21.3176L28.2166 22.6509L27.1257 21.3176ZM21.6712 1.74183H15.2469C15.3075 3.25698 15.6712 8.04486 18.9439 11.6812H11.9742V1.74183H11.2469V11.6812H4.39844C7.67116 8.04486 8.09541 3.25698 8.09541 1.74183H1.67116V17.863H3.91359C5.79238 17.8024 4.33783 13.3782 3.9742 12.4085H11.1863V17.863H11.9136V12.4085H19.3075C18.9439 13.4388 17.55 17.8024 19.3681 17.863H21.6106V1.74183H21.6712ZM23.0045 0.590317V0.105469H0.398438V1.25698H23.0045V0.590317Z" fill="#034177"/>
<path d="M0.335938 37.378H1.9117V36.5295H22.5784V37.378H24.1541V33.6204H0.335938V37.378ZM0.335938 31.2567H24.0935V32.9537H0.335938V31.2567ZM19.9723 27.3174L18.8814 26.4689C18.8208 26.7113 18.7602 26.9537 18.639 27.1355C18.639 27.1355 14.6996 28.1052 12.7602 27.0749C12.7602 27.0749 12.6996 26.8325 12.639 26.4083H12.0935C12.0329 26.6507 11.9723 26.8931 11.8511 27.0749C11.8511 27.0749 7.9117 28.0446 5.9723 27.0143C5.9723 27.0143 5.9117 26.7719 5.85109 26.3477H5.66927L4.69957 27.0749L1.18442 29.8628L0.335938 30.5295H24.0935L23.245 29.8628L19.9723 27.3174Z" fill="#034177"/>
</svg>
