<svg width="28" height="32" viewBox="0 0 28 32" fill="none" xmlns="http://www.w3.org/2000/svg">
<path d="M13.0097 15.3048L0.15625 28.8643C0.156734 28.8671 0.157699 28.8695 0.158152 28.8723C0.552358 30.3448 1.90551 31.4289 3.51142 31.4289C4.15339 31.4289 4.75611 31.2564 5.273 30.9536L5.31405 30.9297L19.783 22.6316L13.0104 15.3047" fill="#EB3131"/>
<path d="M26.0155 12.9981L26.0032 12.9897L19.7565 9.39062L12.7188 15.6147L19.7809 22.6327L25.9946 19.0694C27.084 18.4849 27.8236 17.3434 27.8236 16.0272C27.8236 14.7204 27.094 13.5846 26.0154 12.9982" fill="#F6B60B"/>
<path d="M0.156947 3.13281C0.0796761 3.41601 0.0390625 3.71264 0.0390625 4.02068V27.9815C0.0390625 28.289 0.0791968 28.5866 0.157437 28.8688L13.4546 15.6558L0.157437 3.13315" fill="#0052B4"/>
<path d="M13.1057 16.0022L19.7591 9.39162L5.30645 1.06351C4.78112 0.750791 4.16798 0.570312 3.51191 0.570312C1.906 0.570312 0.551012 1.65644 0.156734 3.13056C0.15625 3.132 0.15625 3.13299 0.15625 3.13425L13.1057 16.0025" fill="#29BA38"/>
</svg>
