<svg width="42" height="42" viewBox="0 0 42 42" fill="none" xmlns="http://www.w3.org/2000/svg">
<g clip-path="url(#clip0_24_21719)">
<path d="M15.7656 0V3.5036H19.2692V5.25536C20.4954 5.08021 21.5465 5.08021 22.7728 5.25536V3.5036H26.2764V0H15.7656Z" fill="#FF0000"/>
<path d="M32.9284 11.5639L34.1546 10.3377L35.556 11.7391L38.0086 9.28661L32.7532 4.03125L30.3007 6.48378L31.7021 7.88515L30.1255 9.46176C21.717 4.38155 10.8559 7.00923 5.95088 15.4178C1.04591 23.8264 3.67351 34.3371 11.9069 39.4173C20.1404 44.4975 31.0014 41.8698 35.9064 33.4613C40.2859 26.2789 39.0596 17.1696 32.9284 11.5639ZM21.0162 36.6145C14.1842 36.6145 8.75371 31.184 8.75371 24.352C8.75371 17.52 14.1842 12.0894 21.0162 12.0894V24.3519H33.2787C33.2787 31.1839 27.8482 36.6145 21.0162 36.6145Z" fill="#FF0000"/>
</g>
<defs>
<clipPath id="clip0_24_21719">
<rect width="42" height="42" fill="white"/>
</clipPath>
</defs>
</svg>
