<svg width="28" height="28" viewBox="0 0 28 28" fill="none" xmlns="http://www.w3.org/2000/svg">
<path d="M26.25 3.5C26.134 3.5 26.0227 3.54609 25.9406 3.62814C25.8586 3.71019 25.8125 3.82147 25.8125 3.9375C25.8125 4.05353 25.8586 4.16481 25.9406 4.24686C26.0227 4.32891 26.134 4.375 26.25 4.375C26.7326 4.375 27.125 4.76744 27.125 5.25V22.75C27.125 23.2326 26.7326 23.625 26.25 23.625H1.75C1.26744 23.625 0.875 23.2326 0.875 22.75V5.25C0.875 4.76744 1.26744 4.375 1.75 4.375H24.9375C25.0535 4.375 25.1648 4.32891 25.2469 4.24686C25.3289 4.16481 25.375 4.05353 25.375 3.9375C25.375 3.82147 25.3289 3.71019 25.2469 3.62814C25.1648 3.54609 25.0535 3.5 24.9375 3.5H1.75C0.784875 3.5 0 4.28487 0 5.25V22.75C0 23.7151 0.784875 24.5 1.75 24.5H26.25C27.2151 24.5 28 23.7151 28 22.75V5.25C28 4.28487 27.2151 3.5 26.25 3.5Z" fill="#141414"/>
<path d="M2.625 5.6875C2.50897 5.6875 2.39769 5.73359 2.31564 5.81564C2.23359 5.89769 2.1875 6.00897 2.1875 6.125V21.875C2.1875 21.991 2.23359 22.1023 2.31564 22.1844C2.39769 22.2664 2.50897 22.3125 2.625 22.3125H3.9375C4.05353 22.3125 4.16481 22.2664 4.24686 22.1844C4.32891 22.1023 4.375 21.991 4.375 21.875C4.375 21.759 4.32891 21.6477 4.24686 21.5656C4.16481 21.4836 4.05353 21.4375 3.9375 21.4375H3.0625V6.5625H24.9375V21.4375H5.25C5.13397 21.4375 5.02269 21.4836 4.94064 21.5656C4.85859 21.6477 4.8125 21.759 4.8125 21.875C4.8125 21.991 4.85859 22.1023 4.94064 22.1844C5.02269 22.2664 5.13397 22.3125 5.25 22.3125H25.375C25.491 22.3125 25.6023 22.2664 25.6844 22.1844C25.7664 22.1023 25.8125 21.991 25.8125 21.875V6.125C25.8125 6.00897 25.7664 5.89769 25.6844 5.81564C25.6023 5.73359 25.491 5.6875 25.375 5.6875H2.625Z" fill="#141414"/>
<path d="M6.5625 10.0625H5.6875C5.54138 10.0625 5.40488 10.1356 5.3235 10.2572C5.28456 10.3154 4.375 11.7066 4.375 14C4.375 16.2934 5.28456 17.6846 5.3235 17.7428C5.40488 17.8644 5.54138 17.9375 5.6875 17.9375H16.1875C16.3336 17.9375 16.4701 17.8644 16.5515 17.7428C16.5904 17.6846 17.5 16.2934 17.5 14C17.5 11.7066 16.5904 10.3154 16.5515 10.2572C16.5115 10.1973 16.4574 10.1482 16.3939 10.1143C16.3304 10.0803 16.2595 10.0625 16.1875 10.0625H7.875C7.75897 10.0625 7.64769 10.1086 7.56564 10.1906C7.48359 10.2727 7.4375 10.384 7.4375 10.5C7.4375 10.616 7.48359 10.7273 7.56564 10.8094C7.64769 10.8914 7.75897 10.9375 7.875 10.9375H15.9346C16.1551 11.3571 16.625 12.4364 16.625 14C16.625 15.5518 16.1529 16.6399 15.9333 17.0625H5.94038C5.71987 16.6429 5.25 15.5636 5.25 14C5.25 12.4482 5.72206 11.3601 5.94169 10.9375H6.5625C6.67853 10.9375 6.78981 10.8914 6.87186 10.8094C6.95391 10.7273 7 10.616 7 10.5C7 10.384 6.95391 10.2727 6.87186 10.1906C6.78981 10.1086 6.67853 10.0625 6.5625 10.0625Z" fill="#141414"/>
<path d="M6.125 14C6.125 14.9651 6.90987 15.75 7.875 15.75C8.84013 15.75 9.625 14.9651 9.625 14C9.625 13.0349 8.84013 12.25 7.875 12.25C6.90987 12.25 6.125 13.0349 6.125 14ZM7.875 13.125C8.35756 13.125 8.75 13.5174 8.75 14C8.75 14.4826 8.35756 14.875 7.875 14.875C7.39244 14.875 7 14.4826 7 14C7 13.5174 7.39244 13.125 7.875 13.125ZM23.1875 19.6875C23.3035 19.6875 23.4148 19.6414 23.4969 19.5594C23.5789 19.4773 23.625 19.366 23.625 19.25V9.1875C23.625 9.07147 23.5789 8.96019 23.4969 8.87814C23.4148 8.79609 23.3035 8.75 23.1875 8.75H21C20.884 8.75 20.7727 8.79609 20.6906 8.87814C20.6086 8.96019 20.5625 9.07147 20.5625 9.1875V19.25C20.5625 19.366 20.6086 19.4773 20.6906 19.5594C20.7727 19.6414 20.884 19.6875 21 19.6875H23.1875ZM21.4375 9.625H22.75V18.8125H21.4375V9.625Z" fill="#141414"/>
<path d="M10.9375 12.6875C11.1791 12.6875 11.375 12.4916 11.375 12.25C11.375 12.0084 11.1791 11.8125 10.9375 11.8125C10.6959 11.8125 10.5 12.0084 10.5 12.25C10.5 12.4916 10.6959 12.6875 10.9375 12.6875Z" fill="#141414"/>
<path d="M12.6875 12.6875C12.9291 12.6875 13.125 12.4916 13.125 12.25C13.125 12.0084 12.9291 11.8125 12.6875 11.8125C12.4459 11.8125 12.25 12.0084 12.25 12.25C12.25 12.4916 12.4459 12.6875 12.6875 12.6875Z" fill="#141414"/>
<path d="M14.4375 12.6875C14.6791 12.6875 14.875 12.4916 14.875 12.25C14.875 12.0084 14.6791 11.8125 14.4375 11.8125C14.1959 11.8125 14 12.0084 14 12.25C14 12.4916 14.1959 12.6875 14.4375 12.6875Z" fill="#141414"/>
<path d="M10.9375 14.4375C11.1791 14.4375 11.375 14.2416 11.375 14C11.375 13.7584 11.1791 13.5625 10.9375 13.5625C10.6959 13.5625 10.5 13.7584 10.5 14C10.5 14.2416 10.6959 14.4375 10.9375 14.4375Z" fill="#141414"/>
<path d="M12.6875 14.4375C12.9291 14.4375 13.125 14.2416 13.125 14C13.125 13.7584 12.9291 13.5625 12.6875 13.5625C12.4459 13.5625 12.25 13.7584 12.25 14C12.25 14.2416 12.4459 14.4375 12.6875 14.4375Z" fill="#141414"/>
<path d="M14.4375 14.4375C14.6791 14.4375 14.875 14.2416 14.875 14C14.875 13.7584 14.6791 13.5625 14.4375 13.5625C14.1959 13.5625 14 13.7584 14 14C14 14.2416 14.1959 14.4375 14.4375 14.4375Z" fill="#141414"/>
<path d="M10.9375 16.1875C11.1791 16.1875 11.375 15.9916 11.375 15.75C11.375 15.5084 11.1791 15.3125 10.9375 15.3125C10.6959 15.3125 10.5 15.5084 10.5 15.75C10.5 15.9916 10.6959 16.1875 10.9375 16.1875Z" fill="#141414"/>
<path d="M12.6875 16.1875C12.9291 16.1875 13.125 15.9916 13.125 15.75C13.125 15.5084 12.9291 15.3125 12.6875 15.3125C12.4459 15.3125 12.25 15.5084 12.25 15.75C12.25 15.9916 12.4459 16.1875 12.6875 16.1875Z" fill="#141414"/>
<path d="M14.4375 16.1875C14.6791 16.1875 14.875 15.9916 14.875 15.75C14.875 15.5084 14.6791 15.3125 14.4375 15.3125C14.1959 15.3125 14 15.5084 14 15.75C14 15.9916 14.1959 16.1875 14.4375 16.1875Z" fill="#141414"/>
</svg>
