<svg width="28" height="28" viewBox="0 0 28 28" fill="none" xmlns="http://www.w3.org/2000/svg">
<g clip-path="url(#clip0_24_23643)">
<path d="M21.8634 12.0631L20.8784 11.2189C20.6228 10.9998 20.4177 10.728 20.277 10.4221C20.1364 10.1163 20.0635 9.78365 20.0635 9.44701V9.3349C20.1873 9.3349 20.306 9.28573 20.3935 9.19821C20.481 9.1107 20.5302 8.992 20.5302 8.86823V7.00156C20.5302 6.22841 19.9034 5.60156 19.1302 5.60156H17.2635C16.4904 5.60156 15.8635 6.22841 15.8635 7.00156V8.86823C15.8635 8.992 15.9127 9.1107 16.0002 9.19821C16.0877 9.28573 16.2064 9.3349 16.3302 9.3349V9.44701C16.3304 9.78392 16.2577 10.1169 16.1169 10.423C15.9762 10.7291 15.7708 11.0011 15.5149 11.2202L14.5308 12.0645C14.0706 12.4584 13.7011 12.9473 13.4478 13.4976C13.1946 14.0479 13.0635 14.6465 13.0635 15.2523V24.7349C13.0656 26.5382 14.5269 27.9995 16.3302 28.0016H20.0635C21.8669 27.9995 23.3282 26.5382 23.3302 24.7349V15.2523C23.3305 14.6463 23.1996 14.0475 22.9464 13.4969C22.6932 12.9464 22.3237 12.4573 21.8634 12.0631ZM16.7969 7.00156C16.7969 6.87779 16.846 6.7591 16.9336 6.67158C17.0211 6.58406 17.1398 6.5349 17.2635 6.5349H19.1302C19.254 6.5349 19.3727 6.58406 19.4602 6.67158C19.5477 6.7591 19.5969 6.87779 19.5969 7.00156V8.40156H16.7969V7.00156ZM22.3969 24.7349C22.3953 26.023 21.3517 27.0667 20.0635 27.0682H16.3302C15.0423 27.0667 13.9985 26.023 13.9969 24.7349V15.2523C13.9966 14.781 14.0984 14.3152 14.2954 13.887C14.4924 13.4588 14.7798 13.0784 15.1378 12.772L16.1226 11.9273C16.4806 11.6208 16.768 11.2404 16.965 10.8122C17.1619 10.384 17.2638 9.91826 17.2635 9.44695V9.3349H19.1302V9.44701C19.1302 9.91823 19.2321 10.3839 19.4289 10.812C19.6258 11.2401 19.9129 11.6206 20.2706 11.9273L21.2565 12.772C21.6144 13.0786 21.9017 13.459 22.0985 13.8872C22.2954 14.3154 22.3972 14.7811 22.3969 15.2523V24.7349ZM6.06354 23.8016C4.26023 23.7995 2.79892 22.3382 2.79688 20.5349V16.8016C2.79688 14.9973 4.25952 13.5349 6.06354 13.5349C7.86779 13.5349 9.33021 14.9973 9.33021 16.8016V20.5349C9.32817 22.3382 7.86686 23.7995 6.06354 23.8016ZM6.06354 14.4682C4.77566 14.4698 3.73178 15.5134 3.73021 16.8016V20.5349C3.73021 21.8235 4.77496 22.8682 6.06354 22.8682C7.35236 22.8682 8.39687 21.8235 8.39687 20.5349V16.8016C8.3953 15.5134 7.35166 14.4698 6.06354 14.4682Z" fill="#141414"/>
<path d="M18.2 22.4C16.6542 22.3984 15.4016 21.1458 15.4 19.6V18.6667C15.4 17.1204 16.6537 15.8667 18.2 15.8667C19.7466 15.8667 21 17.1204 21 18.6667V19.6C20.9985 21.1458 19.7459 22.3984 18.2 22.4ZM18.2 16.8C17.1692 16.8 16.3334 17.6358 16.3334 18.6667V19.6C16.3334 20.6309 17.1692 21.4667 18.2 21.4667C19.2309 21.4667 20.0667 20.6309 20.0667 19.6V18.6667C20.0667 17.6358 19.2309 16.8 18.2 16.8ZM20.0667 2.8C19.2935 2.8 18.6667 2.17315 18.6667 1.4C18.6667 0.62685 19.2935 0 20.0667 0C20.8398 0 21.4667 0.62685 21.4667 1.4C21.4667 2.17315 20.8398 2.8 20.0667 2.8ZM20.0667 0.933333C19.9429 0.933333 19.8242 0.9825 19.7367 1.07002C19.6492 1.15753 19.6 1.27623 19.6 1.4C19.6 1.52377 19.6492 1.64247 19.7367 1.72998C19.8242 1.8175 19.9429 1.86667 20.0667 1.86667C20.1905 1.86667 20.3092 1.8175 20.3967 1.72998C20.4842 1.64247 20.5334 1.52377 20.5334 1.4C20.5334 1.27623 20.4842 1.15753 20.3967 1.07002C20.3092 0.9825 20.1905 0.933333 20.0667 0.933333ZM22.4 6.53333C21.3692 6.53333 20.5334 5.69753 20.5334 4.66667C20.5334 3.6358 21.3692 2.8 22.4 2.8C23.4309 2.8 24.2667 3.6358 24.2667 4.66667C24.2667 5.69753 23.4309 6.53333 22.4 6.53333ZM22.4 3.73333C21.8846 3.73333 21.4667 4.15123 21.4667 4.66667C21.4667 5.1821 21.8846 5.6 22.4 5.6C22.9155 5.6 23.3334 5.1821 23.3334 4.66667C23.3334 4.15123 22.9155 3.73333 22.4 3.73333ZM11.2 0H3.73336C2.96021 0 2.33336 0.62685 2.33336 1.4C2.33336 2.17315 2.96021 2.8 3.73336 2.8H4.20003V3.73333H3.73336C3.60959 3.73333 3.49089 3.7825 3.40338 3.87002C3.31586 3.95753 3.26669 4.07623 3.26669 4.2V7C3.26669 7.12377 3.31586 7.24247 3.40338 7.32998C3.49089 7.4175 3.60959 7.46667 3.73336 7.46667V7.71301C3.73418 7.97312 3.66215 8.22827 3.52542 8.44956C3.38869 8.67084 3.19274 8.84942 2.95974 8.96507L2.83783 9.02574C1.09401 9.89024 -0.00633092 11.671 2.74089e-05 13.6173V24.7333C0.00206908 26.5366 1.46338 27.998 3.26669 28H8.86669C10.67 27.998 12.1313 26.5366 12.1334 24.7333V13.6174C12.14 11.671 11.0394 9.89024 9.29556 9.02574L9.17388 8.96507C8.94087 8.84944 8.74489 8.67088 8.60812 8.4496C8.47136 8.22833 8.39927 7.97319 8.40003 7.71307V7.46667C8.5238 7.46667 8.6425 7.4175 8.73001 7.32998C8.81753 7.24247 8.86669 7.12377 8.86669 7V4.2C8.86669 4.07623 8.81753 3.95753 8.73001 3.87002C8.6425 3.7825 8.5238 3.73333 8.40003 3.73333H7.93336V2.8H11.2C11.3238 2.8 11.4425 2.84917 11.53 2.93668C11.6175 3.0242 11.6667 3.1429 11.6667 3.26667V4.2C11.6667 4.32377 11.7159 4.44247 11.8034 4.52998C11.8909 4.6175 12.0096 4.66667 12.1334 4.66667H14C14.1238 4.66667 14.2425 4.6175 14.33 4.52998C14.4175 4.44247 14.4667 4.32377 14.4667 4.2V3.26667C14.4647 1.46335 13.0033 0.00204167 11.2 0ZM4.20003 4.66667H7.93336V6.53333H4.20003V4.66667ZM8.75662 9.8L8.87784 9.86067C10.3047 10.5679 11.2055 12.0248 11.2 13.6174V24.7333C11.1985 26.0215 10.1548 27.0651 8.86669 27.0667H3.26669C1.97881 27.0651 0.934936 26.0215 0.933361 24.7333V13.6174C0.930774 12.8368 1.14696 12.071 1.55741 11.407C1.96785 10.743 2.55614 10.2073 3.25555 9.86061L3.37677 9.8C3.76533 9.60743 4.09214 9.30983 4.32014 8.94094C4.54814 8.57206 4.6682 8.14666 4.66669 7.71301V7.46667H7.46669V7.71301C7.46524 8.14665 7.58532 8.57203 7.81331 8.94091C8.04131 9.30978 8.36809 9.60739 8.75662 9.8ZM7.00003 3.73333H5.13336V2.8H7.00003V3.73333ZM13.5334 3.73333H12.6V3.26667C12.6 2.49352 11.9732 1.86667 11.2 1.86667H3.73336C3.60959 1.86667 3.49089 1.8175 3.40338 1.72998C3.31586 1.64247 3.26669 1.52377 3.26669 1.4C3.26669 1.27623 3.31586 1.15753 3.40338 1.07002C3.49089 0.9825 3.60959 0.933333 3.73336 0.933333H11.2C12.4881 0.934908 13.5318 1.97855 13.5334 3.26667V3.73333Z" fill="#141414"/>
</g>
<defs>
<clipPath id="clip0_24_23643">
<rect width="28" height="28" fill="white"/>
</clipPath>
</defs>
</svg>
