<svg width="28" height="28" viewBox="0 0 28 28" fill="none" xmlns="http://www.w3.org/2000/svg">
<mask id="mask0_24_23628" style="mask-type:luminance" maskUnits="userSpaceOnUse" x="0" y="0" width="28" height="28">
<path d="M27.5 27.5V0.5H0.5V27.5H27.5Z" fill="white" stroke="white"/>
</mask>
<g mask="url(#mask0_24_23628)">
<path d="M12.5514 7.18524L12.5514 7.18081H12.5509C12.2233 3.53803 9.29026 0.821274 5.99141 1.10986L5.84255 1.12293C2.5437 1.41151 0.127011 4.59629 0.436924 8.2407H0.436486L0.437197 8.24508C0.43758 8.24967 0.43769 8.25421 0.438072 8.25881L0.43933 8.25864L2.64246 22.147C3.10441 25.0589 5.51333 27.1269 8.17223 26.8943H8.17228C10.8312 26.6616 12.8444 24.2067 12.7937 21.2589L12.5516 7.19897L12.5529 7.19886C12.5525 7.19426 12.5518 7.18983 12.5514 7.18524Z" stroke="#141414" stroke-miterlimit="10" stroke-linecap="round" stroke-linejoin="round"/>
<path d="M12.5515 7.19912L12.5528 7.19901C12.5524 7.19442 12.5517 7.18999 12.5513 7.18539L12.5512 7.18096H12.5508C12.5051 6.66903 12.4055 6.16334 12.2539 5.67225C8.51017 4.13165 3.6985 4.58763 0.454452 6.81215C0.40204 7.28667 0.396124 7.76518 0.436788 8.24086H0.43635L0.437061 8.24523C0.437444 8.24983 0.437554 8.25437 0.437936 8.25896L0.439249 8.25885L1.58571 15.4863L12.6775 14.516L12.5515 7.19912Z" stroke="#141414" stroke-miterlimit="10" stroke-linecap="round" stroke-linejoin="round"/>
<path d="M15.4483 7.18524L15.4483 7.18081H15.4488C15.7764 3.53803 18.7095 0.821274 22.0083 1.10986L22.1572 1.12293C25.456 1.41151 27.8727 4.59629 27.5628 8.2407H27.5632L27.5625 8.24508C27.5621 8.24967 27.562 8.25421 27.5616 8.25881L27.5604 8.25864L25.3572 22.147C24.8953 25.0589 22.4864 27.1269 19.8275 26.8943H19.8274C17.1685 26.6616 15.1553 24.2067 15.206 21.2589L15.4481 7.19897L15.4468 7.19886C15.4472 7.19426 15.4479 7.18983 15.4483 7.18524Z" stroke="#141414" stroke-miterlimit="10" stroke-linecap="round" stroke-linejoin="round"/>
<path d="M15.4482 7.19912L15.447 7.19901C15.4473 7.19442 15.448 7.18999 15.4484 7.18539L15.4485 7.18096H15.4489C15.4947 6.66903 15.5942 6.16334 15.7458 5.67225C19.4895 4.13165 24.3012 4.58763 27.5453 6.81215C27.5977 7.28667 27.6036 7.76518 27.5629 8.24086H27.5634L27.5627 8.24523C27.5623 8.24983 27.5622 8.25437 27.5618 8.25896L27.5605 8.25885L26.414 15.4863L15.3223 14.516L15.4482 7.19912Z" stroke="#141414" stroke-miterlimit="10" stroke-linecap="round" stroke-linejoin="round"/>
<path d="M25.9054 5.89258C25.3293 4.06269 23.857 2.69807 22.0333 2.53855L21.8845 2.52553C21.7661 2.51514 21.6462 2.50989 21.528 2.50989C20.403 2.50989 19.3088 2.98288 18.4471 3.8418C18.0756 4.21209 17.7627 4.63991 17.5137 5.10803C20.2818 4.45846 23.3684 4.74475 25.9054 5.89258Z" stroke="#141414" stroke-miterlimit="10" stroke-linecap="round" stroke-linejoin="round"/>
<path d="M16.742 14.64L16.6277 21.2834C16.59 23.469 18.05 25.3115 19.9513 25.4778C20.0457 25.4861 20.1404 25.4902 20.2352 25.4902C21.0862 25.4902 21.9264 25.1463 22.6011 24.5218C23.3113 23.8644 23.7914 22.9419 23.9529 21.9242L24.9938 15.362L16.742 14.64Z" stroke="#141414" stroke-miterlimit="10" stroke-linecap="round" stroke-linejoin="round"/>
<path d="M10.4855 5.10803C10.2365 4.63986 9.92355 4.21209 9.55206 3.8418C8.6903 2.98288 7.59617 2.50984 6.4712 2.50984C6.35302 2.50984 6.23309 2.51514 6.11475 2.52548L5.96583 2.53855C4.14212 2.69807 2.66994 4.06269 2.09375 5.89258C4.63075 4.74469 7.71741 4.45846 10.4855 5.10803Z" stroke="#141414" stroke-miterlimit="10" stroke-linecap="round" stroke-linejoin="round"/>
<path d="M3.00586 15.362L4.04683 21.9242C4.20827 22.9419 4.68837 23.8644 5.39865 24.5218C6.07333 25.1463 6.9136 25.4902 7.76453 25.4902C7.85865 25.4902 7.95413 25.4861 8.04841 25.4778C9.94978 25.3115 11.4097 23.469 11.372 21.2833L11.2577 14.64L3.00586 15.362Z" stroke="#141414" stroke-miterlimit="10" stroke-linecap="round" stroke-linejoin="round"/>
</g>
</svg>
