<svg width="42" height="42" viewBox="0 0 42 42" fill="none" xmlns="http://www.w3.org/2000/svg">
<path d="M41.4589 33.337L24.2312 4.76619C23.5524 3.64064 22.3143 2.94141 21 2.94141C19.6856 2.94141 18.4475 3.64064 17.7687 4.76627L0.541032 33.337C-0.160417 34.5004 -0.181171 35.9579 0.48681 37.1408C1.15495 38.3237 2.41381 39.0585 3.77224 39.0585H38.2277C39.5861 39.0585 40.845 38.3237 41.5132 37.1407C42.1812 35.9578 42.1604 34.5002 41.4589 33.337ZM39.1321 35.7962C39.0415 35.9563 38.9101 36.0895 38.7512 36.1822C38.5923 36.275 38.4116 36.3239 38.2277 36.3241H3.77224C3.58828 36.324 3.40765 36.275 3.24877 36.1823C3.08989 36.0895 2.95845 35.9563 2.86785 35.7962C2.77752 35.636 2.73131 35.4546 2.73392 35.2707C2.73653 35.0867 2.78786 34.9067 2.8827 34.7491L20.1105 6.17828C20.2033 6.02537 20.3339 5.89888 20.4896 5.81091C20.6454 5.72295 20.8212 5.67647 21 5.67592C21.3618 5.67592 21.7026 5.86845 21.8895 6.17828L39.1171 34.7491C39.212 34.9067 39.2634 35.0867 39.266 35.2706C39.2687 35.4545 39.2225 35.6359 39.1321 35.7962Z" fill="#FF0000"/>
<path d="M21.0139 14.1914C19.9738 14.1914 19.162 14.7495 19.162 15.739C19.162 18.7579 19.5171 23.0961 19.5171 26.1151C19.5172 26.9015 20.2022 27.2313 21.014 27.2313C21.6228 27.2313 22.4854 26.9015 22.4854 26.1151C22.4854 23.0961 22.8405 18.758 22.8405 15.739C22.8405 14.7496 22.0034 14.1914 21.0139 14.1914ZM21.0394 28.9817C19.9232 28.9817 19.0859 29.8696 19.0859 30.9352C19.0859 31.9754 19.9231 32.8887 21.0394 32.8887C22.0796 32.8887 22.9676 31.9754 22.9676 30.9352C22.9676 29.8696 22.0795 28.9817 21.0394 28.9817Z" fill="#FF0000"/>
</svg>
