<svg width="28" height="28" viewBox="0 0 28 28" fill="none" xmlns="http://www.w3.org/2000/svg">
<path d="M27.5626 10.5687C27.5618 9.94735 27.3677 9.34164 27.007 8.83565C26.6464 8.32967 26.1372 7.94851 25.5501 7.74508L17.6392 5.00502C15.3466 4.21467 12.8625 4.17148 10.5438 4.88164L2.31882 7.41171C1.77295 7.57753 1.29511 7.91494 0.95621 8.37387C0.617313 8.8328 0.435434 9.38878 0.437572 9.95927C0.438234 10.5724 0.56124 11.1793 0.799384 11.7443C0.563162 12.072 0.436531 12.466 0.437572 12.87C0.437764 13.1462 0.519989 13.4162 0.67382 13.6456C0.827651 13.8751 1.04616 14.0537 1.30163 14.1588C0.959058 14.5047 0.70628 14.9291 0.565336 15.3951C0.424391 15.861 0.399559 16.3544 0.493004 16.8321C0.586448 17.3099 0.795333 17.7575 1.10145 18.136C1.40756 18.5145 1.80162 18.8124 2.24926 19.0037L11.8305 23.1096C13.2688 23.7262 14.8833 23.7933 16.3678 23.2982L26.6053 19.8857C26.8841 19.7928 27.1265 19.6145 27.2983 19.3761C27.4702 19.1377 27.5626 18.8513 27.5626 18.5575C27.5636 18.1535 27.437 17.7595 27.2008 17.4318C27.4389 16.8668 27.5619 16.2599 27.5626 15.6468C27.5637 15.1278 27.4122 14.6199 27.1267 14.1864C26.8413 13.7529 26.4346 13.413 25.9574 13.209C26.4408 12.9578 26.8461 12.5788 27.1291 12.1133C27.4122 11.6478 27.5621 11.1135 27.5626 10.5687ZM26.6876 15.6468C26.6851 16.1631 26.5753 16.6732 26.3651 17.1448L17.6396 19.9211C17.2125 20.057 16.767 20.1262 16.3188 20.1263C16.1836 20.1248 16.0534 20.0752 15.9514 19.9864C15.8495 19.8976 15.7825 19.7753 15.7626 19.6416C15.7426 19.5079 15.7709 19.3714 15.8425 19.2566C15.914 19.1419 16.0241 19.0564 16.153 19.0155L25.5033 16.1718L25.2486 15.3344L15.8975 18.1786C15.5681 18.2807 15.2861 18.4974 15.1025 18.7894C14.919 19.0815 14.8461 19.4296 14.8971 19.7707C14.948 20.1119 15.1193 20.4235 15.3801 20.6492C15.6409 20.875 15.9739 20.9999 16.3188 21.0013C16.8573 21.0015 17.3926 20.9184 17.9056 20.755L26.5314 18.0106C26.6322 18.1753 26.6862 18.3644 26.6876 18.5575C26.6876 18.6677 26.6529 18.7752 26.5885 18.8646C26.524 18.9541 26.433 19.0209 26.3284 19.0558L16.0909 22.4683C14.8095 22.8932 13.417 22.8353 12.1753 22.3055L2.59401 18.2013C2.24246 18.0511 1.93831 17.8083 1.71403 17.4987C1.48976 17.1891 1.35379 16.8244 1.32063 16.4436C1.28748 16.0627 1.3584 15.68 1.5258 15.3363C1.69321 14.9926 1.95083 14.7009 2.27113 14.4922L11.6336 17.6125C13.1181 18.1075 14.7327 18.0404 16.1709 17.4239L24.7739 13.7371L25.4245 13.9375C25.7908 14.0488 26.1114 14.2752 26.3389 14.5831C26.5664 14.891 26.6887 15.264 26.6876 15.6468ZM25.4061 12.5138L15.8249 16.6198C14.5833 17.15 13.1906 17.2079 11.9093 16.7825L1.67176 13.37C1.56686 13.3351 1.47566 13.268 1.41117 13.1782C1.34667 13.0884 1.31216 12.9805 1.31257 12.87C1.31424 12.6768 1.36855 12.4877 1.46963 12.3231L10.0954 15.0675C10.6082 15.2308 11.1431 15.3139 11.6813 15.3138C12.0262 15.3122 12.359 15.1871 12.6196 14.9613C12.8803 14.7355 13.0515 14.4239 13.1023 14.0828C13.1531 13.7417 13.0801 13.3937 12.8966 13.1018C12.7131 12.8098 12.4311 12.5932 12.1018 12.4911L2.75151 9.64733L2.49688 10.4847L11.8471 13.3285C11.9757 13.3696 12.0854 13.4551 12.1567 13.5698C12.228 13.6844 12.2562 13.8206 12.2363 13.9541C12.2163 14.0876 12.1496 14.2097 12.0479 14.2985C11.9462 14.3873 11.8163 14.437 11.6813 14.4388C11.2328 14.4388 10.787 14.3696 10.3596 14.2336L1.63501 11.4573C1.42489 10.9857 1.31509 10.4756 1.31257 9.95927C1.31113 9.57604 1.43333 9.20257 1.66103 8.89431C1.88873 8.58606 2.20978 8.35948 2.57651 8.24821L10.8015 5.71771C12.9427 5.05897 15.2379 5.09897 17.3548 5.83189L25.2666 8.57021C25.6697 8.70991 26.0212 8.96829 26.2748 9.31141C26.5284 9.65453 26.6723 10.0663 26.6876 10.4927C26.7029 10.9191 26.5889 11.3402 26.3605 11.7006C26.1321 12.061 25.8 12.3439 25.4079 12.5121L25.4061 12.5138Z" fill="#141414"/>
</svg>
