<svg width="23" height="19" viewBox="0 0 23 19" fill="none" xmlns="http://www.w3.org/2000/svg">
<path d="M15.2093 11.0563C15.2093 13.1017 13.5454 14.7657 11.5 14.7657C9.45458 14.7657 7.79129 13.1017 7.79129 11.0563C7.79129 9.01089 9.45458 7.34696 11.5 7.34696C13.5454 7.34696 15.2093 9.01152 15.2093 11.0563ZM23 5.78921V16.3247C23 16.9992 22.732 17.6461 22.2551 18.123C21.7781 18.6 21.1313 18.8679 20.4567 18.8679H2.54326C1.86875 18.8679 1.22186 18.6 0.744905 18.123C0.26795 17.6461 0 16.9992 0 16.3247V5.78921C0 5.1147 0.26795 4.46781 0.744905 3.99085C1.22186 3.5139 1.86875 3.24595 2.54326 3.24595H5.67148V2.36598C5.67148 1.77578 5.90593 1.20975 6.32327 0.792416C6.7406 0.375081 7.30663 0.140625 7.89683 0.140625H15.1032C15.6934 0.140625 16.2594 0.375081 16.6767 0.792416C17.0941 1.20975 17.3285 1.77578 17.3285 2.36598V3.24531H20.4567C21.8613 3.24595 23 4.38469 23 5.78921ZM17.1168 11.0563C17.1168 7.95925 14.5971 5.43951 11.5 5.43951C8.40358 5.43951 5.88384 7.95925 5.88384 11.0563C5.88384 14.1534 8.40358 16.6731 11.5 16.6731C14.5971 16.6731 17.1168 14.1534 17.1168 11.0563Z" fill="#141414" fill-opacity="0.6"/>
</svg>
