<svg width="32" height="32" viewBox="0 0 32 32" fill="none" xmlns="http://www.w3.org/2000/svg">
<g clip-path="url(#clip0_24_25775)">
<path d="M28.5198 14.7922C28.2701 14.7922 28.0308 14.8914 27.8542 15.0679C27.6777 15.2444 27.5786 15.4838 27.5786 15.7334V19.9932L21.7032 14.5123C21.5291 14.3499 21.2998 14.2596 21.0617 14.2594C20.8236 14.2593 20.5943 14.3494 20.42 14.5116L4.92051 28.9396C3.69397 28.451 2.82376 27.254 2.82376 25.8556V7.74226C2.82376 5.91111 4.31345 4.42142 6.14461 4.42142H16.2666C16.7865 4.42142 17.2078 4.00014 17.2078 3.48024C17.2078 2.96033 16.7865 2.53906 16.2666 2.53906H6.14461C3.27571 2.53906 0.941406 4.87318 0.941406 7.74226V25.8556C0.941406 28.0848 2.3511 29.9907 4.32569 30.7299C4.57924 31.0377 5.00315 31.1328 5.36174 30.9997C5.62084 31.039 5.88254 31.0587 6.14461 31.0586H24.2579C27.1268 31.0586 29.4611 28.7245 29.4611 25.8554V15.7334C29.4611 15.4838 29.362 15.2444 29.1855 15.0679C29.009 14.8914 28.7696 14.7922 28.5199 14.7922H28.5198ZM24.2577 29.1762H7.42894L21.0606 16.4871L27.5786 22.5673V25.8554C27.5786 27.6865 26.0889 29.1762 24.2577 29.1762Z" fill="#2563EB"/>
<path d="M30.1181 5.73614H26.2645V1.88258C26.2645 1.36268 25.8433 0.941406 25.3233 0.941406C24.8034 0.941406 24.3822 1.36268 24.3822 1.88258V5.73614H20.5286C20.0087 5.73614 19.5874 6.15741 19.5874 6.67731C19.5874 7.19722 20.0087 7.61849 20.5286 7.61849H24.3822V11.472C24.3822 11.9919 24.8034 12.4132 25.3233 12.4132C25.8433 12.4132 26.2645 11.9919 26.2645 11.472V7.61849H30.1181C31.3619 7.58028 31.3619 5.77435 30.1181 5.73614ZM6.26904 11.4719C6.26904 13.4598 7.88617 15.0767 9.87394 15.0767C14.6562 14.8787 14.6547 8.06404 9.87394 7.86677C7.88617 7.86677 6.26904 9.48409 6.26904 11.4719ZM11.5965 11.4719C11.5965 12.4217 10.824 13.1944 9.87413 13.1944C7.58895 13.0997 7.58951 9.84343 9.87413 9.74912C10.824 9.74912 11.5965 10.522 11.5965 11.4719Z" fill="#2563EB"/>
</g>
<defs>
<clipPath id="clip0_24_25775">
<rect width="32" height="32" fill="white"/>
</clipPath>
</defs>
</svg>
