<svg width="12" height="8" viewBox="0 0 12 8" fill="none" xmlns="http://www.w3.org/2000/svg">
<path fill-rule="evenodd" clip-rule="evenodd" d="M0.228518 0.748697C0.375027 0.60237 0.573628 0.520179 0.780695 0.520179C0.987762 0.520179 1.18636 0.60237 1.33287 0.748697L5.98991 5.40574L10.6469 0.748697C10.7185 0.671927 10.8048 0.610351 10.9006 0.567644C10.9964 0.524937 11.0999 0.501973 11.2048 0.500122C11.3098 0.49827 11.414 0.51757 11.5113 0.55687C11.6086 0.596169 11.6969 0.654664 11.7711 0.728862C11.8453 0.803061 11.9038 0.891444 11.9431 0.98874C11.9824 1.08604 12.0017 1.19025 11.9999 1.29517C11.998 1.40008 11.9751 1.50355 11.9324 1.5994C11.8897 1.69525 11.8281 1.78152 11.7513 1.85305L6.54209 7.06227C6.39558 7.20859 6.19698 7.29078 5.98991 7.29078C5.78284 7.29078 5.58424 7.20859 5.43773 7.06227L0.228518 1.85305C0.0821904 1.70654 0 1.50794 0 1.30087C0 1.09381 0.0821904 0.895207 0.228518 0.748697Z" fill="#141414"/>
</svg>
