<svg width="28" height="28" viewBox="0 0 28 28" fill="none" xmlns="http://www.w3.org/2000/svg">
<g clip-path="url(#clip0_24_23687)">
<path d="M11.327 20.5177C10.3283 20.2851 9.2844 20.3377 8.31412 20.6694C8.23676 20.6818 8.16749 20.7244 8.12155 20.7878C8.0756 20.8513 8.05674 20.9304 8.06912 21.0077C8.0815 21.0851 8.1241 21.1543 8.18755 21.2003C8.25099 21.2462 8.3301 21.2651 8.40745 21.2527C9.30476 20.9493 10.2679 20.8968 11.1929 21.101C11.2702 21.1188 11.3515 21.1052 11.4188 21.0631C11.486 21.0209 11.5338 20.9538 11.5516 20.8765C11.5694 20.7991 11.5557 20.7179 11.5136 20.6506C11.4715 20.5833 11.4044 20.5355 11.327 20.5177ZM5.54037 22.0986C5.47037 22.0991 5.4021 22.1204 5.3441 22.1595C5.2861 22.1987 5.24095 22.2542 5.2143 22.3189C5.18765 22.3836 5.18068 22.4548 5.19427 22.5235C5.20786 22.5921 5.24141 22.6553 5.2907 22.705C5.34 22.7547 5.40287 22.7887 5.47142 22.8029C5.53998 22.817 5.61119 22.8106 5.67613 22.7845C5.74108 22.7584 5.79687 22.7137 5.83654 22.656C5.8762 22.5983 5.89797 22.5302 5.89912 22.4602C5.8999 22.4128 5.89117 22.3656 5.87346 22.3216C5.85574 22.2775 5.82939 22.2375 5.79596 22.2038C5.76253 22.1701 5.7227 22.1434 5.6788 22.1253C5.63491 22.1073 5.58784 22.0982 5.54037 22.0986ZM6.61079 26.4736C6.55614 26.4192 6.48221 26.3887 6.40516 26.3887C6.32811 26.3887 6.25418 26.4192 6.19954 26.4736L5.83204 26.8352C5.7909 26.876 5.76285 26.9281 5.75145 26.9849C5.74006 27.0417 5.74584 27.1006 5.76805 27.1542C5.79027 27.2077 5.82791 27.2533 5.87619 27.2854C5.92447 27.3174 5.98119 27.3343 6.03912 27.334C6.1937 27.334 6.2287 27.264 6.62245 26.879C6.67349 26.8231 6.7008 26.7495 6.69862 26.6739C6.69644 26.5982 6.66495 26.5264 6.61079 26.4736Z" fill="#141414"/>
<path d="M25.9766 17.9068H21.5316C21.6249 16.1568 22.1557 6.27509 22.2753 4.073C22.2773 4.03349 22.2712 3.99399 22.2574 3.9569C22.2437 3.91982 22.2225 3.88592 22.1952 3.85727C22.1679 3.82862 22.1351 3.80582 22.0987 3.79026C22.0624 3.7747 22.0232 3.7667 21.9836 3.76675H20.4816L20.7995 1.85342L23.3049 1.56175C23.3433 1.55776 23.3805 1.5462 23.4144 1.52772C23.4483 1.50924 23.4782 1.48421 23.5023 1.4541C23.5265 1.42399 23.5444 1.38938 23.5551 1.35228C23.5657 1.31519 23.5689 1.27634 23.5645 1.238L23.4507 0.260919C23.4426 0.184493 23.4047 0.114353 23.3452 0.0657454C23.2856 0.0171376 23.2093 -0.00600923 23.1328 0.00133595L20.3795 0.275503C20.0918 0.30159 19.8211 0.422665 19.6098 0.619643C19.3986 0.81662 19.2589 1.0783 19.2128 1.36342L18.8278 3.76675H17.2557C17.2321 3.48996 17.1693 3.21794 17.0691 2.95884C17.0691 2.95884 17.0691 2.95884 17.0691 2.93842C17.0598 2.92621 17.0528 2.91236 17.0486 2.89759C16.7455 2.17019 16.1687 1.59103 15.4425 1.28496C14.7163 0.978881 13.8989 0.970399 13.1666 1.26134C13.1519 1.26717 13.1382 1.27503 13.1257 1.28467C12.4032 1.58362 11.8271 2.1545 11.5216 2.87425C11.3652 3.22633 11.2807 3.60612 11.2732 3.99129C11.2657 4.37647 11.3353 4.75926 11.4778 5.11717C11.4868 5.15112 11.4985 5.18428 11.5128 5.21634C11.7347 5.7385 12.098 6.18831 12.5618 6.51504C13.0256 6.84176 13.5714 7.03242 14.1378 7.0655C14.7211 17.5655 14.5899 15.4159 14.7211 17.9009H12.0028V16.708C12.8136 11.8197 12.2945 15.0047 12.9507 10.968C12.9575 10.926 12.9551 10.883 12.9435 10.842C12.9319 10.8011 12.9115 10.7631 12.8837 10.7309C12.8559 10.6986 12.8214 10.6729 12.7826 10.6554C12.7438 10.6379 12.7016 10.6291 12.6591 10.6297H4.9999C4.95733 10.6291 4.91516 10.6379 4.87635 10.6554C4.83753 10.6729 4.80302 10.6986 4.77522 10.7309C4.74743 10.7631 4.72703 10.8011 4.71545 10.842C4.70388 10.883 4.70141 10.926 4.70823 10.968C5.1749 13.7913 4.97656 12.5809 5.65906 16.708V17.9068H2.0249C1.76344 17.9068 1.51269 18.0106 1.32781 18.1955C1.14293 18.3804 1.03906 18.6311 1.03906 18.8926C1.03906 19.154 1.14293 19.4048 1.32781 19.5897C1.51269 19.7746 1.76344 19.8784 2.0249 19.8784H7.07948C6.65933 20.053 6.25279 20.2588 5.86323 20.4938C5.71251 20.4042 5.53666 20.3663 5.36241 20.3858C5.18815 20.4052 5.02502 20.4811 4.89781 20.6018L3.69615 21.8034C3.55027 21.9504 3.46841 22.1491 3.46841 22.3561C3.46841 22.5632 3.55027 22.7619 3.69615 22.9088L3.83906 23.0518L2.94948 23.9268C2.89456 23.9817 2.8637 24.0562 2.8637 24.1338C2.8637 24.2115 2.89456 24.286 2.94948 24.3409C3.0044 24.3958 3.07889 24.4267 3.15656 24.4267C3.23423 24.4267 3.30872 24.3958 3.36365 24.3409L4.25323 23.4659L7.40031 26.613L6.51073 27.5026C6.4701 27.5429 6.4422 27.5942 6.43052 27.6502C6.41884 27.7062 6.42388 27.7644 6.44501 27.8175C6.46615 27.8707 6.50245 27.9165 6.5494 27.9491C6.59635 27.9818 6.65188 28 6.70906 28.0013C6.74745 28.0016 6.7855 27.9942 6.82104 27.9797C6.85657 27.9652 6.88889 27.9438 6.91615 27.9168L7.80573 27.0418L7.94865 27.1847C8.09561 27.3305 8.29429 27.4124 8.50136 27.4124C8.70842 27.4124 8.9071 27.3305 9.05406 27.1847L10.2616 25.9597C10.3533 25.8692 10.4211 25.7573 10.4588 25.6341C10.4965 25.5108 10.5029 25.3802 10.4774 25.2538H17.0516C17.7835 25.2549 18.4903 24.9871 19.0378 24.5013L22.4795 21.4272C22.6929 21.236 22.8327 20.9763 22.8748 20.6929C22.9168 20.4096 22.8585 20.1204 22.7099 19.8755H25.9766C26.238 19.8755 26.4888 19.7716 26.6737 19.5868C26.8585 19.4019 26.9624 19.1511 26.9624 18.8897C26.9624 18.6282 26.8585 18.3775 26.6737 18.1926C26.4888 18.0077 26.238 17.9038 25.9766 17.9038V17.9068ZM5.7524 13.6747H11.9124L11.4632 16.3872H6.21323L5.7524 13.6747ZM6.24531 16.9705H11.4195V17.9038H6.24531V16.9705ZM5.34406 11.213H12.3207L12.0086 13.0913H5.65323L5.34406 11.213ZM19.3441 4.35009H19.7991L19.2828 7.40675H18.8453L19.3441 4.35009ZM21.4849 7.99009L21.0474 15.9993C21.0384 16.185 20.9582 16.3601 20.8236 16.4882C20.6889 16.6164 20.51 16.6878 20.3241 16.6876H15.9316C15.7456 16.6878 15.5668 16.6164 15.4321 16.4882C15.2974 16.3601 15.2172 16.185 15.2082 15.9993L14.7766 7.99009H21.4849ZM21.6803 4.35009L21.517 7.40675H19.8749L20.3824 4.35009H21.6803ZM19.802 1.45967C19.8269 1.30343 19.9027 1.15981 20.0177 1.05114C20.1327 0.942479 20.2804 0.874871 20.4378 0.858836L22.9053 0.613836L22.952 1.028L20.5136 1.30217C20.4508 1.30955 20.3921 1.33715 20.3463 1.38081C20.3006 1.42448 20.2702 1.48184 20.2599 1.54425L19.8895 3.76967H19.4316L19.802 1.45967ZM11.927 4.668C11.8106 4.24449 11.8217 3.79603 11.9591 3.37884L13.5195 4.04967L11.927 4.668ZM16.6257 3.43134C16.6556 3.5415 16.678 3.65356 16.6928 3.76675H15.7828L16.6257 3.43134ZM16.4041 2.89175L14.8174 3.52467L15.4882 1.96134C15.8697 2.18302 16.1834 2.50474 16.3953 2.89175H16.4041ZM14.9457 1.72509L14.2924 3.29134C14.2924 3.26217 14.3828 3.51884 13.6595 1.71634C14.0832 1.6022 14.53 1.60624 14.9516 1.728L14.9457 1.72509ZM13.1024 1.92925L13.7411 3.50134L12.1778 2.84217C12.3974 2.45828 12.7196 2.14317 13.1082 1.93217L13.1024 1.92925ZM12.1516 5.22217L13.7266 4.59217L13.0586 6.15259C12.6797 5.92762 12.3668 5.60668 12.1516 5.22217ZM13.5924 6.38884L14.0474 5.32717C14.0474 5.32717 14.0474 5.30967 14.1086 6.49384C13.9332 6.47844 13.76 6.44321 13.5924 6.38884ZM14.5811 4.34717H18.7432L18.2532 7.40675H14.7532C14.7211 6.88467 14.6307 5.25134 14.5841 4.35009L14.5811 4.34717ZM15.2666 17.0843C15.4675 17.2045 15.6974 17.268 15.9316 17.268H20.3241C20.5619 17.271 20.7961 17.2085 21.0007 17.0872L20.957 17.9068H15.3103L15.2666 17.0843ZM9.85031 25.5426L8.65156 26.7413C8.63299 26.7615 8.61044 26.7776 8.58534 26.7886C8.56024 26.7996 8.53313 26.8053 8.50573 26.8053C8.47832 26.8053 8.45122 26.7996 8.42612 26.7886C8.40102 26.7776 8.37847 26.7615 8.3599 26.7413C8.33073 26.7122 8.77115 27.1555 4.10156 22.483C4.08141 22.4644 4.06533 22.4419 4.05433 22.4168C4.04333 22.3917 4.03765 22.3646 4.03765 22.3372C4.03765 22.3098 4.04333 22.2827 4.05433 22.2576C4.06533 22.2325 4.08141 22.2099 4.10156 22.1913C5.38198 20.9109 5.32365 20.9343 5.44031 20.9343C5.55698 20.9343 5.1749 20.5843 9.84156 25.2509C9.86471 25.2689 9.88359 25.2917 9.89686 25.3178C9.91012 25.344 9.91743 25.3727 9.91827 25.402C9.9191 25.4313 9.91344 25.4604 9.90169 25.4872C9.88995 25.514 9.8724 25.5379 9.85031 25.5572V25.5426ZM22.0886 21.0013L18.6499 24.0697C18.2098 24.4618 17.641 24.6787 17.0516 24.6793H10.0778L6.30656 20.9051C7.23513 20.3599 8.26543 20.0105 9.33406 19.8784H11.0286C12.7641 20.0855 13.7003 20.8613 13.9191 20.8613H16.6607C16.8541 20.8567 17.0414 20.9291 17.1815 21.0625C17.3215 21.196 17.4028 21.3796 17.4074 21.573C17.412 21.7664 17.3397 21.9537 17.2062 22.0937C17.0727 22.2338 16.8891 22.315 16.6957 22.3197H13.0353C12.958 22.3197 12.8838 22.3504 12.8291 22.4051C12.7744 22.4598 12.7436 22.534 12.7436 22.6113C12.7436 22.6887 12.7744 22.7629 12.8291 22.8176C12.8838 22.8723 12.958 22.903 13.0353 22.903L17.4774 22.8826C17.6203 22.8826 17.3228 23.0809 21.2691 20.0038C21.3541 19.9374 21.4543 19.8933 21.5607 19.8755H21.762C21.8848 19.8924 22.0002 19.9446 22.094 20.0256C22.1879 20.1067 22.2562 20.2133 22.2908 20.3324C22.3253 20.4515 22.3247 20.5781 22.2888 20.6968C22.2529 20.8155 22.1834 20.9213 22.0886 21.0013ZM16.6607 20.278H14.0007C13.6507 20.0884 13.5574 20.0359 13.2132 19.8784H20.4786L17.9353 21.8763C17.9792 21.6848 17.9793 21.4859 17.9356 21.2944C17.892 21.1028 17.8057 20.9236 17.6832 20.77C17.5607 20.6164 17.4052 20.4924 17.2282 20.4072C17.0511 20.322 16.8572 20.2779 16.6607 20.278ZM25.9766 19.2951H11.0841C10.4902 19.2236 9.88998 19.2236 9.29615 19.2951H2.0249C1.91815 19.2951 1.81577 19.2527 1.74029 19.1772C1.6648 19.1017 1.6224 18.9993 1.6224 18.8926C1.6224 18.7858 1.6648 18.6835 1.74029 18.608C1.81577 18.5325 1.91815 18.4901 2.0249 18.4901H25.9766C26.0833 18.4901 26.1857 18.5325 26.2612 18.608C26.3367 18.6835 26.3791 18.7858 26.3791 18.8926C26.3791 18.9993 26.3367 19.1017 26.2612 19.1772C26.1857 19.2527 26.0833 19.2951 25.9766 19.2951Z" fill="#141414"/>
</g>
<defs>
<clipPath id="clip0_24_23687">
<rect width="28" height="28" fill="white"/>
</clipPath>
</defs>
</svg>
