<svg width="28" height="28" viewBox="0 0 28 28" fill="none" xmlns="http://www.w3.org/2000/svg">
<path d="M26.4914 18.2646H24.7956L24.3395 4.4377C24.3307 4.13552 24.2042 3.84873 23.987 3.63852C23.7697 3.4283 23.4789 3.31131 23.1766 3.31251C22.8743 3.3113 22.5835 3.42828 22.3662 3.6385C22.1489 3.84871 22.0224 4.13552 22.0137 4.4377L21.5576 18.2646H18.5834C18.4744 18.2646 18.3699 18.3079 18.2928 18.3849C18.2158 18.462 18.1725 18.5665 18.1725 18.6755C18.1725 18.7845 18.2158 18.8891 18.2928 18.9661C18.3699 19.0432 18.4744 19.0865 18.5834 19.0865H26.4914C26.869 19.0865 27.1763 19.3938 27.1763 19.7714V23.1834C27.1763 23.5611 26.869 23.8684 26.4914 23.8684H9.2391C9.01209 23.8684 8.82812 24.0524 8.82812 24.2794C8.82812 24.5064 9.01209 24.6903 9.2391 24.6903H26.4915C27.3223 24.6903 27.9983 24.0144 27.9983 23.1835V19.7715C27.9983 18.9406 27.3223 18.2646 26.4914 18.2646ZM22.8352 4.46477C22.8378 4.37605 22.8749 4.29184 22.9387 4.23012C23.0025 4.1684 23.0879 4.13406 23.1766 4.13441C23.2654 4.13407 23.3508 4.16842 23.4146 4.23014C23.4783 4.29186 23.5155 4.37606 23.5181 4.46477L23.9732 18.2646H22.38L22.8352 4.46477Z" fill="#141414"/>
<path d="M7.59697 23.8684H1.50686C1.12919 23.8684 0.821953 23.5612 0.821953 23.1834V19.7714C0.821953 19.3937 1.12919 19.0865 1.50686 19.0865H16.9414C17.0504 19.0865 17.155 19.0432 17.232 18.9661C17.3091 18.8891 17.3524 18.7845 17.3524 18.6755C17.3524 18.5665 17.3091 18.462 17.232 18.3849C17.155 18.3079 17.0504 18.2646 16.9414 18.2646H6.44098L5.98489 4.4377C5.97613 4.13552 5.84963 3.84873 5.63238 3.63852C5.41512 3.4283 5.12432 3.31131 4.82202 3.31251C4.5197 3.3113 4.22888 3.42828 4.01162 3.6385C3.79435 3.84871 3.66784 4.13552 3.65909 4.4377L3.45155 10.7294C3.44977 10.7834 3.45863 10.8371 3.47762 10.8877C3.49662 10.9382 3.52538 10.9845 3.56227 11.0238C3.59915 11.0632 3.64343 11.095 3.69259 11.1173C3.74174 11.1396 3.7948 11.1519 3.84874 11.1537C4.07438 11.1595 4.26552 10.9834 4.27301 10.7565L4.48055 4.46477C4.48313 4.37605 4.52028 4.29184 4.58407 4.23012C4.64787 4.1684 4.73325 4.13406 4.82202 4.13441C4.91077 4.13407 4.99614 4.16842 5.05992 4.23014C5.12371 4.29186 5.16085 4.37606 5.16343 4.46477L5.61859 18.2646H4.02538L4.21881 12.3991C4.22059 12.3452 4.21173 12.2914 4.19274 12.2409C4.17374 12.1904 4.14498 12.1441 4.10809 12.1047C4.07121 12.0653 4.02693 12.0336 3.97777 12.0113C3.92862 11.989 3.87556 11.9766 3.82162 11.9748C3.59505 11.9677 3.40479 12.1452 3.39735 12.372L3.20299 18.2646H1.50686C0.675992 18.2646 0 18.9406 0 19.7714V23.1834C0 24.0143 0.675992 24.6903 1.50686 24.6903H7.59697C7.65133 24.6909 7.70528 24.6807 7.75569 24.6604C7.8061 24.64 7.85197 24.6098 7.89063 24.5716C7.9293 24.5334 7.96 24.4879 7.98095 24.4377C8.0019 24.3875 8.01269 24.3337 8.01269 24.2793C8.01269 24.225 8.0019 24.1711 7.98095 24.121C7.96 24.0708 7.9293 24.0253 7.89063 23.9871C7.85197 23.9488 7.8061 23.9187 7.75569 23.8983C7.70528 23.8779 7.65133 23.8678 7.59697 23.8684Z" fill="#141414"/>
<path d="M3.18441 21.9403C3.07542 21.9403 2.97088 21.9836 2.89381 22.0606C2.81674 22.1377 2.77344 22.2423 2.77344 22.3512C2.77344 22.4602 2.81674 22.5648 2.89381 22.6419C2.97088 22.7189 3.07542 22.7622 3.18441 22.7622H4.49724C4.60624 22.7622 4.71077 22.7189 4.78785 22.6419C4.86492 22.5648 4.90822 22.4602 4.90822 22.3512C4.90822 22.2423 4.86492 22.1377 4.78785 22.0606C4.71077 21.9836 4.60624 21.9403 4.49724 21.9403H3.18441ZM7.59633 21.9403H6.28345C6.17445 21.9403 6.06991 21.9836 5.99284 22.0606C5.91577 22.1377 5.87247 22.2423 5.87247 22.3512C5.87247 22.4602 5.91577 22.5648 5.99284 22.6419C6.06991 22.7189 6.17445 22.7622 6.28345 22.7622H7.59633C7.70533 22.7622 7.80986 22.7189 7.88693 22.6419C7.96401 22.5648 8.0073 22.4602 8.0073 22.3512C8.0073 22.2423 7.96401 22.1377 7.88693 22.0606C7.80986 21.9836 7.70533 21.9403 7.59633 21.9403ZM9.38253 21.9403C9.27353 21.9403 9.169 21.9836 9.09193 22.0606C9.01485 22.1377 8.97156 22.2423 8.97155 22.3512C8.97156 22.4602 9.01485 22.5648 9.09193 22.6419C9.169 22.7189 9.27353 22.7622 9.38253 22.7622H10.6954C10.8044 22.7622 10.9089 22.7189 10.986 22.6419C11.063 22.5648 11.1063 22.4602 11.1063 22.3512C11.1063 22.2423 11.063 22.1377 10.986 22.0606C10.9089 21.9836 10.8044 21.9403 10.6954 21.9403H9.38253ZM12.4817 21.9403C12.3727 21.9403 12.2681 21.9836 12.1911 22.0606C12.114 22.1377 12.0707 22.2423 12.0707 22.3512C12.0707 22.4602 12.114 22.5648 12.1911 22.6419C12.2681 22.7189 12.3727 22.7622 12.4817 22.7622H13.7945C13.9035 22.7622 14.008 22.7189 14.0851 22.6419C14.1622 22.5648 14.2055 22.4602 14.2055 22.3512C14.2055 22.2423 14.1622 22.1377 14.0851 22.0606C14.008 21.9836 13.9035 21.9403 13.7945 21.9403H12.4817ZM21.7724 22.7622C21.8814 22.7622 21.9859 22.7189 22.063 22.6418C22.14 22.5647 22.1833 22.4602 22.1833 22.3512C22.1833 22.2422 22.14 22.1377 22.063 22.0606C21.9859 21.9835 21.8814 21.9402 21.7724 21.9402H20.4595C20.3505 21.9402 20.246 21.9835 20.1689 22.0606C20.0919 22.1377 20.0486 22.2422 20.0486 22.3512C20.0486 22.4602 20.0919 22.5647 20.1689 22.6418C20.246 22.7189 20.3505 22.7622 20.4595 22.7622H21.7724ZM24.8292 22.7622C24.9382 22.7622 25.0428 22.7189 25.1198 22.6418C25.1969 22.5647 25.2402 22.4602 25.2402 22.3512C25.2402 22.2422 25.1969 22.1377 25.1198 22.0606C25.0428 21.9835 24.9382 21.9402 24.8292 21.9402H23.5164C23.4074 21.9402 23.3029 21.9835 23.2258 22.0606C23.1487 22.1377 23.1054 22.2422 23.1054 22.3512C23.1054 22.4602 23.1487 22.5647 23.2258 22.6418C23.3029 22.7189 23.4074 22.7622 23.5164 22.7622H24.8292ZM8.96838 10.0702C11.7426 7.29589 16.2566 7.296 19.0308 10.0702C19.1111 10.1504 19.2163 10.1906 19.3214 10.1906C19.4266 10.1906 19.5318 10.1504 19.612 10.0702C19.6891 9.99312 19.7324 9.88859 19.7324 9.7796C19.7324 9.67062 19.6891 9.56609 19.612 9.48902C16.5173 6.39431 11.4819 6.39426 8.38716 9.48902C8.31107 9.5663 8.26861 9.67052 8.26904 9.77897C8.26946 9.88742 8.31273 9.9913 8.38942 10.068C8.46611 10.1447 8.57 10.1879 8.67845 10.1883C8.7869 10.1888 8.89111 10.1463 8.96838 10.0702Z" fill="#141414"/>
<path d="M18.0505 11.6286C18.1276 11.5516 18.1709 11.447 18.1709 11.338C18.1709 11.2291 18.1276 11.1245 18.0505 11.0475C15.8176 8.81457 12.1857 8.81233 9.94995 11.0406C9.91003 11.0781 9.87801 11.1232 9.85576 11.1733C9.83351 11.2233 9.82148 11.2773 9.82039 11.3321C9.8193 11.3868 9.82917 11.4413 9.84941 11.4922C9.86965 11.5431 9.89985 11.5894 9.93825 11.6285C9.97665 11.6675 10.0225 11.6985 10.073 11.7196C10.1236 11.7407 10.1778 11.7515 10.2326 11.7513C10.2874 11.7512 10.3415 11.7401 10.392 11.7187C10.4424 11.6973 10.488 11.666 10.5262 11.6268C12.4412 9.71379 15.5552 9.71456 17.4693 11.6286C17.5464 11.7057 17.6509 11.749 17.7599 11.749C17.8689 11.749 17.9735 11.7057 18.0505 11.6286Z" fill="#141414"/>
<path d="M16.2354 13.2784C16.3167 13.2783 16.3961 13.2542 16.4637 13.2091C16.5313 13.1639 16.584 13.0997 16.6151 13.0247C16.6462 12.9496 16.6543 12.867 16.6385 12.7872C16.6226 12.7075 16.5835 12.6343 16.526 12.5768C15.8518 11.9026 14.9554 11.5312 14.0018 11.5312C13.0483 11.5312 12.1518 11.9026 11.4775 12.5768C11.4014 12.6541 11.359 12.7583 11.3594 12.8668C11.3598 12.9752 11.4031 13.0791 11.4798 13.1558C11.5564 13.2325 11.6603 13.2757 11.7688 13.2761C11.8772 13.2766 11.9815 13.2341 12.0587 13.158C12.5777 12.639 13.2678 12.3531 14.0017 12.3531C14.7357 12.3531 15.4257 12.639 15.9447 13.158C15.9829 13.1962 16.0282 13.2265 16.0781 13.2472C16.128 13.2678 16.1814 13.2784 16.2354 13.2784Z" fill="#141414"/>
<path d="M12.8173 13.9147C12.7787 13.953 12.748 13.9985 12.7271 14.0486C12.7061 14.0988 12.6954 14.1526 12.6954 14.2069C12.6903 14.5711 13.1518 14.7555 13.3993 14.4951C13.4784 14.4162 13.5724 14.3536 13.6757 14.311C13.7791 14.2684 13.8899 14.2466 14.0017 14.2469C14.2301 14.2469 14.4449 14.3359 14.6064 14.4974C15.0045 14.8688 15.5588 14.314 15.1876 13.9162C14.5341 13.2628 13.4713 13.2623 12.8173 13.9147Z" fill="#141414"/>
</svg>
